<?xml version="1.0" encoding="utf-8"?>
<!-- Generator: Adobe Illustrator 23.0.3, SVG Export Plug-In . SVG Version: 6.00 Build 0)  -->
<svg version="1.1" id="Calque_1" xmlns="http://www.w3.org/2000/svg" xmlns:xlink="http://www.w3.org/1999/xlink" x="0px" y="0px"
	 viewBox="0 0 2560 1400" style="enable-background:new 0 0 2560 1400;" xml:space="preserve">
<style type="text/css">
	.st0{clip-path:url(#SVGID_2_);}
	.st1{fill:#0C1317;}
	.st2{fill:#091014;}
	.st3{fill:#080E12;}
	.st4{fill:#030609;}
	.st5{fill:#05090B;}
	.st6{fill-rule:evenodd;clip-rule:evenodd;fill:#05090B;}
	.st7{clip-path:url(#SVGID_4_);}
	.st8{fill:url(#SVGID_5_);}
	.st9{fill:url(#SVGID_6_);}
	.st10{fill:#FC7C2C;}
	.st11{fill:#F7951F;}
	.st12{fill:#F7A21F;}
	.st13{fill:#FFB441;}
	.st14{fill:#250000;}
	.st15{opacity:0.8;clip-path:url(#SVGID_4_);}
	.st16{fill:#F3A547;}
	.st17{fill:#E05C4C;}
	.st18{opacity:0.6;clip-path:url(#SVGID_4_);}
	.st19{fill:#F37F47;}
	.st20{fill:#D24C3B;}
	.st21{opacity:0.3;clip-path:url(#SVGID_4_);}
	.st22{fill:#E56C32;}
	.st23{fill:#D24534;}
	.st24{fill:#FFCE83;}
</style>
<g>
	<defs>
		<rect id="SVGID_1_" width="2560" height="1400"/>
	</defs>
	<clipPath id="SVGID_2_">
		<use xlink:href="#SVGID_1_"  style="overflow:visible;"/>
	</clipPath>
	<g class="st0">
		<rect class="st1" width="2560" height="1400"/>
		<path class="st2" d="M2713.6,1084.1c0.1-48.3-0.6-98-0.3-147c0.1-17.4,2.8-66.2-2.5-81.6c-5.8-16.6-1.3-14.8-22.2-16.3
			c-5.9-0.4-11.7-0.5-17.6-0.2l-3.8-46l-9.5-40.4l-4-25.1l-2.2-21.7l-8.2-103.8l-18-107.5l-20.5-97.7l15.4-62.4l6.9-122.7
			l-1.6-126.9l-4.2-86.2l1.6-88.1l-17.1-3.2l-0.2-0.2l-2.3,79.9l-0.6,78.2l-6.2,131l-3.7,114.2l-2.8,35.9l-14.6-43.7l-51.8-198.9
			L2496-9.9l-15.8-46.5l-6.6-61.3l-42,17l2.5,46.7L2447-2.5l25.1,86.2l0.5,2.3l-12.9-18.5l-70.2-97.6l-13.8-82.9l-17.8-5.6l-33,19.3
			l15.8,110.1l26.2,99.3l18.4,91.3l-8.3-7.7l-45.8-36.1l-5.8,20.7l43.1,49.7l30.2,24.8l19.9,56.1l43.1,83l19.3,35.4l9.3,44.4
			l18.5,99.8l23.6,105.8l28.3,125.8l8.2,40.3c-21.6,0.5-43.1,3.7-64.1,12.1l0.2-1.2L2530,732l-4.8-4.1l-39.8,111.6l-5.5,27.2
			c-1.1,0.5-2.3,1.1-3.4,1.6l-2.4-14.1l-25.1-94.3l-19.2-89.6l-0.5-3.7l-19.1-103.5l-1-2.3l-7.3-28.2h-8.5l-4.3,32.1l-1.1,12.2
			l-0.2,0.1l17.9,175.1l9.7,99.9l1.5,45.5l-0.1,1.8c-5.8,3.6-11.7,7.2-17.5,10.6l2.1-4.8l-4.3-18.4l-20.8-124.4l-35.9-196.8
			L2301.2,322L2268,108.7l2.6-9.9l19.1-89.7l13.5-91.8l5.2-87.9l-11.4-2.2l-13.9,82l-14.4,91.5l-11.5,59L2231-38.6l-6.2-19.8
			l-1.2-9.1l-1.1-11.8l-1.4-8.5l-4.2-21l-16-19.4l-1.2-1.1h-31.3l-12.6,63.3l1.9,9.3l-1.8,44.3l9.2,101l31.6,210.7l35,210.4
			l16.3,109.5l-14.3-86.1l-48-220.6l-41.1-216.3l-29-133.2L2102.1-81l-9.4-16.3l-5.2-7.5l-17.1-3.2L2060-47.5l10.4,116l20.4,137.8
			l-37.1-35.3l-77.4-88.4l-12.2-14.1l-12.7-54.8l-29.9-113.3l-16.7-14.1l-13.2,2.7l-11.4,41.1l6.6,22.7l-0.3,16.6l-40.7-72.1
			l-11.8,7.3l3.2,19.8l-2.5,73l-0.1-0.1l-21.5-36.4l-5.1,4.3l27.5,91.6l2.9,96.1l-2.7,148.5l-16.4-92.2l-19.2-119.9l-19.7-100.8
			l-9.7,3.8l20.3,200.2l40.4,221.3l7.3,35.3l-6.8-17.3l-49.2-150.3L1749,165.5l0.1-3.6l1.5-118.7l-19.1-101.5l-5.6,2.2l-0.3,95.9
			l0.1,27.8l-25-93.8l-15.2,9.4l31.6,163.6l6,21.5l0.7,207.4l-3.3,181.7l-23.8-169.8l-17.3-254.6l-22-231.2L1627-85.9l23.2,199.1
			l14,250.8l30.4,249.6l19.5,236.1l7.1,114.5l0.3,44.6l1.4,35.2c-1,0-2,0-3-0.1l-17.5-73.8l-25-109.2L1633,634.3l-0.4-2.7
			l-13.3-210.9l-13.7-132.4L1586,163.1l-13-137.8l-16.7-123.1l-38.9,12.5l-3.6-3.5l-32.3,36.5l0,1.4l-3.9,28.3l1,49.7l3.8,57.9
			l-47.6-29.8l-31.5-23.4l-2.1-17.6l-9.9-59.5l-35.4,7.1l-0.4-0.1l0.7,26.9l-39.7-43.3l-9.4,10.6l39.5,65.6l-32,40.9L1278,104
			l-45.4,45.9l14.3-47l17.8-53.9l16-43.8l3.9-7.4l0.7-8.1l-6.8-8.3l-31.9,56.2l-30.9,99l-62.4,184.6l-19.8,53.3l2.8-239.7
			L1116.5-8.9l-4.7-49.2l-17.1,3.3l-2.2,30.2l-0.3-0.1l-34.3,71.9l4.9,63.3l-4.3,100.8l-2.2,44.5l-28-100L995.3,18.8l-29.6-71.9
			l-3.5,5.8l5.9,46.2l7.6,58.3l31.6,135.8l45,160.9l-0.3,99.7l2.6,112.3l-3,115.5l-1.3,153.9l-20.2-22.3l-4.9,5.6l21.2,65.4l3.4,8.8
			l-0.3,23.3l1.1,127.5l-19.6-69.4l-4.8,1.9l14.6,115.9l14.5,52.4c-23.8-5.7-47.6-10.8-71.5-13.7c-7.7-0.9-15.3-2.6-22.7-5.1
			l6.7-54.3l-8.5-1.6l-8.7,51.9c-5.8-2.5-11.5-5.5-16.9-8.8l1.3-3.1l12.1-82.8l-5.2-4.4l-20.1,64l-1.4,6.2l-0.6-6.2l-0.5-5
			l-3.8-53.1l-5-65l0.2-0.7l-2.1-16.7l-4.8-39.2h-20.6l-6,16.3l-8-17.3l-9.7-69.9l-1.8-2.8l-6-10.2l-4.1,0.8l-9.3,34l-6.7,53.5
			l-15.4,89.8l-14.8,59.8c-15.6-0.7-31.2-0.6-46.7,0.3l8.5-4.3l12.9-36.7l-3.3-34.9l-6.4-2.5l-14.9,27.5l-3.2,26.4l-8.3-6.8l0.7-9.3
			l3-38.6l7.6-60.1l20-247.3l9.6-172.8l14.9-17.5l14.9-29l13-54.8l-6.7-4.2L790.3,436l-6.6,13.2l7.5-126.4l11.1-25.9l19-42.3
			L857,147.9l24.9-92.5l7.6-91.9l-4.3-0.8l-25.4,93.8l-28.4,88.9l-34.6,100.8l5.5-65.1l13.5-133.1l-5.6-126.2h-5.4L780.6,28.6
			l-15.6,121l-1.2,11.2L747.7,101l7.8-40.2L766.2-2l3.1-53.3l-4.8-1.8L740,43.4l-1.9,8.6L709.3-76.1l-4.1,4.3l15.1,162.6l4.6,20.3
			l-11.9,47.6l-33.4,110.8l-1.5,4.3l4.7-47L694,87.6l1.6-58l-2.9-56.7h-4.5l-18.8,97.9L652.3,186l-26.1,228.9L589,643.3l-23.5,109.4
			l-7-1.4l-24.4,25.9l9.6-102.2l27.8-286.1l21.3-21.2l11.7-17.6l5.1-23.4l-5.7-11.1l-15.7,3.4l-11.1,11.1l9-93.3l10.3-119.2
			L594.3-11h-41.3L524.2,94.5l-15.8,110.6l-22.6,215.1l-22.3,221.6l10.2-317.1l1.2-16.3l5.7-121.4l0.6-103.7l29.3-70.5L528-34.8
			l7.4-45.4l-30.8,32.7l-26.1,54L477.7-2l-8.9-51.4l-16.5-3.2L435.7,48.2l1,45l-32.3,68.7l-52.7,111.9l-18.1,30.6l0.5-11l4.4-128.6
			l2.8-80.6l2-94.1L334-49.1l-6.8-7.2l-2.8-1.5l-6.4-4.1L305-51.8l-0.3,2l-2.3,2.8l-4.4,9.4l-7.4,34.4l-11.8,82.8l-5,65.7
			l-30.7-40.2l-17.2-23.7l0.3-176.7l-25.5,4.8l-9.3,40.1l-8.1,47.7l-2.8,16.2l-32.4-61.4l-7.2,6.1l35.8,76.7l-9.4,56.9l-18.4,216.3
			l-14.6-82.2l-12.6-78l0.3-11.6l-0.9-49.8l1.1-32.1l-2.8-6.6l-0.2-5.5l0.5-96.5l-16.9-6.7L90.5,44.3l1,16.4l2.9,42.8l0.9,24.4
			l-2.4,125.6L76.5,498.3l-8.6,117.5L53.5,740.2L48,851.7l0.3,26.7c-0.2-0.2-0.5-0.3-0.7-0.5c-1.6-1.1-3.3-2-4.9-2.9L38,846.7
			L19,816.3l-6.7,5.6l4.5,40.7l0.7,1.6c-21-6.6-43.8-8.4-65.8-8.9l1.7-22.8l11.6-124.2l2.2-21.6l9.3-19.5l29.5-65.8l-11.3-18.7
			l-18,15l16.5-140.9l27.6-249.3L30.4,100l8.2-59.9L34.1-82.5l-6.9-54H1.7L-22.6-32.6l-16.8,111l-30.9,223.8l-49.8,440l-6.2,97.2
			l-1.2,14.2c-4.9,0.5-9.5,2.1-13.8,4.5v267c26.3,0,59.5,15.8,85.6,19c60.9,7.5,119.6,27.3,179.1,46.1
			c59.2,18.8,114.1,24.3,174.5,31.5c61,7.3,121.8,24.6,182.9,29.9c52,4.5,105.7-1.9,157.8-2.6c45.8-0.6,90.2,1.4,135.8,3.3
			c27.3,1.1,54.7-3.4,82.1-3.5c36.4-0.2,69.8,10.9,105.8,15.9c105.9,14.7,217.2,8.6,323.5,2.5c104.3-6,208.5-0.7,312.8,0.3
			c62.7,0.6,125.2-6.1,188-6.3c55.3-0.1,108.2,4,163.3-6.2c128.4-23.6,249.6-85.3,380.6-67.6c129.3,17.5,255.9-58.7,384.9-59.6
			C2712.8,1113.7,2713.6,1099.3,2713.6,1084.1z M518.2,989.6l5.9-94l4.7-58l22.1-29.1l5.5-13.2l-15,71.7l-18.5,96l-4.7,26.9
			L518.2,989.6z M72,882.8l7.9-101.7l12.7-178.5l2.8-44.4l4.1-64.4l7.8-106.7l4.2-44.8l6.9-79.9l16.7,78l7.9,47.7l-31.8,385.6
			L99.7,904.6l-0.3,5.3c-10.3-4.2-18.8-9.4-27.7-15.4L72,882.8z M144.8,952.9l4.6-32.4l12.4-115l20.4-192l17.2-25.7l19.4-53.4
			l-12.2-10.9l-17.3,18.4l17-202l16.4-229.8l0.2-2.2l0.1,0.1l49.4,68l-2.6,101.3L247.5,772l-9.1,135.6l-1,20.6l-15.8-40.3l-10.9,6.7
			l17.5,60C203.5,956.5,166.6,968.8,144.8,952.9z M294.9,952.1l0.3-5.1l2.7,0.2l12.9-21.1l1.9-32.5l-13.1-12.5l-0.4,0.2l6.8-81.2
			l16.4-253.2l9.4-197l25.2-35.2l54.1-91.8l27.7-51.7l0.3,10.9l1.2,50.7l-2.9,41.9l-10.9,214.5l-10.4,199.3l-6-14.7l-28-60.5
			l-14.7,9.1l21.3,65.8l24.9,44.2L404,920.1l-0.7,20.1l-19.4-41.9l-20,17.1l18.4,47.1C353.2,952.2,324.3,951.2,294.9,952.1
			L294.9,952.1z M539.3,1051.8c-3.3-2.5-6.7-4.9-10.1-7.3L560.4,927l51.9-230.3l44.3-230.1l10.4-85.2l12.9-32.3l19.9-58l31.3-113.8
			l5.1-22l20.7,76.5l-12.6,164l-12.2,176l-7.5,42.2l-10,95.9l-10.1,195.8l-8,141.2l-9.2-45.3l-15-61.6l-10.2,2l8.9,62.4l17.5,59.2
			l7.3,1.9l0,0.4c-11.9,1.1-23.5,2.1-34.8,2.7C624.5,1070.5,573.2,1077,539.3,1051.8L539.3,1051.8z M2558.6,478.8l-24-72.1l-8-22.4
			l-9.4-18.6l-34.1-68.8l-33.9-72.9l-22.4-93.4l-25.5-115l44.4,66.9l40,71.2l2.9,6.7l32.5,126.5l29.4,86.8l23.9,94l33.2,202.2
			l13.6,108.4l7.3,22.7l0.2,4.8l6.8,36.3c-5,0.5-10.1,1-15.1,1.4l-20.2-147.2L2575,590.9L2558.6,478.8z M2446.2,843.6l-1.2-0.7
			l-0.2-4.1l-0.1-1.1L2446.2,843.6z M1929.5,266.3l13.1,82.3l-16.9-2.4l-9.1,17.5l14.5,32.2l17.9,12l3.2,0.2l26.8,160.8l19.7,127.7
			l11.8,92.2l21.1,231.9c-8.4,0.7-16.8,1.1-25.2,1.2l-15.5-63.2l-26.9-99.7l-56-213l-16.6-72.5l-1.8-12.4l-1.5-2.1L1855,401.6
			l3.5-12l6.8-232.6l-1.1-35.7l13.3,28.5l38.9,90.6L1929.5,266.3z M1895.1,42.9l4.5,21l6.4,60.1l7.4,44.7l-14.9-32.7l-38.4-80.4
			l-6.5-80.5L1895.1,42.9z M1405.8,79.3l-0.1-3l12.2,8.7l64.1,40.7l4.4,2.7l2.4,21.7l25.4,230.9l16.2,153.9l-3.8-4l-7.4,10.9
			l15.2,29.5l29.4,277.8l12.8,133.2l9.6,78.8c-1.3,0.4-2.6,0.7-3.9,1.1l-9.4-24.8l-34.4-60.4l-7.7,8.7l26,69.8l6.7,12.4
			c-39.5,12.9-77.9,31.3-111.8,55.8l3.3-32.9l1.4-126.6l-3.5-1.4l-15.5,120.8l-4.4,26.1l0.2-8.2l-2.6-58.4l-10.7-115.5l-9.2-239.1
			l-7.1-240.6l4.7-242.8L1405.8,79.3z M1319.9,1183.4c-37.4-3.6-74.2-6.4-111.7-8.6c-18.9-1.2-37.6-3.7-56.2-7.5l5.9-14.9l19.5-43.6
			l19.6-54.9l11.6-103.4h-3.5l-26.2,73.6l3-34l10.3-106l-0.8-95.6l-3.3,0.6l-3.6,43.8l-5.1,56.1l-14.4,97.7l-15.7,93.9l-4.9,26.3
			l-6.1,16.7l4.1-69.2l1.8-131.5l-9.2-269l-2.1-201.2l30.7-86.5l46.4-142.3l4.4-14.2l13.8-7.6l71.4-81.8l55.9-88.5l5.9,6.2l4,30.1
			l-0.1,3.6l-2,120l-2.3,242.2l13.7,234.8l2.7,186.2l-6.4-9.1l-4.3-1.9l-34.2-284l-15.3,3l28.5,310l18.5,150.8l8.7,45.4l3.8,38.3
			l0.8,6l3.2,56.7l1.6,2.1C1363.1,1181.1,1342.9,1185.6,1319.9,1183.4z M1856.4,1047.5c-25.1,8.6-58.7,27.1-84.3,15.7
			c-1.7-0.8-3.3-1.6-4.9-2.4l6-2.4l11.3-60.1l0.7-65.5l-13.3-2.5l-7.8,57.4l-2.6,49.2l-0.4-5.5l-4.7-121.2l-7.8-255l2.8-255.4
			l-2.5-148.4l16.6,49.6l55.5,149.4l28.6,67.9l8.3,20.9l78.1,308l35,119.6l4.9,22.7l-12.2-22l-27.5-32.4l-3.9,5.7l19.4,40.7
			l27.1,35.4l3.4,1.3l1.1,4C1939.7,1023.7,1901,1032.3,1856.4,1047.5L1856.4,1047.5z M2117.5,1006.4l14.4-37.1l-9.4-27l3-101.5h-9
			l-8.1,66.3l-7.3-23l-24-107.4l-40.1-205.6L2007,354.2L1976.9,139l123.9,121.8l8.1,40.1l50.1,219.6l10.7,62.1l-31.3-21.2l-5.2,5.9
			l21.7,44.6l23,19.9l21,113.3l36,140.3l-8.2-14.1l-31-52l-30.6-46.1l-5.1,4.3l17,53.9l28.4,55.6l52.7,84.4l0.2,0.7
			c-20.8,6.4-42,11.9-63.8,16.6C2169.1,994.2,2143.3,1000.6,2117.5,1006.4L2117.5,1006.4z"/>
		<path class="st3" d="M1129.2,1343.5c4.6-3.5,13.8-3.6,19.2-4.8c5.1-1.1,11.4-3.9,16.7-3.9c9.8-0.1,20.6,2.2,31,1.8
			c31.4-1.1,62.9,0.6,94.3-1.5c14-0.9,27.5-2.8,41.3-5.1c5.2-0.9,14.6-3.9,18.9,0.1c-7.8,15.8,42.7,12,48.3,16.7
			c-2.8,1.6-11.6,3.4-12.5,6.9c-1.2,4.6,11,7.5,13.6,8.2c14.1,3.7,32.9,2.7,47.4,1.9c26.5-1.5,52.8-4.1,79.4-4.4
			c9.8-0.1,21.1-1.2,30.5,1.4c3.2,8.6-47.1,19.9-56,21.4c4.3-0.1,6.8,1.5,10.4,2.7c6.9,2.4,8.7,3.3,17.2,3.5
			c21.1,0.3,42.2-2.3,63.5-1.7c9.3,0.3,22.3-0.9,29.1,5.1c-0.6,15.3-44.4,19.8-58,22.4c-16,3.1-32.2,5.8-48.3,8.3
			c-6.2,1-14.3,1.5-20,4c-7.6,3.3-10,8.2-6.7,14.7c3.4,6.8,12.9,8.4,16.1,14c-4.8,4.2-13,6.5-19.1,9.2c0.2,5.3,39.5,6.4,44.9,14.3
			c-8,4.9-20.6,5.2-27.6,10.7c11,5,26.4,3.5,38.3,3.1c19.4-0.7,38.7-2.6,58-3.5c12-0.6,29.6,0.7,41.3-2.2c2.3-0.6,4.2-0.3,6.2-1.2
			c-4.7-12.6-40.7-8.2-53.8-15.3c7.4-15.1-25.8-8.4-36-15c10-9,30.8-13.2,45.1-16.2c14.6-3,29.3-5.1,44.1-6.4
			c14.2-1.4,28.4-1.7,42.7-0.9c4.4,0.3,9.1,1.4,12.8-0.6c-9.1-5.4-56.8-4.7-22.7-18.4c17.5-7,35.9-9,55.2-9.1
			c6.1,0,18.9,1.6,21.1-4.3c-22.6-4.9,15.5-16.9,21.5-18.4c9.4-2.4,19-5.2,28.6-6.8c6.7-1.1,16.2-1.1,21.3-6.5
			c-6.4-6.8-18.1-7.7-26.9-7.8c-8.2-0.1-17.1,2.3-25.2,0.6c-2.6-0.6-6.1-3.6-8.2-3.9c-2.6-0.4-4.1,0.8-7.2,1.3
			c-8.7,1.5-17.5,2.2-26.3,2c-12.7-0.3-43.5,5.2-53.4-4.5c9.4-6.6,24.2-7.6,35-11.1c5.3-1.7,19.4-2.6,22.5-7.2
			c-6.2-5.3-15-5.7-22.8-6.5c-13.5-1.5-26.9-3-40.3-4.8c-14.1-1.9-28-2.5-42.2-3c-9.7-0.4-22.2,1.5-30.3-4.8
			c8.5-8.3,30.9-8.4,41.9-9.8c28.6-3.8,57.6-2.5,86.3-2.4c26.2,0,52.5-3.6,78.6-1.9c9.6,0.6,36.6-0.2,42,9.5
			c-2.7,4.8-11.7,6.6-16.7,8.4c-11.8,4.2-24.1,7.8-36.6,8.1c-8.8,0.2-40.7-1.3-41.8,11c9.8,3.2,23.4-0.5,33.8-0.7
			c11-0.2,21.9,0.4,32.8,1.9c8.7,1.1,27.8-8.2,32.8,2.4c3.7,7.8-5.2,14.4,8.7,18.8c13,4.2,29.6,2.5,43.1,2.9
			c5.6,0.2,10.9,1.3,16.4,1.4c5.3,0.1,10.6-1.2,15.8-1.5c6.4-0.4,18-1.4,22-7c-0.9-1.8-5.2-2-5.1-4.1c0.1-2,7.4-4,8.9-4.4
			c4.3-1.2,25.7-3.9,19.4-12c-1.4-1.7-7.3-3.1-6-6.4c0.3-0.7,3.8-1.9,4.7-2.5c3.4-2.5,6.4-4.9,1.8-7.9c-6.6-4.3-15.1-5.4-22.4-7.9
			c-6.9-2.3-12.6-6.8-4.2-12c0.9-0.5,1.7-1,2.7-1.4c9.5-4.4,23-4.2,32.7-4.8c7.4-0.5,14.8-1,22.3-1c9.3,0,18.3,1.8,27.6,2.3
			c17.3,0.9,35.5-1.1,52.2,3.6c4.8,1.3,9.5,3.3,13.8,5.8c7.3,4.3,14.8,7.8,22,12.3c2.1,1.3,5.3,2.7,4.3,5c-0.7,1.8-6.3,3.1-7.8,3.8
			c-5.6,2.2-11.4,3.7-17.3,4.6c-6.5,0.9-12.9,0.4-19.4,1c-2.1,0.2-5.4,1.4-6.3,3.6c-0.6,1.4-0.8,0.9,0.6,1.9c2,1.4,6,0.5,7.2,3.4
			c2.5,6-22.7,7.6-26,7.9c-12.2,1-24.9-1-37.1,1.2c-3.4,0.6-2.9,2.5-3.4,5.3c-0.5,3.1-0.3,6.3,2.3,8.4c10.9,8.9,26.8,1.7,39.3,2
			c1.7,0,29.3,5.4,26.9,7.3c-8.5,6.8-31.1,7.7-41.8,8.6c-12.4,0.9-24.8,2.1-37.2,2.7c-13.4,0.6-26.7,0.7-40.1,1.4
			c-3.6,0.2-6.9,0.7-10.2-0.2c8,3.5,21.8,8.7,9.8,14.6c-14.3,7.1-34.4,3-49.1,1.2c-23.8-3-53.4-1.5-76.9,1.8
			c-19.3,2.8-38.3,5-57.7,6.8c-8.3,0.8-18.2,1-26.1,3.2c3.4,3.3,7.9,7.3,3.7,10.9c10.6,4.7,30.9,2.3,42.8,2.7
			c11.7,0.4,34.2-1.8,44.4,3.8c-7.2,5.4-26.3,5.9-35.4,6.9c-18.7,2-37.5,3.7-56.2,5.2c-16.7,1.3-46.5,6.3-62.2-0.7
			c0.9,0.7,1.6,1.7,2.3,2.3c-9.7,2.2-68.1,10.5-57.4,21.4c6.9,7.1,33.1,3.7,42.3,3.1c10.3-0.6,20.5-2.1,30.5-4.3
			c1.9,4.7,13.2,5.7,18.3,8.7c13.3,7.6,1.8,9.2-6.4,16.4c32.8,12.3,74.4,9.8,109.7,9.7c-2-0.7,6.5-2.1,15.3-2.5
			c10.4-0.4,17.7-0.4,27.2,2.5c9.6,2.9,49.7,1.9,50.6,12c-4.7,2.5-9.7,4.4-14.9,5.4h-588.3c1-0.2,2-0.5,2.9-0.9
			c10.4-4.1,21.5-6.1,33.9-7.8c17.2-2.3,34.8-3.5,52.2-4.3c9.8-0.5,28.7,2,37.7-2.5c-3.1-2.2-7.7-1.9-11.8-2.4c2.7-4,9.8-4.3,12-8.6
			c-7.8-3.9-19.3-3.6-28.2-4.4c-15.6-1.4-31.1-1.8-46.7-2.1c-9.5-0.2-73.3,1-74-13.2c13-9.6,51.5-12.3,68.4-11.6
			c0.7,0.5,0.6,0.9-0.4,1.3c5.5,1.6,11.7-0.1,17.3,0c6.6,0.1,11.2,2.4,17.3,3c7.9,0.8,38.8-2.5,37.9-11.3
			c-1.3-12.7-46.1-15.2-56.8-16.3c-16.1-1.7-32.2-2.9-48.4-4.1c-4.6-0.3-15.3,0.2-18.5-3.8c4.3-3.5,11.4-3,15.1-6.8
			c-3.6-8-27.4-1.8-32.2-11.1c15.8-15,55.5-10.2,76.8-9.5c14.3,0.5,28.6,0.8,43,0.3c5.5-0.2,22,0.2,26.5-4.8
			c-4.6-10.9-40.6-8.6-51.2-9.2c-19.3-1-39.8-7-58.9-5.6c-9.3,0.7-18,1-27.2,1.7c-12.7,1-30.4,7-42.3,2.7
			c4.4-2.7,40.9-6.5,37.3-15.2c-1.7-4.1-9.6-1.9-9.9-6.1c-0.2-3.1,7.2-5.9,9.2-6.5c-4.3-6.3-15.6-7.2-22.6-8.1
			c-19.4-2.6-39.5-0.5-59.1-1.3c-20.8-0.8-41.6,0.2-62.5-0.5C1155.1,1347.9,1140.3,1349.5,1129.2,1343.5z"/>
		<path class="st3" d="M0,1323.1c4.6-3.6,13.8-3.6,19.2-4.8c5.1-1.1,11.4-3.9,16.7-3.9c9.8-0.1,20.6,2.2,31,1.8
			c31.4-1.1,62.9,0.6,94.3-1.5c14-0.9,27.5-2.8,41.3-5c5.2-0.9,14.6-3.9,18.9,0.1c-7.8,15.8,42.7,12,48.3,16.7
			c-2.8,1.6-11.6,3.4-12.5,6.9c-1.2,4.6,11,7.5,13.6,8.2c14.1,3.7,32.9,2.7,47.4,1.9c26.5-1.5,52.8-4.1,79.4-4.4
			c9.8-0.1,21.1-1.2,30.5,1.4c3.2,8.6-47.1,19.9-56,21.4c4.3-0.2,6.8,1.5,10.4,2.7c6.9,2.4,8.7,3.3,17.2,3.5
			c21.1,0.3,42.2-2.3,63.5-1.7c9.3,0.3,22.3-1,29.1,5c-0.6,15.3-44.4,19.8-58,22.4c-16,3.1-32.2,5.8-48.3,8.3c-6.2,1-14.3,1.5-20,4
			c-7.6,3.3-10,8.2-6.7,14.7c3.4,6.8,12.9,8.4,16.1,14c-4.8,4.2-13,6.5-19.1,9.2c0.2,5.3,39.5,6.4,44.9,14.3
			c-8,4.9-20.6,5.2-27.6,10.7c11,5,26.4,3.5,38.3,3.1c19.4-0.7,38.7-2.6,58-3.5c12-0.6,29.6,0.7,41.3-2.1c2.3-0.6,4.2-0.3,6.2-1.2
			c-4.7-12.6-40.7-8.2-53.8-15.3c7.4-15.1-25.8-8.4-36-15c10-9,30.8-13.2,45.1-16.2c14.6-3,29.3-5.1,44.1-6.4
			c14.2-1.4,28.4-1.7,42.7-1c4.4,0.3,9.1,1.4,12.8-0.6c-9.1-5.4-56.8-4.7-22.7-18.4c17.5-7,35.9-9,55.2-9.1c6,0,18.9,1.6,21-4.3
			c-22.6-4.9,15.5-16.9,21.5-18.4c9.4-2.4,19-5.2,28.6-6.8c6.7-1.1,16.2-1.1,21.3-6.5c-6.4-6.8-18.1-7.7-26.9-7.8
			c-8.2-0.1-17.1,2.3-25.2,0.6c-2.6-0.6-6.1-3.6-8.2-3.9c-2.6-0.4-4.1,0.8-7.2,1.3c-8.7,1.5-17.5,2.2-26.3,2
			c-12.7-0.3-43.5,5.2-53.4-4.5c9.4-6.6,24.2-7.6,35-11.1c5.3-1.7,19.4-2.6,22.5-7.2c-6.2-5.3-15-5.7-22.8-6.5
			c-13.5-1.5-26.9-3-40.3-4.8c-14.1-1.9-28-2.5-42.2-3.1c-9.7-0.4-22.2,1.5-30.3-4.8c8.5-8.3,30.9-8.4,41.9-9.8
			c28.6-3.8,57.6-2.5,86.3-2.4c26.2,0.1,52.5-3.6,78.6-1.9c9.6,0.6,36.6-0.2,42,9.5c-2.7,4.8-11.7,6.6-16.7,8.4
			c-11.8,4.2-24.1,7.8-36.6,8.1c-8.8,0.2-40.7-1.4-41.8,11c9.8,3.2,23.4-0.5,33.8-0.7c11-0.2,21.9,0.4,32.8,1.9
			c8.7,1.1,27.8-8.2,32.8,2.4c3.7,7.8-5.2,14.3,8.7,18.8c13,4.2,29.6,2.5,43.1,2.9c5.6,0.1,10.9,1.3,16.4,1.4
			c5.3,0.1,10.6-1.2,15.8-1.5c6.4-0.4,18-1.4,22-7c-0.9-1.8-5.2-2-5.1-4.1c0.1-2,7.4-4,8.9-4.4c4.3-1.2,25.7-3.9,19.4-12
			c-1.4-1.7-7.3-3.1-6-6.4c0.3-0.7,3.8-1.9,4.7-2.5c3.4-2.5,6.4-4.9,1.8-7.9c-6.6-4.3-15.1-5.4-22.4-7.9c-6.9-2.3-12.6-6.9-4.2-12
			c0.9-0.5,1.7-1,2.7-1.4c9.5-4.4,23-4.2,32.7-4.8c7.4-0.5,14.8-1,22.3-1c9.3,0,18.3,1.8,27.6,2.3c17.3,0.9,35.5-1.1,52.2,3.6
			c4.8,1.3,9.5,3.3,13.8,5.8c7.3,4.3,14.8,7.8,22,12.3c2.1,1.3,5.3,2.7,4.3,5c-0.7,1.8-6.3,3.1-7.8,3.8c-5.6,2.2-11.4,3.7-17.3,4.6
			c-6.5,0.9-12.9,0.4-19.4,1c-2.1,0.2-5.4,1.4-6.3,3.6c-0.6,1.4-0.8,0.9,0.6,1.9c2,1.4,6,0.5,7.2,3.4c2.5,6-22.7,7.6-26,7.9
			c-12.2,1-24.9-1-37.1,1.2c-3.4,0.6-2.9,2.5-3.4,5.3c-0.5,3-0.3,6.3,2.3,8.4c10.9,8.9,26.8,1.7,39.3,2c1.7,0,29.3,5.4,26.9,7.3
			c-8.5,6.8-31.1,7.7-41.8,8.5c-12.4,1-24.8,2.1-37.2,2.7c-13.4,0.6-26.7,0.7-40.1,1.4c-3.6,0.2-6.9,0.7-10.2-0.2
			c8,3.5,21.8,8.7,9.8,14.6c-14.3,7.1-34.4,3-49.1,1.2c-23.8-3-53.4-1.5-76.9,1.8c-19.3,2.8-38.3,4.9-57.7,6.8
			c-8.3,0.8-18.2,1-26.1,3.2c3.4,3.3,7.8,7.3,3.7,10.9c10.6,4.7,30.9,2.3,42.8,2.7c11.7,0.4,34.2-1.8,44.4,3.8
			c-7.2,5.4-26.3,5.9-35.4,6.9c-18.7,2-37.5,3.7-56.2,5.2c-16.7,1.3-46.5,6.3-62.2-0.7c0.9,0.7,1.6,1.7,2.3,2.3
			c-9.7,2.2-68.1,10.5-57.4,21.4c6.9,7.1,33.1,3.7,42.3,3.1c10.3-0.6,20.5-2.1,30.5-4.3c1.9,4.6,13.2,5.7,18.3,8.7
			c13.3,7.6,1.8,9.2-6.4,16.4c32.8,12.3,74.4,9.8,109.7,9.7c-2-0.7,6.5-2.1,15.3-2.5c10.4-0.4,17.7-0.4,27.2,2.5
			c9.6,2.9,49.7,1.8,50.6,12c-4.7,2.5-9.7,4.4-14.9,5.4H201.4c1-0.2,2-0.5,2.9-0.9c10.4-4.1,21.5-6.1,33.9-7.8
			c17.2-2.3,34.8-3.5,52.2-4.3c9.8-0.5,28.7,2,37.7-2.5c-3.1-2.2-7.7-1.9-11.8-2.4c2.7-4,9.8-4.3,12-8.6c-7.8-3.9-19.3-3.6-28.2-4.4
			c-15.6-1.4-31.1-1.8-46.7-2.1c-9.5-0.2-73.3,1-74-13.2c13-9.6,51.5-12.3,68.4-11.6c0.7,0.5,0.6,0.9-0.4,1.3
			c5.5,1.6,11.7-0.1,17.3,0c6.6,0.1,11.2,2.4,17.3,3c7.9,0.8,38.8-2.5,37.9-11.3c-1.3-12.7-46.1-15.2-56.8-16.3
			c-16.1-1.7-32.2-2.9-48.4-4c-4.6-0.3-15.3,0.2-18.5-3.8c4.3-3.5,11.4-3,15.1-6.8c-3.5-8-27.4-1.8-32.2-11.1
			c15.8-15,55.5-10.2,76.8-9.5c14.3,0.5,28.6,0.8,43,0.3c5.5-0.2,22,0.2,26.5-4.8c-4.6-10.9-40.6-8.6-51.2-9.2
			c-19.3-1-39.8-7-58.9-5.6c-9.3,0.7-18,1-27.2,1.7c-12.7,1-30.4,7-42.4,2.7c4.4-2.7,40.9-6.5,37.3-15.2c-1.7-4.1-9.6-1.9-10-6.1
			c-0.2-3.1,7.2-5.9,9.2-6.5c-4.3-6.3-15.6-7.2-22.6-8.1c-19.4-2.6-39.5-0.5-59.1-1.3c-20.8-0.8-41.6,0.1-62.5-0.6
			C25.9,1327.5,11.1,1329.1,0,1323.1z"/>
		<path class="st4" d="M2112.4,1424.5c4.7-0.1,9.3-0.4,14-0.9c7.6-0.8,15.2-2.2,22.6-4.2c-0.5-1.6-1-3.2-1.5-4.8
			c-0.6-1.9-1.2-3.7-1.7-5.6l-0.1-0.2l0,0c-0.3-1-0.6-2-0.9-3h0c0,0,0-0.1,0-0.1c-5.4-17.3-12-34.5-26.4-44.5
			c-13-8.9-29.2-14.4-44.9-14.1c-2.3,1.6-4.6,3.2-6.7,5l0,0l0,0c-1.1,0.8-2.1,1.7-3.1,2.6l-0.3,0.3c-1,0.9-1.9,1.7-2.8,2.6l-0.4,0.4
			c-0.9,0.9-1.8,1.8-2.7,2.7l-0.4,0.5c-0.9,0.9-1.7,1.9-2.6,2.8c-0.1,0.1-0.2,0.3-0.3,0.4c-3.6,4.1-6.8,8.6-9.7,13.3
			c-0.1,0.2-0.2,0.3-0.3,0.5c-0.5,0.9-1,1.7-1.5,2.6c-0.3,0.5-0.6,1-0.8,1.5c-0.4,0.8-0.8,1.5-1.2,2.3c-0.3,0.6-0.6,1.2-0.9,1.8
			c-0.4,0.7-0.7,1.5-1,2.2c-0.3,0.7-0.6,1.4-0.9,2.1c-0.3,0.7-0.6,1.4-0.9,2.1c-0.3,0.6-0.5,1.3-0.7,1.9
			c-11.3-9.6-24.3-17-38.4-21.8c-5.3-1.8-10.9-3.3-16.4-2.2c-5.9,1.2-10.8,5.1-15.3,9.1c-3.9,3.5-7.6,7.2-11.1,11.1
			c-0.2,0.2-0.3,0.4-0.5,0.5c-1.4,1.5-2.7,3.1-4.1,4.6l-0.1,0.1c-1.2,1.5-2.4,2.9-3.6,4.4c-0.3,0.4-0.6,0.7-0.9,1.1
			c-1.2,1.5-2.3,3.1-3.5,4.7l0,0c2.6,0.6,5.3,1.2,8,1.7c32.3,6.6,65.3,9.2,98.2,7.7c13.5,3.9,27.4,6.6,41.4,8.1
			c1.2,0.1,2.5,0.2,3.7,0.3c6.2,0.5,12.3,0.7,18.5,0.6L2112.4,1424.5z"/>
		<path class="st4" d="M2137.4,1312.2c0-0.2-0.1-0.4-0.2-0.6c-0.1-0.4-0.3-0.8-0.4-1.2c-0.1-0.2-0.2-0.4-0.3-0.7
			c-0.2-0.4-0.4-0.7-0.6-1.1c-0.1-0.2-0.3-0.4-0.4-0.6c-0.2-0.3-0.5-0.7-0.7-1c-0.1-0.1-0.1-0.2-0.2-0.2h0c-1.5-1.8-3-3.4-4.7-5
			c-11.4-11.5-25.4-20.2-40.7-25.4c-4.7-1.6-9.7-2.9-14.5-2c-5.2,1-9.6,4.5-13.6,8.1c-2.1,1.9-4.2,3.9-6.2,6v0
			c-1.5,1.5-3,3.1-4.4,4.7c-0.5,0.6-1,1.1-1.5,1.7c-1.1,1.3-2.2,2.6-3.3,3.9c-0.5,0.6-0.9,1.1-1.4,1.7c-1.5,1.8-2.9,3.7-4.2,5.6
			c20,4.5,40.4,7.2,60.9,8.3c12.2,0.6,24.5,0.6,36.7-0.1C2137.7,1313.5,2137.6,1312.8,2137.4,1312.2z"/>
		<path class="st4" d="M597.4,1442.2c-0.8-1.9-1.6-3.8-2.4-5.6c-0.1-0.3-0.3-0.6-0.4-0.9l0,0c-1.3-2.9-2.7-5.7-4.2-8.4l0,0
			c-0.2-0.4-0.5-0.8-0.7-1.3l0,0c-3.4-5.9-7.2-11.6-11.4-17l0,0l0,0c-7.4-9.4-16-18.3-26.1-27.8l0,0l0,0c-0.8-0.8-1.6-1.5-2.5-2.3
			l0,0l0,0c-1.3-1.2-2.5-2.3-3.8-3.5c-12.7-5.7-25.5-11.1-38.4-15.9l0,0c-0.5-0.2-0.9-0.4-1.4-0.5l0,0
			c-32.4-12-65.8-20.8-100.3-23.9c-14.5,7.2-28.2,15.9-40.8,26.1l0,0c-0.8,0.6-1.6,1.3-2.4,1.9l0,0c-1.2,1-2.3,2-3.5,3l0,0
			c-0.8,0.7-1.7,1.5-2.5,2.2l0,0c-1.4,1.3-2.9,2.6-4.3,3.9l0,0c-1.3,1.2-2.6,2.5-3.9,3.7l0,0c-0.9,0.9-1.9,1.9-2.8,2.9l0,0
			c-0.9,1-1.8,1.9-2.8,2.9l0,0c-0.9,0.9-1.8,1.9-2.6,2.9l0,0c-0.6,0.7-1.3,1.5-1.9,2.2c-1.1,1.2-2.2,2.5-3.2,3.7v0
			c-1.5,1.8-3,3.6-4.4,5.5c-0.7,0.9-1.4,1.8-2.1,2.7l0,0c-1,1.4-2.1,2.7-3.1,4.1l0,0c-0.6,0.8-1.2,1.6-1.8,2.4l0,0
			c-0.5,0.8-1,1.5-1.6,2.3c-1.2,1.8-2.4,3.5-3.6,5.3c-1.2,1.9-2.4,3.8-3.5,5.7l0,0c-0.4,0.7-0.8,1.4-1.2,2.1l0,0
			c-1,1.7-2,3.4-2.9,5.2l0,0c-0.4,0.7-0.8,1.4-1.2,2.1l0,0c-1.3,2.4-2.5,4.8-3.7,7.2c6,0.7,12,1.3,18,2
			c54.1,5.9,109.6,10.7,164.6,11.1C525.1,1448.5,561.7,1446.8,597.4,1442.2z"/>
		<path class="st5" d="M1717-121.9c0,0,83.5,41.7,93,46.2c5.9,2.8,20.5,3.4,33.4,4.6c7.7,0.7,14.7,1.7,19,3.3
			c3.9,1.7,7.8,3.6,11.5,5.7c20.2,10.9,57.7,33.9,76.6,51.9c23.7,22.6,26,36.1,35,41.8c9,5.6,42.9,1.1,59.8,10.1s67,60.9,86,72.2
			c0,0,39,5,79.2,13.9c-0.1,11.2-0.1,23.4,0,36.4v0.9c-0.9,106.4-1.4,294.9,5.9,294.9c1.3,0,2.3-4.9,3.2-13.4
			c0.3-1.4,0.7-6.1,1.1-13.5c0.1-1.9,0.2-4,0.3-6.3c0.8-13.9,1.4-31.2,1.8-50.6c0-2.2,0.1-4.5,0.2-6.8c1.8-92.9,0.7-225.4,0.6-238.5
			l0,0c0.2,4.2,1.3,19.8,4.4,33.5v0.4c2,9,4.9,17.1,9,20.2c0,0,0.1,0,0.1,0.1c7.6,5.6,13.3-11.8,16.2-24.1l0.3-1.2
			c0.7-3.1,1.2-5.8,1.5-7.6l0.4-2.1c0,0,6.7,185.9,16.7,196c0.6,0.6,1.2,0.4,1.7-0.5c8.4-14.2,10.3-193.1,10.3-193.4h0l2.7,4.2
			l6.7,10.6c0,0,8.9,254.2,11.2,260.9c1.1,3.2,1.2-69.1,0.9-145.6v-0.2c-0.1-40.3-0.4-81.7-0.6-113.9c16.4,13.9,31.7,29,46,45.1
			c0,0,5.6,46.3,13.5,59.8c3.5,6,23.7,23.7,48.5,47.4c-0.2,139.8,1.4,333.5,11.4,341.2c1.7,1.3,3-2.9,4.2-11.2
			c6-42.2,6.5-192.5,6-308.8c25.9,26.1,53,56.5,70,85.9c39.3,67.9,114.9,188.6,128.5,207.8c13.5,19.2,41.8,68.8,62.1,110.6
			c20.3,41.8,68.8,264.1,77.9,333c0,0-14.7,21.4-16.9,37.3l-14,92.7l108.8,111.1l14.4-39l-15.2-356.5V924l5.4-360.8
			c0,0-8.1-8-21.5-20.6c-41.3-38.7-132.7-119.7-190.7-137c0,0-28.2-17.4-79-20.8c0,0-30.2-58.3-35.8-75.6
			c-1.7-9.3,4.1-30.9,4.1-30.9l0,0c2.3-6.4,5-12.7,8-18.7c0,0,32.7-4.5,42.9-10.1c0,0,0.2-0.1,0.4-0.3c0.1,0,0.1-0.1,0.2-0.1
			c1.3-0.9,2.5-2,3.4-3.3c0.1-0.1,0.1-0.2,0.2-0.3c4.1-5.1,9.8-16,10.7-37.7l0-0.1c0,0,0,0,0-0.1c2.1-9.2,33.8-46.2,28.6-58.6
			c-5.2-12.4-17.6-51.9-50.3-49.6l-0.1,0.1c-0.8,1.3-11.3,17.1-25.1,34.9c-13.7,17.5-30.6,36.9-44.8,46.2c0,0-64.3,20.3-73.4,15.8
			c0,0-4.2-15.8-19.6-17.6v0c-12.1-12.7-25.8-29-31.2-37.7c-9-14.7-13.5-65.5-7.9-76.8c2-3.9,7.9-7.2,14.7-10.2l0.1,0
			c5.3-2.3,11.3-4.4,16.4-6.5h0c0.5-0.2,1-0.4,1.5-0.6c0,0,0.1,0,0.1,0v0l0.1,0h0c0,0,0,0,0.1,0c0.1-0.1,0.2-0.1,0.3-0.1
			c0.1,0,0.1,0,0.2,0c0.1-0.1,0.2-0.1,0.3-0.1c0.1-0.1,0.3-0.1,0.4-0.2c5.8-2.5,10.1-5.1,10.9-8c2.3-9-4.7-23.5-4.7-23.5
			s-3.2-6.2-8-16.4c40.6,22.1,244.3,128.9,443,159.8l-4-24.1c0,0-219.8-10.9-444.1-146.9l0.1-35.7c0,0-2.6-2.4-10.3-3.4
			c-1.8-0.4-3.6-0.6-5.4-0.8c-11-33.6-14.3-69.4-14.3-69.4h-53.9c0,0,25.2,46.6,37.9,79.5c-1.4,14.3-3.5,50.5,10.9,56.5
			c0.1,4.3,0,8.6-0.3,13c0,0-18.1,4.5-24.8,11.3c0,0-11.3,54.2-29.4,72.2c0,0-2.9-0.2-8-0.6c0,0-0.5-10.6-7.9-10.6
			c-2.5-0.1-5,0.7-7,2.1c-1.1,0.7-2,1.7-2.5,2.8l-0.3-0.5c-0.6-1-2.5-3.1-7.1-4.4c-5.9-1.6-12.3,2.1-13,2.5l0,0c0,0-3.7-0.3-9.1-0.8
			c-7.4-0.6-18-1.7-27.5-2.9c-0.3,0-0.7-0.1-1-0.2c-7.9-1.1-14.8-2.4-18.1-3.7c-0.1,1.4-0.1,2.8-0.2,4.3
			c-21.7-3.7-42.6-8.3-57.5-13.9c-1.1-0.4-2.3-0.9-3.4-1.4c0,0-2.9-1.4-7.4-3.5c-2.8-1.5-5.5-3-8.1-4.8
			c-21.3-15.1-42.6-42.8-42.6-42.8c-6.6-9.1-12.4-18.7-17.5-28.7l0,0c0,0,6.6-26.7,1.6-39.8l0.1,0.1l-0.1-0.1
			c-0.4-1.1-0.9-2.1-1.6-3.1c-7.9-11.3-33.9-82.3-33.9-82.3l-9-0.1l0,0.1h-35c0,0,21,24.7,32.9,45.8c4.2,7.4,7.2,14.3,7.8,19.7
			c1.4,12.8-2.2,28.7-5,38.7c-0.8,2.6-1.5,4.9-2,6.6l-7.6,3v0c-2.4-1.3-4.7-2.8-6.9-4.4l0,0c-16-11.1-61.9-61.4-61.9-61.4
			s-18,0.6-31.5,22c0,0-57.8-40.6-80.2-49.6s-53.5-4.5-53.5-4.5l-36.7-15.8L1717-121.9z M2846.1,1208.6c0.1,0.1,0.1,0.2,0.2,0.3
			c-0.1,0-0.1-0.1-0.2-0.1V1208.6z M2407.8,46.9L2407.8,46.9C2407.8,46.8,2407.8,46.8,2407.8,46.9L2407.8,46.9z"/>
		<path class="st6" d="M-333,58.3c0,0,95.3,77.8,136.5,138.1c41.3,60.3,76.2,122.3,76.2,122.3s103.2,52.3,111.1,74.6
			c8,22.2-9.5,98.4-7.9,115.9s33.4,84.1,23,112.7c-10.3,28.6-107.1,188.9-150,277.8c0,0-20.9,78.7-30.5,174.8
			c-4.3,43.7-6.3,91.1-2.8,136.4l74.6,276.1h58.8c-5.7-17.6-11.3-34.1-16.6-49.6c-7.2-22.8-14.7-49.2-18.3-69.3
			c-7.9-44.5,0-74.8,0-74.8s87.3,14.5,131.8,60.5c44.4,46.1,60.3,142.9,60.3,142.9h92.1c0,0-28.7-43.5-61.3-96.5
			c-0.1-0.1-0.2-0.2-0.3-0.3c-31.2-50.9-66-110.5-82.6-148.7c-33.8-78.3-68.7-195.8-68.7-195.8s2.4-16.7,7.4-42.6
			C8.2,973.4,20.7,924,21,923c6.3-22.7,13.8-46.2,22.4-68.8c9.9-26.1,21.5-51,34.8-71.9c0,0,77.8-112.7,185.8-171.4
			c0,0,38.1-19,38.1-88.9c0,0,0-0.1-0.1-0.1c-1-2.5-17.6-42.2-23.8-76c-6.3-34.9,6.8-135,16.1-184.2c5.6-29.9,33.1-155.7,53.8-249.5
			c4.4-6.1,6.7-9.6,6.7-9.6s-32,767.3-21.7,762.1s29.5-792.8,29.5-792.8c-2.9,5.1-5.9,10.1-8.9,15c10.5-47.8,18.2-82.4,18.2-82.4
			h-36.5c0,0-8.1,66-18.5,136.6c-71.3,94.3-157.2,155-220.2,190.5c2.2-25.8,3.8-46.9,3.8-58.9c0-49.9-14.5-255.6-15.8-274.7
			c-0.1-0.9-0.1-1.4-0.1-1.4H-21.9c0,0,42.9,134.9,46.1,179.4c2.2,30.5-5.3,132-13.4,196.3c-1.5,0.6-2.4,0.8-2.4,0.8V290
			c-2.9,20-5.7,33.9-8.1,36.6c-1.4,1.7-5.1,1.3-10.3-0.5c-10.3-4.9-22.8-11.8-32.4-17.2c-6.8-4.3-14-9-21.4-14.1
			c-31.1-21.4-64.4-48.3-77.2-63.5C-166.4,201.2-269.6,26.6-279.1-0.4c-9.6-27-15.9-103.2-15.9-103.2l-14.7,1.8l-50.4,6.2
			c0,0,33.4,79.3,34.9,103.1S-333,58.3-333,58.3z M111.4,663.3c0,0-1.4-5.6-3.5-14.9l0,0l-15.4-68.9l0,0
			c-6.1-28.7-11.8-58.8-14.4-79.7c-4.6-37.8,9-164.1,17-251.2c101.6-63.3,177-142.7,219.7-193.9c-9.9,65.4-21.5,131.4-30.3,149.8
			c-19,39.7-36.5,39.7-36.5,39.7s14.3,165.1,6.3,214.4s-28.6,106.3-28.6,106.3S163.9,663.3,111.4,663.3z"/>
	</g>
</g>
<g>
	<defs>
		<rect id="SVGID_3_" width="2560" height="1400"/>
	</defs>
	<clipPath id="SVGID_4_">
		<use xlink:href="#SVGID_3_"  style="overflow:visible;"/>
	</clipPath>
	<g transform="matrix( 1, 0, 0, 1, 0,0) " class="st7">
		<g>
			<g id="Layer1_0_FILL">
				
					<linearGradient id="SVGID_5_" gradientUnits="userSpaceOnUse" x1="1330.9268" y1="31.4626" x2="1330.9268" y2="1358.4574" gradientTransform="matrix(1 0 0 -1 -47.6001 1231.0996)">
					<stop  offset="0" style="stop-color:#FC7C2C"/>
					<stop  offset="0.1961" style="stop-color:#FC7C2C"/>
					<stop  offset="1" style="stop-color:#FF2C2C"/>
				</linearGradient>
				<path class="st8" d="M2629.6,1436.3V-55.6H-63v1491.9H2629.6z"/>
			</g>
		</g>
	</g>
	<g transform="matrix( 1, 0, 0, 1, 0,0) " class="st7">
		<g>
			<g id="Layer0_1_FILL">
				
					<linearGradient id="SVGID_6_" gradientUnits="userSpaceOnUse" x1="1327.5984" y1="36.3629" x2="1327.5984" y2="339.3239" gradientTransform="matrix(1 0 0 -1 -47.6001 1231.0996)">
					<stop  offset="0" style="stop-color:#FAA552;stop-opacity:0"/>
					<stop  offset="1" style="stop-color:#FFCA48"/>
				</linearGradient>
				<path class="st9" d="M1501.9,976.5c-61.2-50.2-135.2-75.3-221.9-75.3c-86.7,0-160.7,25.1-222,75.3
					c-61.2,50.3-91.8,111-91.8,182.1c0,71.1,30.6,131.8,91.8,182c61.3,50.3,135.3,75.5,222,75.5c86.7,0,160.7-25.2,221.9-75.5
					c61.3-50.2,92-110.9,92-182C1593.9,1087.5,1563.2,1026.8,1501.9,976.5z"/>
			</g>
		</g>
	</g>
	<g transform="matrix( 1, 0, 0, 1, 0,0) " class="st7">
		<g>
			<g id="Layer0_1_MEMBER_0_FILL">
				<path class="st10" d="M1410.6,1069.4l-0.7-2c-3.9-0.7-6.5-0.7-7.8-0.3l-0.2-0.1c-0.1,0.2-0.2,0.9-0.2,2.2c0,2.1,0.2,2.5,0.7,1.4
					l0.7,0.3c0.7,0.2,1.7,0.3,3.1,0.3c1.5,0,2.6-0.2,3.2-0.6C1409.7,1070.6,1410.1,1070.2,1410.6,1069.4 M1340.2,1072.1
					c9.6,0,15.3-0.3,17.2-0.8c1.5-0.3,2.2-1.4,2.2-3.2c0-1.6-1.1-2.8-3.2-3.5c-3.9-1.2-11.3-1.5-22.2-0.8
					c-8.8,0.4-13.9,0.7-15.4,1.1c-2.5,0.4-3.8,1.3-3.8,2.8c0,2.1,0.3,3.2,0.9,3.1C1327.3,1071.6,1335.3,1072.1,1340.2,1072.1
					 M1293.7,1069.3c0-2.4-1.7-4.1-5.1-5h-12.1c-9.3,0.7-21.8,1.4-37.5,2h-149.2c-11.2-0.4-21.9-1-32.3-2
					c-10.1-0.8-21.3-1.4-33.6-1.8h-79.2c-1.7-0.4-3.4,0.2-5,1.7c-1.5,1.5-2.2,3.1-2.2,4.8c0,4.2,2.4,6.4,7.2,6.7h79.2
					c12.3-0.5,23.5-1.1,33.6-2c10.4-0.8,21.1-1.4,32.3-1.8h149.2c30,1.1,45.6,1.7,46.8,1.7C1291,1073.4,1293.7,1072,1293.7,1069.3
					 M1429.7,1129.1c5-3.2-8.1-4.9-39.3-5.2c-34.2,0.1-57-0.1-68.3-0.6h-56.5c-3.3,0.8-5.3,1.3-6,1.4c-4,0.7-9.6,1-16.9,1.1h-118.1
					c-5.2,0.1-8.8,0.3-10.8,0.6c-2.7,0.6-4.9,1.6-6.5,3.1c1.7,1.1,7.5,2,17.2,2.5h118.1c7.3,0.1,12.9,0.5,16.9,1.1
					c0.7,0.1,2.7,0.6,6,1.4h56.5c16.5-0.7,41.3-1.3,74.4-1.8C1424,1132.1,1435,1130.8,1429.7,1129.1 M1525.4,1126.7
					c-0.2-0.1-0.3-0.2-0.3-0.3c-6.3-0.7-10-0.8-11.1-0.3c-0.3,0.9-0.9,1.7-1.7,2.4l0.3,1.8c1.1,1.1,3.2,1.7,6.3,1.7
					c2.6,0,4.2-0.1,4.8-0.3c1.4-0.5,2.1-1.5,2.1-3.1C1525.8,1127.3,1525.6,1126.7,1525.4,1126.7 M1532.6,1094.9
					c0.5-0.8,1.5-1.6,3.2-2.2l-1-2c-7.9-3.2-21-4.3-39.4-3.4c-21.3,1.8-36.5,2.8-45.6,3.1l-51,0.3c-0.5-0.1-0.8-0.1-1-0.1
					c-0.5,0-0.7,0.7-0.7,2c0,2.1,0.2,2.5,0.7,1.4l52.1,1c5.8,0.2,16.4,0.7,31.9,1.7c14,0.7,21.5,1.1,22.5,1.1
					c16.2,0,25.2-0.4,27.1-1.3C1531.7,1096.3,1532.1,1095.8,1532.6,1094.9 M1593.3,1133.8c6.3-0.4,12.4-0.8,18.4-1.3
					c3.3-0.3,6.8-1,10.4-2.2c-3.6-1.2-7.1-2-10.4-2.4c-0.1,0-6.3-0.3-18.4-1h-34.1c-2.7,0.3-4.6,0.6-5.5,1c-0.9,0.6-1.4,1.4-1.4,2.7
					c0,2.6,2.3,3.7,6.8,3.2H1593.3 M1616.6,1090c-3-1.1-6.6-1.6-10.9-1.4h-45.7c-9.6,0.5-14.3,2.1-14.3,5c0,1.3,0.5,2.5,1.5,3.5
					c2.2,1.9,6.4,2.5,12.8,2h45.7c5.2,0.4,9.4-0.3,12.6-2c1.7-0.9,3.4-2,4.9-3.2C1620.8,1092,1618.6,1090.7,1616.6,1090
					 M1041.2,1135.4c23.2,0.1,34.8-0.9,34.6-3.1c-0.6-6.7-13-10-37.2-9.8c-24.2,1-38.1,1.5-41.6,1.4h-56.5c-6-0.1-9,1.6-9,5.2
					c0,3.1,3,4.7,9,4.8H997C1002.3,1133.7,1017,1134.3,1041.2,1135.4 M1541.1,957c0.6,1.8,1.3,2.8,2.2,3.2c2.1-1.5,3.1-3.9,3.1-7.1
					c0-2.7-1-3.9-3.1-3.6c-2,0.1-3.1,1.3-3.1,3.5C1540.3,954.1,1540.5,955.4,1541.1,957z"/>
			</g>
		</g>
	</g>
	<g transform="matrix( 1, 0, 0, 1, 0,0) " class="st7">
		<g>
			<g id="Layer0_2_FILL">
				<path class="st11" d="M1049.8,1171.1c-34.2-1-57.1-2.1-68.4-3.2c-20.7-2-31.1-5.3-31.1-10.1c0-2.2,0.1-4.5,0.3-6.7H-51.2v200.2
					h894.1c2.4-8.1,10.2-14.6,23.4-19.3c11.7-4.2,29.4-7.5,53.1-9.9c12.9-1.3,30.6-3,53.1-5c16-2.2,24.1-5.7,24.1-10.4
					c0-4.3-5.2-7.1-15.7-8.5c-5.7-0.7-17.1-1.2-34.3-1.4c-16.4-0.2-27.9-0.8-34.5-2c-10.5-1.8-15.7-5.2-15.7-10.2
					c0-7.6,37-15.1,111.1-22.5c44.5-4.5,70-7.1,76.5-7.8c23.1-2.9,34.6-5.6,34.6-8.3c0-5.8-4.7-9.8-14-12
					c-7.4-1.7-19.5-2.5-36.4-2.5c-38.6,1.7-59.1,2.5-61.6,2.5c-12.7,0-22.2-0.4-28.3-1.3c-10.5-1.4-15.7-4.1-15.7-8.1
					c0-7.3,9.7-12.6,29.2-16c12.7-2.1,34.1-3.9,64.2-5.3c32.9-1.5,54.3-2.8,64.2-4.1c19.5-2.4,29.2-6.5,29.2-12.2
					c0-5.5-10.4-9.5-31.1-12C1105,1173.4,1082.2,1172.1,1049.8,1171.1 M1325.2,1188.9l0.7-3.2c-1.7-4.2-4-5.9-6.8-5
					c-2.6,0.9-3.9,2.6-3.9,5l0.3,2.1c0.8,1.6,2.5,2.4,5.1,2.4c1.6,0,2.7-0.2,3.4-0.6L1325.2,1188.9 M1287.2,1182.4
					c0.5-0.9-0.6-1.7-3.1-2.4c-7.5-2-29-2.9-64.5-2.9c-20.1,0-32.1,0.4-35.8,1.3c-2.7,0.7-4.1,2.7-4.1,6.2c0,0.4-0.2,1.1-0.7,2.1
					c0,0.9,0.8,1.7,2.4,2.4c4.7,1.8,17.4,2.7,38.2,2.7c35.6,0,56.3-0.4,62.1-1.3c2.8-0.5,4.4-1.2,4.6-2.2c-0.3-1.5-0.5-2.8-0.5-3.8
					C1286.5,1183.6,1286.9,1183,1287.2,1182.4 M2629.6,1351.3v-200.2H1600.2c-4.2,11.7-19.5,18-45.7,18.9
					c-9.7,0.3-22.3-0.1-37.9-1.3c-17-1.3-26.7-2-29.4-2c-15.2,0-27.1,0.8-35.5,2.5c-9.2,1.8-13.8,4.5-13.8,8.1
					c0,6.1,22.7,9.2,68.1,9.5c23.9,0.2,53.6-0.2,89.3-1.3c14.6,0,25.4,1.7,32.6,5c8.1,3.8,12.1,10.2,12.1,19
					c0,4.9-6.8,8.5-20.5,10.8c-8.6,1.5-23.7,2.8-45.1,3.9c-22.5,1.1-37.5,2.2-45.1,3.4c-13.7,2-20.5,5-20.5,9.2
					c0,5.3,10.8,8.1,32.3,8.4c13,0.2,36.7-0.5,71.2-2c31.9-0.8,55.6,0.1,71.2,2.8c21.5,3.7,32.3,11.2,32.3,22.4
					c0,6.1-7,10.5-21,13.4c-8.8,1.9-24.1,3.5-46.1,5c-23,1.5-38.4,2.9-46.3,4.3c-14,2.5-21,6.5-21,11.9c0,7.5,15.6,11.8,46.9,13
					c19.2,0.7,46.3,0.1,81.2-1.7c14.7-0.7,26.3,6.9,34.8,22.5c2.8,5.1,4.8,9.7,6,14H2629.6z"/>
				<path class="st12" d="M981.3,1167.9c11.4,1.1,34.2,2.2,68.4,3.2c32.4,1,55.2,2.3,68.4,3.8c20.7,2.5,31.1,6.5,31.1,12
					c0,5.7-9.7,9.8-29.2,12.2c-9.9,1.2-31.3,2.6-64.2,4.1c-30,1.4-51.4,3.2-64.2,5.3c-19.5,3.4-29.2,8.7-29.2,16
					c0,4,5.2,6.7,15.7,8.1c6.1,0.8,15.6,1.3,28.3,1.3c2.5,0,23-0.8,61.6-2.5c16.8,0,29,0.8,36.4,2.5c9.3,2.2,14,6.3,14,12
					c0,2.6-11.5,5.4-34.6,8.3c-6.5,0.7-32,3.4-76.5,7.8c-74.1,7.5-111.1,15-111.1,22.5c0,5,5.2,8.4,15.7,10.2
					c6.6,1.1,18.1,1.8,34.5,2c17.2,0.2,28.6,0.7,34.3,1.4c10.5,1.4,15.7,4.2,15.7,8.5c0,4.7-8,8.1-24.1,10.4
					c-22.5,2.1-40.2,3.7-53.1,5c-23.7,2.4-41.4,5.7-53.1,9.9c-13.2,4.8-21,11.2-23.4,19.3h907.4c-1.2-4.3-3.2-8.9-6-14
					c-8.5-15.7-20.1-23.2-34.8-22.5c-34.9,1.8-62,2.3-81.2,1.7c-31.3-1.2-46.9-5.6-46.9-13c0-5.4,7-9.4,21-11.9
					c7.9-1.4,23.3-2.8,46.3-4.3c22-1.5,37.3-3.2,46.1-5c14-2.9,21-7.4,21-13.4c0-11.2-10.8-18.7-32.3-22.4
					c-15.6-2.7-39.3-3.6-71.2-2.8c-34.5,1.5-58.2,2.1-71.2,2c-21.5-0.3-32.3-3.1-32.3-8.4c0-4.2,6.8-7.3,20.5-9.2
					c7.5-1.1,22.5-2.2,45.1-3.4c21.4-1.1,36.4-2.4,45.1-3.9c13.7-2.2,20.5-5.8,20.5-10.8c0-8.9-4-15.2-12.1-19c-7.2-3.4-18-5-32.6-5
					c-35.6,1-65.4,1.4-89.3,1.3c-45.4-0.3-68.1-3.5-68.1-9.5c0-3.6,4.6-6.3,13.8-8.1c8.4-1.7,20.2-2.5,35.5-2.5
					c2.6,0,12.4,0.7,29.4,2c15.6,1.1,28.2,1.5,37.9,1.3c26.3-0.9,41.5-7.2,45.7-18.9H950.6c-0.2,2.2-0.3,4.5-0.3,6.7
					C950.3,1162.5,960.6,1165.9,981.3,1167.9 M1284.1,1180c2.5,0.7,3.5,1.4,3.1,2.4c-0.2,0.6-0.7,1.2-1.4,2c0,1,0.2,2.3,0.5,3.8
					c-0.2,1-1.8,1.8-4.6,2.2c-5.8,0.8-26.5,1.3-62.1,1.3c-20.8,0-33.6-0.9-38.2-2.7c-1.6-0.7-2.4-1.4-2.4-2.4c0.5-1,0.7-1.7,0.7-2.1
					c0-3.5,1.4-5.5,4.1-6.2c3.8-0.8,15.7-1.3,35.8-1.3C1255.1,1177.1,1276.6,1178.1,1284.1,1180 M1325.9,1185.6l-0.7,3.2l-1.2,0.7
					c-0.7,0.4-1.8,0.6-3.4,0.6c-2.6,0-4.3-0.8-5.1-2.4l-0.3-2.1c0-2.4,1.3-4.1,3.9-5C1321.9,1179.8,1324.2,1181.4,1325.9,1185.6z"/>
			</g>
		</g>
	</g>
	<g transform="matrix( 1, 0, 0, 1, 0,0) " class="st7">
		<g>
			<g id="Layer0_3_FILL">
				<path class="st13" d="M901.8,1178.1c1.8,0,3.3-1.5,4.4-4.5c-1.8-1.3-31.8-2.5-90.1-3.5c-3.9,2.5-3.9,4.9,0,7.3L901.8,1178.1
					 M251.2,1181c1.8,0,3.3-1.5,4.4-4.5c-1.7-1.4-48.4-2.6-140.1-3.6c-3.6-0.9-14.6-1.4-32.8-1.4c-21.2,0-32.4,0.2-33.6,0.7
					c0,3.9,0.6,6.6,1.9,8.1c39-1.1,60.5-1.1,64.5,0L251.2,1181 M936.6,1251.6l1.9-4.5c-45.7-3.4-69.1-4.8-70-4.3
					c0,1.6,0.6,3.1,1.7,4.6c0.3,0.5,1.4,1.6,3.2,3.5L936.6,1251.6 M1839.4,1170.7c-4.1-1.2-8-1.8-11.6-1.8c0,4.2,0.6,7,1.7,8.5
					c7.7,0,12.5-0.7,14.3-2.2c-0.3-0.9-1.2-2-2.6-3.1L1839.4,1170.7 M2480.1,1177.4v-6.7c-1.5-0.9-2.8-1.5-4.1-1.8
					c-0.9-0.2-2.4-0.2-4.4,0l-556.9,1.8l-3.2-0.8c-0.8-0.2-1.2,1.2-1.2,4.2c0,3.1,0.3,4.6,0.9,4.5c0.3-0.1,0.6-0.5,0.9-1.1H2480.1
					 M327.3,1217.7l-2.2-2.1c-2.4-0.4-4.6-0.5-6.5-0.3c-1.6,0.2-2.6,0.3-2.9,0.3l-0.2-0.6c-0.1,0.3-0.2,1.9-0.2,4.9
					c0,3.1,0.2,4.8,0.7,5c0.1,0.1,0.3-0.1,0.5-0.6h4.9C324.4,1222.6,326.3,1220.4,327.3,1217.7 M109.7,1213.2
					c-1.8,0.1-2.9,0.1-3.2,0.1c0,3.9,0.6,6.6,1.9,8.1l142.8,0.7c1.8,0,3.3-1.5,4.4-4.5c-1.7-1.4-48.4-2.6-140.1-3.6
					C113.7,1213.5,111.8,1213.2,109.7,1213.2 M667.1,1217.8c0.5-0.5,1-1.5,1.7-3.1c-1.5-1.4-96-2.6-283.7-3.6
					c-1.8-0.6-3.8-0.8-5.8-0.8c-1.7,0.1-2.7,0.1-3.1,0.1c0,3.9,0.6,6.6,1.7,8.1l286.2,0.7C665.5,1219.2,666.5,1218.8,667.1,1217.8z"
					/>
			</g>
		</g>
	</g>
	<g transform="matrix( 1, 0, 0, 1, -10.5,0) " class="st7">
		<g>
			<g id="Layer0_4_FILL">
				<path class="st12" d="M659.9,1235.2c0.3-0.5,1-1.4,1.9-2.8c-50.4-3.4-76.2-4.8-77.5-4.3c0,3.9,0.6,6.6,1.9,8.1l70.7,0.7
					C658.1,1236.6,659.1,1236,659.9,1235.2 M1758.5,1263.3c1.4,0.2,5.6,0.2,12.6,0c2-0.6,3.5-2.1,4.4-4.5c-5.7-2-9.8-3.2-12.3-3.8
					c-3-0.7-5.3-0.9-7-0.6c0-0.6-0.1-0.8-0.2-0.8c-0.1,0-0.2,1.5-0.2,4.5C1755.9,1261.3,1756.8,1263.1,1758.5,1263.3 M2470,1201.5
					l-1.9-1.4c-6.3-1.9-10.3-1.9-12.1,0c0,3,0.8,5.2,2.4,6.7c7.4,0,12.2-0.7,14.3-2.2C2472.3,1203.6,2471.3,1202.6,2470,1201.5
					 M1817.7,1195.7c2.1-0.6,3.5-2.1,4.4-4.5c-11-3.7-17.6-5.2-19.6-4.3c0.8,0.7,0.7,2.7-0.2,6
					C1803.1,1195.8,1808.2,1196.7,1817.7,1195.7 M1926.4,1187.5c-10.5-0.6-15.9-0.7-16.4-0.6c0,3.9,0.6,6.6,1.7,8.1l92.7,0.7
					c1.3,0,2.2-0.5,2.9-1.4c0.5-0.5,1-1.5,1.7-3.1C1976.2,1189.9,1948.7,1188.7,1926.4,1187.5 M2381.7,1192.8c1.8,0,3.3-1.5,4.4-4.5
					c-1.8-1.4-97.6-2.6-287.2-3.6c-2-0.6-4.1-0.8-6.1-0.8c-1.8,0.1-2.9,0.1-3.2,0.1c0,3.9,0.6,6.6,1.9,8.1L2381.7,1192.8
					 M2216.4,1257.5c1.8,0,3.3-1.5,4.4-4.5c-1.7-1.4-104.7-2.6-309.1-3.6c-1.7-0.6-3.6-0.8-5.6-0.8c-1.8,0.1-2.9,0.1-3.2,0.1
					c0,3.9,0.6,6.6,1.7,8.1L2216.4,1257.5 M1980.3,1214.8l-2.7-2.1c-2.3-0.4-4.3-0.5-6.1-0.3c-1.6,0.2-2.6,0.3-2.9,0.3l-0.9,4.3
					c0,2.9,2.7,4.6,8,5.2l4.6-2.9V1214.8 M1903,1214.9c0.5-0.6,1-1.6,1.5-3.1c-1.8-1.4-68.9-2.6-201.2-3.6c-1.8-0.6-3.8-0.8-5.8-0.8
					c-1.7,0.1-2.7,0.1-3.1,0.1c0,3.9,0.6,6.6,1.7,8.1l203.9,0.7C1901.4,1216.3,1902.3,1215.8,1903,1214.9 M833.8,1247.1l-2.6-2.1
					H799c-3.6,0.5-5.7,0.7-6.3,0.7c0,3.9,0.6,6.6,1.7,8.1h36.9l2.6-2.2V1247.1 M558.2,1264.9c-0.8-1.3-1-2.3-0.7-3.1
					c-13.9-3.5-21.7-5-23.4-4.3c0,3.9,0.6,6.6,1.9,8.1l5.1,0.4c4.2,0.2,8.1,0.3,11.8,0.3C556.5,1266.3,558.3,1265.8,558.2,1264.9
					 M312.4,1266.1c0.3,0.1,0.6-0.1,0.9-0.6l164.3,0.7c2.1,0,3.4-1.5,4.1-4.5c-1.8-1.4-55.6-2.6-161.3-3.6c-1.8-0.9-4.7-1.4-8.5-1.4
					l-0.2-0.6c-0.1,0.3-0.2,1.9-0.2,4.9C311.6,1264.2,311.8,1265.9,312.4,1266.1 M151.5,1191.2c-1.8-0.8-3.8-1.4-5.8-1.5
					c-1.7,0.1-2.7,0.1-3.1,0.1c0,3.9,0.6,6.6,1.7,8.1h4.1c1.4-1,2.3-2.1,2.7-3.4C151.4,1193.8,151.5,1192.7,151.5,1191.2
					 M826.5,1194.6c0.8,1.5,1.2,2.6,1.2,3.4c5.8-0.4,12.8-0.4,21,0c10.1,0.5,15.6,0.7,16.6,0.7c3.6,0,5.4-0.5,5.3-1.4
					c-0.7-1.3-0.8-2.3-0.3-3.1c-9.2-2.2-14.7-3.5-16.4-3.9c-3.9-0.7-7.8-1.1-11.8-1.1c-5.6,0-9.3,0.1-11.3,0.3
					c-3.1,0.3-4.9,0.9-5.5,1.8C825.3,1192,825.7,1193.1,826.5,1194.6 M772,1195.7c1.8,0,3.3-1.5,4.4-4.5
					c-1.7-1.4-184.9-2.6-549.7-3.6c-1.8-0.6-3.8-0.8-5.8-0.8c-1.7,0.1-2.7,0.1-3.1,0.1c0,3.9,0.6,6.6,1.7,8.1L772,1195.7z"/>
			</g>
		</g>
	</g>
	<g transform="matrix( 1, 0, 0, 1, 91.55,-1) " class="st7">
		<g>
			<g id="Layer0_5_FILL">
				<path class="st14" d="M2104.9,845.7c-6.5,4-11.3,8.8-14.5,14.4c-15.1-3.5-26.7-6-34.6-7.3c-12.9-2.1-24.9-3.1-36-2.8
					c1.4,1.2,3.8,2.3,7.3,3.4c3.5,1,6.1,2.2,7.7,3.6c-5.8-0.8-12.3-0.8-19.6,0.1l-26.3,4.2l-3.8,1.5c23.2,0.7,35.6,2.1,37.2,4.2
					c-10.7,1.7-17.3,2.7-19.8,2.9c-1.1,0.1-4.4,0.7-9.7,1.8l-17.2,5.6c-3.9,2.1-8.1,4.8-12.8,8l-11.9,9.1c-2.7,2-4.7,3.9-5.8,5.9
					c-1.6,2.5-2.3,5.5-2,8.8c6.3-5.7,11.8-10,16.6-13l9.6-5.3c4-2.1,7.2-3.6,9.7-4.6c5.9-2.3,12.2-4.3,18.9-6
					c-3.4,2-7.2,4.4-11.4,7.3c-2.8,1.9-5.1,3.5-6.7,4.8l-10.9,10.4c-4.2,4.4-6.8,8.8-7.8,13.3c7.2-6.3,16.1-12.9,26.8-19.9l10.4-7.1
					c3.6-2.6,7.3-4.5,10.9-5.6l-18.8,17.5c-3,2.6-5.1,4.9-6.3,7c4.3-1.9,12-6,23-12.3c0.2,1.2-0.6,2.7-2.4,4.5
					c-2.2,2.1-3.4,3.7-3.8,4.9c2.8-0.7,6.6-2.1,11.3-4.3c4.8-2.3,8.4-3.8,10.9-4.5c-3.2,3.3-5.5,5.7-7,7.4c-2.5,3-4.3,5.9-5.5,8.7
					l24.4-13.7c4.2-2.3,7.6-3.8,10.1-4.5c-0.9,2-2.7,4.2-5.5,6.9c-3,2.8-4.8,5.1-5.6,6.9l3.6,0.3c-1.1,1.2-2.7,2.1-4.6,2.8l-5.6,1.8
					c-17.3,7.4-28,18.2-32.3,32.5c-1.3,4.2-1.3,8.9,0,14.1c0.2,1,1.8,5.8,4.8,14.3c2.2-1.8,3.9-4.3,5.1-7.6c1.6-3.8,2.8-6.3,3.6-7.3
					c0.3,0.6,1.1,2.3,2.2,5.3c0.8,2.3,2.1,4,3.9,4.9c2.7-3.2,6.1-8.4,10.1-15.8c3.9-7.2,7.3-12.5,10.4-16c0,1.1-0.3,3.1-1,6
					c-0.7,2.6-0.9,4.8-0.5,6.4c1.9-1.5,3.9-3.4,5.8-5.6c1.1-1.2,2.7-3.1,4.8-5.7l10.9-5.7c-6.5,13.3-10.4,23.7-11.6,30.9
					c-1,6.3-1.5,11.6-1.5,15.7c-0.1,5.8,0.7,11.1,2.6,16c1.5-0.7,2.7-2.2,3.8-4.5c1.1-2.5,2.3-4.2,3.4-5.2c1.4,3,2.3,6.8,2.7,11.3
					c0.6,7.2,0.9,11.1,1,11.6c2.4-1.8,3.9-4.2,4.4-7.4c0.5-3.7,1-6.5,1.7-8.4c0.3,0.5,2,5.2,4.9,14.3c1.9,5.6,5.5,9.6,10.6,12
					c-0.5-3.5-1.6-9-3.4-16.4c-1.8-6.9-2.9-12.2-3.2-16c2.7,4.9,6.9,9.2,12.6,12.9c0.3-2.9-0.1-6.3-1.2-10.2
					c-1.6-5.6-2.4-8.8-2.6-9.5c1.8,0.2,3.6,1.1,5.5,2.7c1.9,1.9,3.5,3,4.8,3.4c0.7-1.2,1-2.7,1-4.5c-0.1-2-0.2-3.4-0.3-4.3
					c-0.6-4.1-1-7.3-1.2-9.5c1.5,0.4,3,1.4,4.4,3.2c1.6,1.9,3,3.1,4.3,3.6c0.3-2,0.3-4.3-0.2-7.1c-0.6-3.9-0.9-6.2-0.9-6.7l3.1-0.1
					v-25.3c1.8,2.1,3.1,5,3.9,8.7l2.2,7l11.3,85.4c4,23.9,7.5,47,10.6,69.3c2.6,19.3,6,38.2,10.2,56.7c4.2,18.4,12.6,42.7,25.1,72.8
					c11.1,26.9,21.5,46.8,31.1,59.5h39.9c-1-1.8-3.4-5.3-7-10.5c-4.2-5.9-8.9-13.2-14-21.7c-5.1-8.4-9.9-17.2-14.3-26.2
					s-12-27-22.7-53.9c-10.6-26.8-17.1-45.2-19.5-55c-2.3-9.9-5.2-25-8.9-45.4c-3.5-20.3-6.1-35.8-7.5-46.6
					c-1.5-10.8-3.7-26-6.8-45.5c-3.1-19.5-5.8-32.8-8.2-40c-2.4-7.2-2.7-11.3-1-12.2c0.6-1.7,0.4-4-0.5-7l-0.9-4.2l0.5-2.5
					c1.8,2.9,3.5,6.6,5.1,11.2c2.3,6.9,3.6,10.8,4.1,11.8c0.6,0,1.3-0.5,2-1.5c0.6-0.7,1.4-0.9,2.4-0.6c0.1,0.3,0.6,2.1,1.4,5.3
					c0.5,2.1,1.1,3.9,2,5.2c1.1-0.5,2.1-1.6,2.7-3.5c0.6-1.8,1.6-2.8,3.1-3.1c0.6,1.4,1.5,4.6,2.9,9.5c0.9,4,2.2,7.1,3.8,9.4
					c0.6-0.4,1.8-1.6,3.6-3.6c1.3-1.5,2.7-2.3,4.4-2.5c0.5,1.6,0.8,5,1,10.2c0.2,4.3,1,7.7,2.4,10.2c2.1-1.6,3.6-4.1,4.6-7.6
					c1.4-4.4,2.5-7.3,3.4-8.8c0.1,0.6,0.9,6.4,2.4,17.6c0.9,6.7,2,12.2,3.2,16.4c1.8,0,3-0.6,3.4-1.8c1.3-3.9,1.7-8.5,1.4-13.9
					c-0.1-0.9-0.7-5.9-1.9-15c1.4,1.3,3.4,3.9,6.1,7.8c2.2,3.1,4.3,5.4,6.5,7l-2.9-18.9c1.3,0.3,2.7,1.2,4.4,2.8
					c1.6,1.4,3.1,2.1,4.6,2c0.7-2.1,0.5-5.3-0.7-9.8c-3.9-13-10.9-25-21.2-36c-3-2.5-5.3-4.9-7.2-7l0.3-2.7l6.1,0.7
					c1.6,0.7,4.2,2.3,7.7,4.9c2.7,2,5.2,3.2,7.3,3.8c-0.1-1.8-1.3-4.1-3.4-7c-2.4-3-3.6-5.2-3.8-6.7c5.1,3.6,11.1,8.9,17.9,15.8
					l17.2,17.2c1.5-1.9,2-4,1.7-6.4c-0.6-3.9-0.9-5.9-0.9-6c1.6,1,3.8,3.3,6.5,6.7c2.5,3,5,5.1,7.5,6.3c0.3-2,0.2-4.7-0.5-8.3
					l-2.2-9.7c-0.9-3.4-3.7-8.7-8.4-16c-4.7-7.5-11.8-12.7-21.5-15.8c-10.1-3.4-18.3-6.8-24.6-10.4c-3.4-2.1-9-5.2-16.7-9.5
					c-1.7-1-2.5-1.9-2.4-2.7l43.5,13.9c-1.4-1.7-3-3.2-4.8-4.5c-2-1.3-3.6-2.3-4.6-2.9c-1.3-0.9-3.9-2.2-7.9-3.9
					c-3.3-1.4-5.7-2.7-7.3-3.9c3.1,0.4,8.1,1.6,15,3.6c6.9,1.9,12.2,2.9,15.7,3.2c-0.5-1-1.6-2.1-3.6-3.2c-2.1-1.2-3.4-2.3-3.9-3.4
					c2.7,0.5,6.4,1.5,10.9,3.2c4,1.4,7.4,2.2,10.4,2.4c-0.5-1.1-1.5-2.1-3.1-2.9l-14-7.8c-3.5-2-6.3-3.8-8.4-5.6l0.3-0.1
					c5.1,1.4,11.6,3.8,19.5,7.3l16.6,7.3c-6.5-7.8-16-14.5-28.7-20l2.4-0.4c6.8,0.9,12.5,1.9,17.1,2.9c6,1.3,11.8,3.1,17.4,5.3
					c-19.2-15.5-44.2-21.8-74.9-18.9c14.6-3.9,27-6.3,37.4-7.1c-5-1.9-11.6-3-19.8-3.4c-11.6-0.6-20.9,0.5-27.8,3.1
					c1.1-1.4,3-2.8,5.6-4.3c3.3-1.9,5.5-3.3,6.7-4.2c-7.1,0.2-14.7,1.4-22.9,3.8c-2.3,0.7-9.3,3-21,7
					C2116.4,839.9,2109.8,842.8,2104.9,845.7 M2143.8,874.2c9.9,1.9,18.2,4.9,24.9,9C2160.6,882.3,2152.3,879.3,2143.8,874.2
					 M2100,960.3h-0.2v0.1L2100,960.3 M2486.2,824.5l0.2-0.1h-0.2V824.5 M2001.7,846v0.1l0.2-0.1H2001.7z"/>
			</g>
		</g>
	</g>
	<g transform="matrix( 0.9840545654296875, -0.1778564453125, 0.1778564453125, 0.9840545654296875, -549.1,271.55) " class="st7">
		<g>
			<g id="Layer0_6_FILL">
				<path class="st14" d="M878.6,670.6c-1.4-3.9-2.8-7.1-4.3-9.6c-10.1-16.8-21.5-30.7-34.1-41.5c-14.5-12.4-31.4-21.4-50.7-27.1
					c-2.2-0.6-3.7-1.2-4.6-1.8c-1.5-0.9-2.4-2.2-2.7-3.9c18.4,2.7,36.3,6,53.8,9.9c-10.2-6.4-21.8-12.4-34.9-18
					c-5.3-2.2-11.8-3.9-19.7-5.1c-9.4-1-16.7-1.9-21.8-2.5l37-4.3c-9.6-3.2-20.3-5.6-32.1-7.1c-6.7-0.9-17.1-1.7-31.3-2.5
					c-24.5-1.5-44.9,2.7-61.2,12.7l-2-0.1c-9-9.1-18.5-17.1-28.4-23.8c-10-6.8-19.2-12.8-27.6-17.9c-8.6-5.2-14.3-8.1-17.3-8.7
					c-3.1-0.8-4.8-1.1-5.3-1c1.1,1.9,3.4,4.6,7.1,8c3.7,3.4,6.3,6.4,7.8,9c-7.5-4.1-13.3-7-17.5-8.9c-6.2-2.7-12.2-4.5-18-5.4
					l-36.8-6.2c0.4,1.3,1,2.2,1.8,2.6c10.9,4,27.8,11.5,50.7,22.6c0.9,0.5,2.3,1.1,4.1,1.8c1.5,0.8,2.6,1.7,3.3,2.8
					c-7.3-1.1-14.1-2.7-20.5-5c-39.4-13.5-77.6-10.6-114.6,8.5c-2.2,1.1-3.7,2.1-4.5,3c-1.4,1.3-2.2,2.8-2.4,4.7
					c4.6-0.5,13.3-2.5,26-5.9c10.6-2.8,19.5-4,26.5-3.8c4.6,0.1,13.7,0.3,27.1,0.6c11.3,0.2,20.4,0.5,27.2,0.9
					c-5.7,0.5-10,0.9-12.8,1.1c-9.6,0.7-20.1,2.6-31.5,5.5c-5.3,1.4-15.3,4.4-30,9.1c-6,2-11.3,4.9-15.8,8.7c-0.9,1-1.4,1.6-1.5,1.8
					c-0.3,0.7-0.1,1.4,0.6,2.1c0.7,0.5,1.5,0.7,2.4,0.5c0.4-0.1,5.1-1.7,13.9-4.9c8.7-3.3,20.1-6,34.3-8.2c14-2.3,21.9-3.2,23.6-2.8
					c-2.1,1.8-5,3.5-8.8,4.9c-4.5,1.5-7.8,2.6-9.9,3.5c-10.5,3.8-18.3,6.7-23.6,8.7c5.6,0,12.6-0.6,21-1.7c13.1-1.8,20.3-2.8,21.6-3
					c-0.8,0.5-4,2.1-9.8,4.8c-3.7,1.7-6.4,3.6-8.2,5.9l36.9-2.4c-7.2,2.9-12.6,5.1-16.2,6.7c-6.1,2.6-11.1,5.4-14.9,8.3
					c7.6-0.2,18.5-1.1,33-2.6c14.4-1.6,25.2-2.5,32.4-2.6c-8.1,3.4-14.2,6.1-18.3,8c-4.1,1.9-7.3,3.2-9.7,3.9
					c-2.5,0.7-5.7,2-9.8,4.1l-6.3,0.2c-26,1.1-43.7,6.7-53.1,16.9c-9.4,10.2-15.4,19.1-18,26.7c-2.4,7.7-4.3,17-5.6,27.8
					c1.3-2.7,4.3-6.2,9.3-10.7c4.3-3.9,7.8-6.8,10.5-8.7c-0.2,0.9-0.6,2.3-1,4.3c-0.8,4.6-1.1,9.6-0.8,15c3.2-1.8,6.1-4.1,8.7-6.9
					c2.7-2.8,7.1-7,13.1-12.8c6.1-5.7,15-10.2,26.6-13.5c0.8-0.1,1.6-0.1,2.5-0.1c-0.5,0.9-1.5,1.9-2.8,3c-1.9,1.4-3,2.5-3.4,3.1
					c-1.7,1.6-3.1,2.9-3.9,3.7c-1.5,1.4-2.3,2.8-2.2,4.4c3.6-0.4,7.5-1.6,11.6-3.7c2.3-1.2,5.9-3.2,10.6-5.9
					c2.2,1.4,5.3,1.3,9.3-0.3c1.6-0.6,2.8-0.9,3.7-0.9c1.4,0,2.6,0.4,3.6,1.2c-9.2,7.1-15.1,11.8-17.6,13.9
					c-17.4,14.8-29.7,30.4-37,46.6c-2.1,4.8-3.3,7.8-3.6,8.9c-1,3.3-1.2,6.5-0.5,9.4c1.5-1.6,3.6-3.4,6.4-5.4c2.9-1.9,5.4-3,7.7-3.4
					c-2,6.8-3.2,10.7-3.6,11.9c-1.4,4.4-2.1,9.7-2.1,15.8l12-15c0.6,2.3,0.8,4.9,0.6,7.8c-0.2,2.9,0.1,6.2,0.9,10
					c0.8,3.9,2.3,7.4,4.6,10.6l11.5-41.9c0.4-1.5,1.2-2.4,2.4-2.7c0,2.9-0.5,7.2-1.5,12.8c-1,5.8-1.5,10.1-1.5,13
					c0.1,3.4,0.5,6.1,1,8.2c0.8,3,2.2,6,4.2,9c1.8-3.7,3.6-9,5.3-15.9c1.8-7,3.4-12,4.9-15.1c1.7,1,3.3,2.7,4.8,5.1
					c1.7,3.1,3,5,3.8,5.9l14.2-23.8c1.3,1.5,2,3.9,2,7c0,3.2,0.6,5.6,1.8,7.1c2-2.6,4-5.9,5.9-10c2.8-6.5,4.3-9.8,4.4-10
					c0.6,0.3,1.1,0.9,1.4,1.7c0.4,0.9,1,1.4,1.8,1.7l6.9-11.5c1.4-2.2,3.3-5.7,5.9-10.5c2.2-4.1,4.5-7.3,6.7-9.8
					c-0.2,2.8-1.3,6.9-3.1,12.3c-1.9,5.7-3,10.1-3.2,13.4c2.6-2.5,5.5-6.1,8.7-10.8c3.4-5.1,6.1-8.5,7.9-10.4
					c-0.6,2.6-1.6,5.5-3.1,8.6c-2.7,6.8-6.9,15.7-12.7,26.8c-6.9,12.9-11.4,21.8-13.6,26.6c-7.9,18-19.9,43.4-36.1,76.4
					c-16.3,33-31.7,67-46.5,102.2c-14.7,35-27,73.5-37,115.6c-5.5,22.5-9.3,41.1-11.6,55.7l37.7,1.2c0.4-3.7,0.9-7.7,1.6-11.8
					c5.7-37.6,16-77.9,31-121.1c25-72.2,44.6-122.9,58.6-151.9c14-29,23.2-48.9,27.6-59.7c4.3-10.7,8.1-19.5,11.4-26.7
					c3.1-7.1,6.3-14.2,9.5-21.1c3.2-7,6.5-13.5,9.8-19.3l-3.1,21.2c0.5,0.9,1.2,1.2,2.2,0.9c0.9-0.2,1.5,0,1.7,0.5
					c-0.2,1.3-1.2,4.7-3,10.2c-1.3,4.2-2,7.9-2,11.1c0.4-0.3,2.6-2.1,6.4-5.6c2.4-2.1,4.8-3.6,7.1-4.6c-1,3.6-2.4,8.5-4.2,14.7
					c-0.3,1.6-0.9,4-1.9,7.3c-0.6,2.9-0.5,5.6,0.3,8c1.7-0.9,3.8-2.4,6.4-4.4c2.5-1.7,5.2-2.5,8.1-2.3c-4.6,9.5-7.1,14.7-7.4,15.7
					c-0.6,1.7-1.9,4.2-3.8,7.5c-1.2,3-1.4,5.8-0.4,8.6c5-2.3,8.7-4.3,11-6.1c3.4-2.4,5.8-5.3,7.3-8.5c0.7-1.9,1.7-3,2.9-3.3
					c0.1,1.4-0.2,2.8-0.9,4.2c-5.7,13.2-11,25.9-15.8,38.1c-0.3,0.7-0.9,1.9-1.7,3.3c-0.6,1.5-0.6,2.9,0.2,4.2
					c7.3-3,13.2-8.1,17.5-15.5c2.6-4.2,6-11.1,10.2-20.7c0.2,1,0.4,5.5,0.7,13.4c0.1,5,1,9,2.7,12.1c2.2-7.8,3.9-13.7,5.1-17.6
					c2.2-6.7,4.7-12.4,7.5-17.2c1.1,2,2,4.9,2.9,8.5c0.8,3.8,1.6,6.5,2.3,8.1c6.8-14,10.7-29.6,11.6-46.8
					c0.7-13.4-0.3-29.9-3.2-49.4c1.3,1.4,2.9,3.3,4.8,5.8c1.7,1.8,3.3,3,5.1,3.5c1.1,2.4,2.5,5.9,4.3,10.6c1.7,4.1,3.9,7.5,6.5,10.2
					c0.5-3,0.7-6.5,0.6-10.5c0.1-6.3,0.1-9.5,0.1-9.7c4,7.4,7.4,17.1,10.3,29.2c3.9,16.5,6.4,26.4,7.6,29.9c1.7-0.8,3.2-2.3,4.6-4.5
					c1.9-2.9,3.3-7.1,4.1-12.4c1.2-7,2.1-11.3,2.6-12.9c0,0.2,0.4,7.1,1.3,20.7c0.5,8.4,1.3,15.5,2.3,21.5c4.1-4,7.6-9.6,10.4-16.7
					c3.5-9.2,5.9-14.8,7.2-16.8c0.3-0.4,0.5-1.4,0.4-3.1c-1.8-29.5-14.6-53.6-38.3-72.3c-4.3-3.4-7.3-6.6-9-9.6
					c0.1-0.3,0.1-0.6,0.1-1c1.3,0.6,2.7,1.8,4.4,3.5c2.1,2.1,4.1,3.5,5.9,4.1c-3.5-6.3-6.1-11-7.8-14c-2.9-5.3-4.8-10-5.8-14
					c0.9,0.2,1.7,0.6,2.4,1.2c0.1,0.1,0.6,0.7,1.6,1.9c6.6,7.3,18.1,18.5,34.5,33.5c0.6,0.5,1.3,1.3,2.3,2.5
					c1.1,0.9,2.3,1.4,3.8,1.7c-1.1-4-2.9-8.2-5.6-12.7c-1-1.6-3.5-5.6-7.7-11.9c-1.3-1.5-2.3-2.7-2.9-3.6c-1.1-1.3-1.6-2.6-1.7-3.9
					l6.5,5.7c2.5,2,6,5.3,10.7,9.6c4.2,3.8,8.1,6.7,11.5,8.8c0.3-1.3,0.1-2.8-0.5-4.4c-1-1.9-1.7-3.4-2-4.4c-0.1-0.4-0.9-1.7-2.4-4
					c-1.1-1.6-1.5-3.1-1.2-4.3c1.9,1.2,3.8,3,6,5.4c2.8,3.4,4.6,5.4,5.3,6.1c0.6,0.6,2.7,3,6.4,7.2c2.6,2.9,5.1,5.1,7.4,6.7
					c0.2-1.1-0.1-2.4-1-3.7c-1-1.5-1.7-2.7-2.2-3.4c-12-20.7-21.3-36.2-28-46.4c18.7,18,37.6,40.6,57,67.6c0.5,0.6,1.1,1.5,1.8,2.7
					c0.8,1.1,2.2,1.7,4.1,2c-7.3-24.5-23.5-48-48.6-70.2c1.6,0.1,3.1,0.8,4.6,1.8c0.9,0.6,2.2,1.6,3.8,2.9l26,20.4
					c13.6,10.5,23.6,21.3,29.9,32.3c1.2,2.4,2,3.8,2.4,4.3c1.1,1.5,2.4,2.7,4,3.5C879.5,677.5,880.1,674.6,878.6,670.6 M583.2,605.7
					c-5.7-0.1-9.9-0.1-12.7-0.1l47.5-8.5c-2.6,2.2-6.2,3.9-10.7,5.2c-5.4,1.1-9.4,1.9-11.9,2.4C592.2,605.4,588.2,605.7,583.2,605.7
					z"/>
			</g>
		</g>
	</g>
	<g transform="matrix( 1, 0, 0, 1, -409.05,5.15) " class="st7">
		<g>
			<g id="Layer0_7_FILL">
				<path class="st14" d="M706.7,857.2l0.2-0.1h-0.2V857.2 M1191.4,835.4h-0.2v0.1L1191.4,835.4 M805,971.5h-0.2v0.1L805,971.5
					 M1265.1,839.7c-0.1-1.4-0.7-3.3-1.9-5.7c-12.2-28.8-33.9-47.5-65-55.9c-1.9-0.6-3.1-1.5-3.6-2.9c16.5,2,32.6,4.8,48.3,8.5
					c-15.5-8.3-25.1-13.2-28.8-14.7c-10.4-4.1-20.5-6-30.4-5.6c0.2-0.3,0.5-0.5,0.7-0.7l20.7-7c-24-3.5-48.5-4-73.6-1.5
					c-10.9,1.1-21.4,4.7-31.6,10.8c-5.3-7.1-12.9-14-22.5-20.6c-2.7-1.9-10.1-6.3-22-13.3c-11.9-7-17.3-9.8-16.2-8.5
					c1.1,1.3,3.9,4.4,8.4,9.4c4.4,4.9,7.2,8.3,8.2,10.4c-3.5-1.9-8.5-4.6-14.9-8.3c-5.5-2.8-10.5-4.6-15.2-5.3
					c-13-2.1-23.8-3.5-32.6-4.2c13.2,5.7,25.4,11.3,36.5,16.8c0.8,0.5,2.2,1.1,4.1,1.8c0.9,0.5,1.6,1,2,1.7
					c-0.8-0.1-1.7-0.2-2.6-0.3c-1.1-0.1-2.2-0.2-3.2-0.3c-3-0.8-6.8-1.9-11.6-3.1c-7.5-2.1-13.8-3.3-18.8-3.8
					c-19.9-1.8-36.5-0.2-49.7,4.8c-4,1.4-10.2,3-18.8,4.9c-4.4,1.2-7.7,2.5-9.9,3.9c-2.2,1.3-4.7,3.5-7.5,6.7
					c16.7-3.6,29.2-6.1,37.5-7.4c14.1-2.1,26.6-2.3,37.5-0.4c-14.1,2.9-25.3,5.6-33.6,8.1c-11.9,3.6-22.4,8.1-31.2,13.4
					c1.1,0.9,2.3,1.3,3.4,1.1c1.3-0.5,2.2-0.8,2.7-1c9.9-2.9,21.9-5.8,36-8.8c16.3-3.2,28.5-5.6,36.7-7.3h0.7
					c0.5,0.1,0.9,0.2,1.4,0.3c0.9,0.2,1.8,0.4,2.7,0.7c-0.7,0.3-1.5,0.5-2.4,0.7c-1.1,0.3-2.9,0.6-5.3,1c-6.1,1.7-13.3,4-21.3,6.9
					c-4.7,1.7-11.7,4.3-21,7.8c3.3,0.3,8-0.1,14.2-1.1c6-0.9,10.6-1.3,13.8-1.1c-1,1-2.7,2-5.1,2.8c-3,1-5,2-6.1,2.9
					c4.9,0.7,11.3,0.7,19.1,0c8.8-0.9,14.8-1.3,18.3-1.1c-2.4,0.9-5.8,1.9-10.2,2.9c-5,1.1-8.5,2.1-10.6,2.8
					c-3.9,1.3-6.3,2.2-7.3,2.7c-2.7,1.1-5,2.5-6.8,4.1l50.7-5.7c-3,2.1-7.1,4.2-12.5,6.3c-5.9,2.4-9.9,4.2-11.9,5.5
					c5.2-0.3,11.5-1,18.9-2.1c8.4-1.4,14.7-2.4,18.9-3.1c4.3-0.7,7.6-1.1,9.9-1c-2.8,0.8-7,2.1-12.5,3.6c-4.9,1.3-9.2,2.1-13,2.4
					l-40.1,3.6c-17.9,1.6-34.4,7.9-49.5,19c-6.5,4.8-10.5,10.2-12.1,16.2c-1,3.4-3.2,7-6.5,11.1c-3.6,0.4-13,0.2-28.2-0.6
					c-11.5-0.6-20.8,0.5-27.8,3.1c1.1-1.4,3-2.8,5.6-4.3c3.3-1.9,5.5-3.3,6.7-4.2c-7.1,0.2-14.7,1.4-22.9,3.8c-2.3,0.7-9.3,3-21,7
					c-8.3,2.8-14.9,5.7-19.6,8.7c-6.5,4-11.3,8.8-14.5,14.4c-15.1-3.5-26.7-6-34.6-7.3c-12.9-2.1-24.9-3.1-36-2.8
					c1.4,1.2,3.8,2.3,7.3,3.4c3.5,1,6.1,2.2,7.7,3.6c-5.7-0.8-12.2-0.8-19.6,0.1c-4.2,0.6-10.2,1.5-17.9,2.8l-6.8,1.1
					c-0.5,0.1-1,0.2-1.5,0.3c-0.9,0.3-2.2,0.8-3.8,1.5c23.3,0.7,35.7,2.1,37.2,4.2l-19.8,2.9c-1.1,0.1-4.4,0.7-9.7,1.8
					c-0.2,0.1-3.9,1.3-10.9,3.5c-2.5,0.8-4.6,1.5-6.3,2.1c-4,2.1-8.3,4.7-12.8,8c-2.7,2-6.7,5-11.9,9.1c-2.7,2-4.7,3.9-5.8,5.9
					c-1.6,2.5-2.3,5.5-2,8.8c6.1-5.6,11.7-9.9,16.6-13c0.9-0.6,1.8-1.1,2.7-1.7c1.3-0.7,2.5-1.4,3.8-2.1c0.9-0.5,1.9-1,3.1-1.5
					c4-2.1,7.2-3.6,9.7-4.6c5.3-2.1,11.7-4.2,18.9-6c-3.6,2.1-7.5,4.6-11.4,7.3c-2.5,1.7-4.7,3.3-6.7,4.8c-2.2,2.1-5.3,5.1-9.4,9
					c-0.5,0.5-1,0.9-1.5,1.4c-4.2,4.5-6.8,8.9-7.8,13.3c7.2-6.3,16.1-12.9,26.8-19.9c4.5-3.3,8-5.6,10.4-7.1
					c3.8-2.6,7.4-4.5,10.9-5.6l-18.8,17.5c-3,2.6-5.1,4.9-6.3,7c5-2.1,12.7-6.3,23-12.3c0.1,1.3-0.7,2.8-2.4,4.5
					c-2.2,2.1-3.4,3.7-3.8,4.9c2.7-0.7,6.5-2.1,11.3-4.3c4.7-2.3,8.3-3.8,10.9-4.5c-1.6,1.7-3.9,4.2-7,7.4c-2.5,3-4.3,5.9-5.5,8.7
					l14.8-8.3c4.2-2.4,7.4-4.2,9.6-5.5c3.9-2.2,7.2-3.7,10.1-4.5c-0.8,1.8-2.6,4.1-5.5,6.9c-3,2.8-4.8,5.1-5.6,6.9l3.6,0.3
					c-1,1.1-2.6,2.1-4.6,2.8c-1.2,0.4-3.1,1-5.6,1.8c-17.3,7.4-28,18.2-32.3,32.5c-1.3,4.2-1.3,8.9,0,14.1c0.2,1,1.8,5.8,4.8,14.3
					c2.2-1.8,3.9-4.3,5.1-7.6c1.6-3.8,2.8-6.3,3.6-7.3c0.3,0.6,1.1,2.3,2.2,5.3c0.8,2.3,2.1,4,3.9,4.9c2.7-3.2,6.1-8.4,10.1-15.8
					c3.9-7.2,7.3-12.5,10.4-16c0,1.1-0.3,3.1-1,6c-0.7,2.6-0.9,4.8-0.5,6.4c1.9-1.5,3.9-3.4,5.8-5.6c2-2.5,3.6-4.4,4.8-5.7l10.9-5.7
					c-6.5,13.3-10.4,23.7-11.6,30.9c-1,6.3-1.5,11.6-1.5,15.7c-0.1,5.8,0.7,11.1,2.6,16c1.5-0.7,2.7-2.2,3.8-4.5
					c1.1-2.5,2.3-4.2,3.4-5.2c1.4,3,2.2,6.8,2.6,11.3c0.7,7.2,1.1,11.1,1.2,11.6c2.3-1.8,3.8-4.2,4.4-7.4c0.5-3.7,1-6.5,1.7-8.4
					c0.3,0.5,2,5.2,4.9,14.3c1.9,5.6,5.5,9.6,10.6,12c-0.5-3.5-1.6-9-3.4-16.4c-1.8-6.9-2.9-12.2-3.2-16c2.7,4.9,6.9,9.2,12.6,12.9
					c0.3-2.9-0.1-6.3-1.2-10.2c-1.6-5.6-2.4-8.8-2.6-9.5c1.8,0.2,3.6,1.1,5.3,2.7c2,1.9,3.7,3,4.9,3.4c0.7-1.2,1-2.7,1-4.5
					c-0.2-2-0.3-3.4-0.3-4.3c-0.6-4.1-1-7.3-1.2-9.5c1.5,0.4,2.9,1.4,4.3,3.2c1.7,1.9,3.2,3.1,4.4,3.6c0.3-2,0.3-4.3-0.2-7.1
					c-0.6-3.9-0.9-6.2-0.9-6.7l3.1-0.1v-25.3c1.7,2.1,3,5,3.9,8.7c0.8,3,1.5,5.3,2.2,7l11.3,85.4c4.5,27.3,8.1,50.4,10.6,69.3
					s6.5,38.2,11.9,58c5.6,19.8,8.1,31.5,7.5,35.1c-2,13-7.5,41.7-16.2,86.2l-2.2,13c3.2,0.8,10.7,1.4,22.7,1.5
					c11.9,0.2,21.6-0.1,28.8-0.8v-38.9l17.2,39.2h37.7c0.2-1.2,0-2.4-0.7-3.6c-0.9-1.4-1.5-2.5-1.9-3.2
					c-8.6-14.8-15.1-25.9-19.5-33.3c-7.7-13.3-14.1-24.5-18.9-33.6c-9.7-17.8-14.6-27.9-14.8-30.1c-0.2-2.2,2.5-12.5,8.2-30.8
					c5.7-17.9,13.4-37.2,23.2-57.8c7.3-15.1,17.1-33.8,29.5-56.1c21.2-38.4,48.7-83.2,82.6-134.4c5.1-7.8,10.9-17.7,17.4-29.5
					c3.1-5.7,6.1-10.7,9-15.1c3.2-4.5,7.6-10.7,13.3-18.6c5.7-7.9,9.6-13.6,11.6-16.9c-0.9,3.7-2.2,7.8-3.9,12.3
					c-0.7,1.5-2.9,6.5-6.7,15c0.6,0.5,1.3,0.6,2,0.4c0.5-0.1,0.8-0.1,1-0.1c0,0.3,0,0.6,0,1c0,0.9,0,1.6,0,2.1
					c-0.5,1.5-1.2,3.2-2.2,5.2c-1.8,3.5-2.6,6.5-2.4,8.8l8.2-8.1v0.1c0.1,1.1,0.2,2.7,0.3,4.6l-7.7,18.3c1.8,0.1,4-0.5,6.7-1.8
					c2.6-1.3,4.8-1.9,6.7-1.8l-14.9,22.4c7.9-1.6,14.3-5,19.5-10.4c0.9-1.3,1.6-2.2,2.1-2.8c0.9-1,2-1.6,3.2-1.8
					c-2,3.9-5.1,9-9.2,15.1c-5,7.6-8.3,12.6-9.9,15.3c-2.7,4.5-4.6,7.9-5.6,10.4c7.6-3.3,13.5-7.8,17.6-13.6c0.2-0.3,1.9-3.1,5-8.5
					c1.9-3.3,3.9-5.8,6-7.7c0.1,1.6-0.2,4.8-1,9.7c-0.7,4.2-0.6,7.6,0.2,10.2c8.3-13.5,14-22.5,17.1-27c-0.1,1.8-0.2,4.2-0.3,7.4
					c0,2.6,0.7,5,2.2,7.1c8.2-11.3,13.6-23.8,16.2-37.7c2.2-11.2,2.7-24.4,1.5-39.5c1.2,0.1,2.2,0.6,2.9,1.5c1,1.4,1.6,2.1,1.7,2.2
					l3.6,2.5c0.5,0.9,1.5,4,3.1,9.2c1.1,3.6,2.7,6.6,4.6,8.8c0.9-2.5,1.7-5.4,2.2-8.7c0.6-3.7,1-6.6,1.4-8.7
					c1.9,7,3.4,14.8,4.3,23.5c0.6,4.8,1.2,12.6,1.9,23.7c3.3-1.6,5.9-3.9,7.8-6.9c1.8-3.6,3.4-6.5,4.6-8.5c0.3,2.2,0.4,5.8,0.2,10.6
					c-0.1,4.2,0.2,7.4,0.9,9.5h2.4c5-7.3,9.7-13.6,14.2-18.9c1.1-1.5,1.9-3.4,2.2-5.7c0.2-2.8,0.5-4.9,0.7-6.3
					c2.8-19-5-35.9-23.5-50.5c-12.2-9.3-20.8-18.9-25.9-28.8c0.2-0.4,0.5-0.8,0.7-1.3c3.2,2.5,6.5,5.7,9.9,9.5
					c2.4,2.7,5.9,6.8,10.6,12.3c0.6,0.7,1.4,1.7,2.4,3.1c1,1.2,2,2.1,3.1,2.7c0.1-1.8-0.4-3.8-1.5-6c-1.6-3.4-2.5-5.4-2.7-6
					c-1.8-3.2-2.9-5.8-3.2-7.8c0.1-0.3,0.2-0.6,0.3-1c0.1-0.3,0.2-0.6,0.2-0.8c3.1,2.5,6.8,6.3,11.3,11.3c5.1,5.9,8.8,9.8,10.9,11.9
					c0.9,0.9,2.3,2.4,4.1,4.3c1.7,1.6,3.5,2.7,5.3,3.4c0-3.3-1-6.8-3.1-10.5c-2.6-4.3-4.6-7.6-5.8-9.8c-1.3-1.6-2.2-2.8-2.7-3.5
					c-0.9-1.4-1.3-2.7-1.2-3.8c1.6,1.4,5.5,4.9,11.6,10.6c4.9,4.5,9.2,8,12.8,10.6c0.3-1.8,0-4-1-6.6c-1.1-3.3-1.8-5.6-1.9-7.1
					l17.7,20.7c-4.7-14.4-10.9-27.9-18.6-40.6c4,2.9,7.8,6.6,11.6,11.1c1.9,2.2,5.1,6.5,9.4,12.7c2.5,3.5,5.5,8,9,13.4
					c1.8,3,4.7,7.5,8.5,13.6c0.3,0.6,0.8,1.4,1.4,2.5c0.8,0.8,2.1,1.4,3.9,1.7c-3.8-18.5-14.6-36.8-32.6-54.9
					c1.2-0.2,2.3,0.1,3.1,0.8c5,4,12.6,9.9,22.9,17.6c8.4,7.1,14.6,14.1,18.4,21c2.6,4.8,5.6,8.5,9,11.2
					C1265,844.2,1265.5,842,1265.1,839.7 M937.9,836.2c-0.8,1.9-2.3,4.5-4.4,8c-1.7,3.2-2.3,6.3-1.7,9.2c4.7-2.4,12.7-7.2,24.2-14.4
					c9.9-6.2,18-10.6,24.4-13.4c-0.8,0.9-3,3-6.5,6.2c-3,2.6-5.2,4.9-6.8,7c4-0.7,8.7-2.3,14.2-4.8c6.4-2.8,12.8-4.3,19.3-4.6
					c-0.3,1-1.1,2-2.4,2.9c-0.8,0.6-2,1.3-3.6,2.2c-10.6,7.2-18.7,13.3-24.2,18.5l-16.6,15.7c-22.3-13.3-49.8-18.3-82.4-15.3
					c16.6-4.5,30.6-7,42-7.6c0.5,0.4,0.9,1.4,1.4,3.2c0.3,1.3,1.3,2,2.9,2.1L937.9,836.2 M910.1,875.7c-3.5-2-6.3-3.8-8.4-5.6
					c0.1-0.1,0.2-0.1,0.3-0.1c5.6,1.6,12.1,4,19.5,7.3c12.9,5.7,19.3,8.5,19.5,8.5c0.2,0.7,0.1,2-0.3,3.6c-0.3,1.3-0.1,2.3,0.9,2.9
					c2.6-1.2,4.4-1.9,5.3-2c0.8-0.1,2.4,0.1,5,0.7L939.1,912c3-1.6,6.3-4.1,9.9-7.4c3.8-3.5,6.6-5.9,8.5-7c-0.5,2.4-1.5,5.3-3.1,8.7
					c-2.4,5-3.7,7.9-3.9,8.5c-2.7,6.9-3,13.1-0.7,18.6c2.6-4.9,4.5-8.4,5.8-10.5c0.6-1.1,3.2-6.4,8-16c3.3-6.3,6.3-11.4,8.9-15.3
					c0.1,1.7-0.3,4-1.4,7c-0.6,3.9-0.8,6.5-0.7,7.8c0.1,3,1,5.7,2.7,8.3c1.5-2.3,3.7-6.3,6.7-11.9c2.6-4.9,4.9-8.7,6.8-11.2
					c1.2,0.7,2.3,2.1,3.1,4.1c0.8,1.9,1.8,3.1,2.9,3.8l14.8-19.6c0.5,1,0.7,2.9,0.7,5.7c-0.1,2.3,0.5,4.2,1.7,5.5
					c1.9-2,3.9-4.6,5.8-7.8c3.2-5,4.8-7.7,4.9-7.8l2.4,3.2c7.2-10.8,15.1-20.7,23.9-29.5c-0.6,2.1-1.8,4.9-3.8,8.7l-3.9,6.4
					c-1.5,2.5-2.2,4.8-2.2,6.9c1.9-1.2,4-3.2,6.3-6c1.5-1.7,2.7-3,3.8-4.1c-0.9,2.1-1.5,3.4-1.9,4.1c-0.6,1.1-1.6,3.4-3.1,6.7
					l-24.6,36.3c-5.1,7.5-19.9,28.4-44.2,62.9c-18.1,25.6-32.5,46.7-43.2,63.3c-13.9,21.6-25.2,40.3-34,56.3
					c-11.3,20.7-20.4,40.3-27.3,58.8c-0.1,0.3-0.3,0.7-0.5,1.4c-0.2,0.5-0.7,0.7-1.4,0.7c-0.7-0.1-1.1-0.4-1.4-1
					c-0.1,0-0.2-0.5-0.3-1.4c-3.6-14.2-7.4-31.3-11.3-51.2c-4.3-22.9-7.6-40-9.7-51.5c-0.9-4.9-3.1-20.4-6.7-46.3
					c-2.6-18.9-5.8-34.2-9.6-46.1c-1-2.6-0.7-4.4,1-5.3c0.5-1.7,0.3-4-0.5-7c-0.3-1.6-0.6-3-0.9-4.2c0.2-0.9,0.4-1.8,0.5-2.5
					c1.9,3,3.6,6.7,5.1,11.2c2.3,6.9,3.6,10.8,4.1,11.8c0.6,0,1.2-0.5,1.9-1.5c0.7-0.7,1.5-0.9,2.6-0.6c0.1,0.3,0.6,2.1,1.4,5.3
					c0.5,2.1,1.1,3.9,2,5.2c1.1-0.5,2.1-1.6,2.7-3.5c0.6-1.8,1.6-2.8,3.1-3.1c0.6,1.4,1.5,4.6,2.7,9.5c1,4,2.3,7.1,3.9,9.4
					c0.6-0.4,1.8-1.6,3.6-3.6c1.3-1.5,2.7-2.3,4.4-2.5c0.5,1.6,0.8,5,1,10.2c0.1,4.3,0.9,7.7,2.4,10.2c1.9-1.7,3.5-4.2,4.6-7.6
					c1.4-4.4,2.5-7.3,3.4-8.8c0.1,0.6,0.9,6.4,2.4,17.6c0.9,6.7,2,12.2,3.2,16.4c1.8,0,3-0.6,3.4-1.8c1.3-3.9,1.7-8.5,1.4-13.9
					c-0.1-0.9-0.7-5.9-1.9-15c1.3,1.3,3.2,3.9,6,7.8c2.3,3.1,4.5,5.4,6.7,7l-2.9-18.9c1.3,0.3,2.7,1.2,4.4,2.8
					c1.6,1.4,3.1,2.1,4.6,2c0.7-2.1,0.5-5.3-0.7-9.8c-3.9-13-10.9-25-21.2-36c-3.1-2.7-5.5-5-7.2-7l0.3-2.7l6.1,0.7
					c1.7,0.7,4.3,2.4,7.7,4.9c2.7,2,5.2,3.2,7.3,3.8c-0.2-1.9-1.4-4.2-3.4-7c-2.3-2.8-3.5-5-3.8-6.7c5.4,3.8,11.3,9.1,17.9,15.8
					c11,11.1,16.8,16.8,17.2,17.2c1.5-1.9,2-4,1.7-6.4c-0.6-3.9-0.9-5.9-0.9-6c1.6,1,3.8,3.3,6.5,6.7c2.5,3,5,5.1,7.5,6.3
					c0.3-2,0.2-4.7-0.5-8.3c-0.7-3.4-1.4-6.6-2.2-9.7c-0.8-3.2-3.6-8.5-8.4-16c-4.7-7.5-11.8-12.7-21.5-15.8
					c-9.7-3.2-17.9-6.6-24.6-10.4c-7.4-4.3-13-7.5-16.7-9.5c-1.7-0.9-2.5-1.8-2.4-2.7l43.5,13.9c-1.4-1.7-3-3.2-4.8-4.5
					c-2.2-1.3-3.7-2.3-4.6-2.9c-1.4-0.9-4-2.2-7.9-3.9c-3.2-1.4-5.6-2.7-7.3-3.9c3.4,0.5,8.4,1.7,15,3.6c6.6,1.9,11.8,2.9,15.7,3.2
					c-0.5-1-1.7-2.1-3.6-3.2c-2.1-1.2-3.4-2.3-3.9-3.4c2.4,0.4,6,1.4,10.9,3.2c4.3,1.5,7.8,2.3,10.4,2.4c-0.5-1.1-1.5-2.1-3.1-2.9
					l-4.3-2.2C918.7,880.5,915.5,878.6,910.1,875.7 M909.4,864.5c0.8-0.2,1.6-0.3,2.4-0.4c6.9,0.9,12.6,1.9,17.1,2.9
					c8,1.8,15,4.1,21.2,6.9c-0.7,1-1.5,2.4-2.6,4.1c-1,1.3-2.3,2.2-3.8,2.8C934.3,875.8,922.9,870.4,909.4,864.5 M873.8,894.2
					c-8.2-0.8-16.5-3.8-24.9-9C858.8,887.1,867.1,890.1,873.8,894.2z"/>
			</g>
		</g>
	</g>
	<g transform="matrix( 1, 0, 0, 1, 29.7,-13.15) " class="st7">
		<g>
			<g id="Layer0_8_FILL">
				<path class="st14" d="M2348.5,740.8c-14.1-3.1-20.4-4.2-18.8-3.4c1.6,0.9,5.5,3,11.8,6.3c6.4,3.3,10.4,5.7,12.1,7.4
					c-4.1-0.7-9.8-1.9-17.2-3.5c-6.4-1-11.9-1.2-16.7-0.6c-13,1.9-23.7,3.7-32.3,5.6c14.8,1.5,28.6,3.2,41.5,5
					c0.9,0.3,2.4,0.5,4.6,0.6c1,0.2,1.9,0.5,2.7,0.8c-0.9,0.2-1.8,0.4-2.7,0.7c-1,0.2-2,0.4-3.1,0.6c-3.2,0.1-7.2,0.2-12.1,0.4
					c-8,0.4-14.4,1-19.3,2c-19.3,4.1-34.1,10.5-44.4,19c-3.2,2.4-8.4,5.7-15.5,9.8c-3.5,2.5-6,4.8-7.5,6.7c-1.5,1.9-2.8,4.7-4.1,8.4
					c14.1-8.2,24.8-14.1,32.1-17.8c12.2-6.2,23.8-9.9,34.8-11.3c-11.9,6.8-21.3,12.6-28,17.4c-9.6,6.9-17.3,14.1-23.4,21.6
					c1.5,0.6,2.7,0.6,3.8,0.1c0.9-0.8,1.6-1.4,2.1-1.7c8-5.6,17.9-11.9,29.9-18.8c13.9-7.7,24.3-13.6,31.2-17.5l0.7-0.3
					c0.5,0,0.9,0,1.2-0.1c1,0,2,0,2.9,0c-0.5,0.5-1.1,0.9-1.9,1.4c-0.9,0.5-2.4,1.3-4.6,2.4c-4.9,3.4-10.5,7.6-16.9,12.6
					c-3.6,3-9,7.5-16.2,13.4c3.2-0.7,7.4-2.5,12.8-5.2c5.1-2.6,9.3-4.3,12.5-5.2c-0.6,1.4-1.8,2.8-3.6,4.2c-2.4,1.8-3.9,3.3-4.4,4.6
					c4.8-0.7,10.8-2.6,17.9-5.6c7.7-3.5,13.3-5.6,16.6-6.4c-1.9,1.7-4.7,3.6-8.4,5.9c-4.3,2.4-7.2,4.3-8.7,5.7
					c-3.1,2.3-5,3.8-5.8,4.5c-2,1.9-3.6,3.8-4.6,5.9l45.1-20.2c-2.1,2.8-5.1,6-9,9.5c-4.4,4-7.4,6.9-8.9,8.5
					c4.8-1.8,10.4-4.2,16.9-7.4c7.3-3.7,12.7-6.5,16.4-8.4c3.6-2,6.6-3.2,8.9-3.8c-2.4,1.6-5.7,3.9-10.1,7c-4.1,2.6-7.9,4.6-11.3,6
					l-35.8,15c-16,6.7-28.7,17.5-38.1,32.2c-2.7,4.4-4.3,8.7-4.6,12.9l2.7,25.1l12.6-19.9c0,2.1-0.3,5-0.9,8.8
					c-0.2,3.5,0.6,6.5,2.6,9.1c3.2-3.5,8.6-10.4,16.4-20.4c6.6-8.7,12.3-15.3,17.1-19.7c-0.3,1.1-1.5,3.7-3.4,7.7
					c-1.6,3.3-2.7,6.1-3.4,8.5c3.4-2,7.1-4.9,11.1-8.7c4.9-4.4,10.3-7.7,16.2-9.9c0.1,1.1-0.2,2.3-1,3.5c-0.6,0.7-1.4,1.8-2.4,3.2
					c-6.8,9.8-11.7,17.9-14.7,24.2l-8.7,19.5l-1.4,25.8c2.1-1.9,3.4-3,4.1-3.4c0.8-0.4,2.4-0.6,4.9-0.7l-2.7,23.1
					c2.2-2.3,4.2-5.6,6-9.9c2-4.3,3.7-7.2,4.9-8.8c0.6,2.3,0.9,5.3,0.9,9c0,5.3,0.1,8.4,0.2,9.1c0.3,7.3,2.8,13.2,7.3,17.6
					c0.5-5.4,0.7-9.3,0.9-11.6c0.1-1.1,0.3-6.9,0.7-17.2c0.3-6.8,0.9-12.5,1.7-16.9c0.8,1.6,1.4,3.9,1.7,7c1.1,3.8,2.1,6.4,2.7,7.7
					c1.4,2.6,3.4,4.9,6.1,6.9c0.3-2.7,0.7-7.1,1.2-13.2c0.2-5.3,0.7-9.5,1.4-12.5c1.5,0.4,3.1,1.4,4.8,3.1c1.6,1.4,3,2.3,4.3,2.7
					l5.5-22.7c0.9,0.7,1.9,2.4,3.1,5c0.9,2.3,2.2,3.9,3.9,4.8c1-2.4,1.7-5.5,2-9.1c0.8-5.6,1.2-8.5,1.2-8.7l3.6,2.2
					c2-12.2,5.3-23.8,9.7-34.6c0.3,2.1,0.5,5.2,0.3,9.2l-1,7.1c-0.2,2.8,0.1,5.2,0.9,7.1c1.4-1.8,2.5-4.3,3.4-7.6
					c0.7-2,1.3-3.5,1.7-4.8c0.1,2.1,0.1,3.5,0,4.3c-0.1,1.1-0.1,3.5,0,7.1l-7.3,41c-1.6,8.5-6.3,32.4-14.2,71.7
					c-5.9,29.1-10.2,53-13,71.5c-3.2,20.8-5.7,58.5-7.5,113c-1.8,54.4-1.9,92.2-0.2,113.3c0,0.4,0.1,0.9,0.2,1.5
					c-0.1,0.5-0.5,0.8-1,1h32.8c-1.6-16.5-2.1-51-1.5-103.5c0.5-49.9,1.5-84.7,3.1-104.3c3.3-42,9.7-91.9,19.1-149.8
					c1.6-8.8,2.8-19.6,3.8-32.6c0.3-6.2,0.9-11.8,1.7-16.8c1.1-5.1,2.6-12.2,4.4-21.3c1.9-9.1,3.1-15.4,3.6-19.2
					c0.7,3.8,1.2,8.1,1.5,12.7c0.1,1.6,0.2,6.9,0.3,16c0.8,0.2,1.5,0,2-0.4c0.5-0.2,0.8-0.3,1-0.4c0.1,0.3,0.3,0.6,0.5,1
					c0.3,0.8,0.6,1.5,0.9,2c0.2,1.6,0.3,3.5,0.2,5.6c-0.2,3.8,0.3,6.8,1.5,9l4.1-10.1v0.1c0.6,0.9,1.4,2.3,2.4,4.2l0.7,19.5
					c1.8-0.5,3.7-1.7,5.6-3.8c1.8-2,3.6-3.2,5.3-3.6l-4.1,25.3c6.6-3.7,11.1-8.8,13.5-15.3c0.5-1.5,0.7-2.6,0.9-3.2
					c0.3-1.2,1.1-2.1,2.2-2.7c-0.1,4.2-0.8,9.8-2.1,16.8c-1.4,8.6-2.2,14.3-2.6,17.2c-0.7,4.9-1,8.7-0.9,11.2
					c5.6-5.2,9-11.2,10.4-17.8c0.1-0.3,0.5-3.5,1-9.5c0.3-3.5,1.1-6.5,2.2-8.8c0.8,1.5,1.9,4.6,3.2,9.2c1.2,4.1,2.8,7.3,4.6,9.7
					c1.9-15.1,3.4-25.2,4.3-30.4c0.7,1.8,1.6,4.2,2.9,7.1c1.1,2.4,2.8,4.4,5.1,6c2.7-13,2.4-26.3-1-39.9
					c-2.8-11.1-8.1-23.6-15.7-37.4c1.3-0.3,2.4-0.1,3.4,0.6c1.6,0.9,2.5,1.4,2.7,1.5l4.3,1.4c0.8,0.7,3.1,3.3,6.8,7.7
					c2.6,3.1,5.4,5.4,8.2,7c-0.2-2.6-0.8-5.6-1.7-8.8c-1-3.7-1.8-6.6-2.4-8.5c4.8,6,9.4,12.9,14,20.7c2.6,4.4,6.7,11.6,12.1,21.7
					c2.4-2.5,3.9-5.5,4.4-8.8c0.1-3.8,0.3-6.9,0.5-9.2c1.4,2.1,3,5.3,4.8,9.8c1.7,4,3.3,7,4.8,8.8l2.4-0.7
					c1.6-8.3,3.2-15.6,4.9-21.8c0.6-1.7,0.5-3.7-0.3-6c-1-2.7-1.7-4.8-2-6.2c-5.6-18.7-20.2-32.1-43.9-40.3
					c-15.4-5.2-27.6-11.7-36.7-19.5c0.1-0.5,0.2-0.9,0.2-1.4c4,1.5,8.4,3.5,13.3,6c3.4,1.9,8.5,4.7,15.2,8.4
					c0.9,0.5,2.1,1.2,3.6,2.2c1.4,0.8,2.7,1.4,4.1,1.7c-0.7-1.8-2.1-3.5-4.3-5.2c-2.8-2.7-4.6-4.3-5.1-4.9c-3.1-2.4-5.2-4.6-6.3-6.4
					c0-0.3,0-0.6,0-1c-0.1-0.3-0.2-0.6-0.3-0.8c4,1.5,9.1,4,15.4,7.4c7.4,3.9,12.6,6.5,15.5,7.8c1.1,0.6,3,1.5,5.5,2.9
					c2.4,0.9,4.6,1.4,6.5,1.5c-1.4-3-3.8-6-7.3-9c-4.3-3.3-7.5-5.7-9.6-7.4c-1.8-1.1-3.2-2-4.1-2.5c-1.6-1-2.6-2.1-2.9-3.2
					c2.2,0.8,7.3,3,15.5,6.6c6.5,2.8,12,4.9,16.6,6.3c-0.5-1.7-1.8-3.6-3.9-5.9c-2.4-2.7-4-4.7-4.8-6l25.6,14.1
					c-10.6-12.1-22.2-23-35-32.6c5,1.6,10.2,3.9,15.7,7c2.8,1.5,7.6,4.6,14.2,9.2c4,2.5,8.8,5.8,14.3,9.9c3.1,2.2,7.7,5.6,14,10.1
					c0.6,0.5,1.3,1.1,2.2,2c1.1,0.7,2.6,0.8,4.4,0.4c-11.5-16.1-29.6-30.1-54.3-41.7c1.1-0.6,2.3-0.6,3.4-0.1
					c6.4,2.3,16,5.6,28.8,9.8c11,4.2,19.8,9,26.3,14.4c4.6,3.6,9,6.2,13.5,7.7c0.1-2.3-0.5-4.5-1.7-6.6c-0.7-1.2-2.1-2.8-4.3-4.8
					c-23.8-23.4-52.1-34.5-84.8-33.3c-2,0-3.6-0.6-4.6-1.7c16.3-3,32.5-5,48.8-6.2c-18-3.2-29.1-4.9-33.3-5.3
					c-11.4-0.8-21.7,0.4-30.9,3.6c0.1-0.3,0.2-0.6,0.3-0.8l16.2-12.6c-23.9,3.8-47,10.5-69.3,20c-9.8,4.2-18.1,10.6-24.9,19.2
					c-8.1-5-18-9.2-29.9-12.6C2371.6,745.8,2362.8,743.8,2348.5,740.8z"/>
			</g>
		</g>
	</g>
	<g transform="matrix( 1, 0, 0, 1, 0,0) " class="st7">
		<g>
			<g id="Layer0_9_FILL">
				<path class="st14" d="M2662.1,1211.3c-36.6,3.8-74.2,8.3-112.6,13.4c-24.6,3.3-91.9,13-202.1,29.3
					c-77.8,11.5-141.8,19.7-191.8,24.8c-70,6.9-137.3,10.4-202.1,10.4c-150.1,0-318.8,4.3-506,13c-88.5,4.3-150.9,7.2-187,8.8
					c-60.3,2.7-106,4.1-137.2,4.1c-35.2,0-119.9-3.1-254.3-9.2c-123.8-5.7-226.9-7.8-309.2-6.3c-70.5,1.1-178-7.8-322.2-26.9
					c-43.2-5.7-147.6-21.1-313.2-46.2v209h2737.8V1211.3z"/>
			</g>
		</g>
	</g>
	<g transform="matrix( 0.2748565673828125, 0, 0, 0.2748565673828125, 702.6,359.8) " class="st7">
		<g>
			<g id="Layer0_11_FILL">
				<path class="st14" d="M5508.9,2919.3c-0.5-5.5-3.2-9.8-8.2-12.9c-0.1-0.1-1.6-0.8-4.6-2.2c-3.6-1.7-8.9-2-15.9-1h-0.2
					c-0.7,0-1.4,0.1-2,0.3c-0.8,0.1-1.5,0.3-2.1,0.6l-11.1,14.3c-1.2-0.1-2.6,0-4.1,0.1h-196.1c-0.6-5.1-3.3-9.1-8-12
					c-0.1-0.1-1.6-0.8-4.6-2.2c-3.7-1.7-8.9-2-15.9-1h-0.2c-0.7,0-1.4,0.1-2.1,0.3c-0.8,0.1-1.5,0.3-2,0.6l-143.5,187.2
					c-10.2-4.4-19.1-1.5-26.6,8.7l6.1,18.3l-93,121.4c-28.5,1.5-57.1,1.4-86-0.6l-38.1-18.2h-14.7l-14.5,23l110.6,51.5l-111.1,144.9
					l44.7,0.3l99.3-129.8l145.9,68l-45.9,61.5l44.7,0.3l34.3-46.3l100.2,46.8h67.8l-100.2-47.7h139.6l125.8,58.7h53.1h14.7
					l-88.6-42.3l-63.1-182.3c6.9-8.6,13.3-17.8,18.9-27.6c34.6-59.5,55.1-134.3,61.4-224.4v-10.1L5508.9,2919.3 M5248.5,2940.6
					c0.3,1.9,0.7,3.9,1,5.9c1.8,11-0.4,36.3-6.8,75.9c-6.6,39.6-25.2,81.7-55.8,126.4c-10.6,15.3-23.4,28.8-38.4,40.5
					c-6.1,4.7-12.7,9.1-19.6,13.2l-23.6-74.6L5248.5,2940.6 M5081.4,3159l18.9,57.7c-11.2,4.8-23.2,9-36,12.5c-0.2,0-0.4,0-0.5,0.1
					c-13.6,2.5-27.3,4.5-41.1,6.2L5081.4,3159 M5176.1,3351.2l19.5-26.3c2.8-0.1,5.6-0.3,8.4-0.6l101,47.2h-122.4L5176.1,3351.2
					 M5135.5,3323.2l5.3,16l-11.1,14.7l-124.2-59.2c5.5,1.7,10.9,3.3,16.2,4.9c31.3,9.1,60.5,15.8,87.6,20.2
					C5118.2,3321.1,5127,3322.3,5135.5,3323.2 M5257.9,3314.8l-1.4-0.7c8.7-2.5,17-5.2,25.1-8.1c35.4-13.3,65.4-31.5,89.8-54.6
					l40.5,120.1h-35L5257.9,3314.8z"/>
			</g>
		</g>
	</g>
	<g transform="matrix( 1, 0, 0, 1, -33.3,24.55) " class="st15">
		<g>
			<g id="Layer0_12_FILL">
				<path class="st16" d="M2518.7,638.3c5-0.1,7.5-0.5,7.6-1.4c0-0.3-0.2-0.5-0.7-0.7c-0.9-0.4-3.1-0.5-6.3-0.3
					c-4.8,0.2-10.8,0.3-18.2,0.2c-7.4-0.2-13.6-0.3-18.6-0.5c-3.5-0.1-5.7,0.1-6.8,0.5c-0.6,0.2-0.8,0.4-0.8,0.7
					c0,0.2,0,0.3,0.1,0.5c0.7,0.7,3.3,1,8,1c4.6-0.1,10.4-0.1,17.5,0C2507.5,638.4,2513.6,638.4,2518.7,638.3 M2365.3,639.8
					c25.5-0.2,44.4-0.7,56.5-1.4c10.9-0.7,16.3-1.6,16.2-2.8c-0.2-1-4.8-2-13.8-2.9c-12.9-1.2-34.7-2.3-65.6-3.2
					c-52.4-1.7-114.1-2.7-185.3-3.1c-71.2-0.5-134.8-0.1-191.1,1c-56.3,1.1-88.3,3.6-95.9,7.5c-0.5,0.2-0.8,0.5-1,0.7
					c-0.1,0.1-0.1,0.2-0.1,0.3c-0.1,3,30,4,90.4,3.1c67.1-1.2,136.6-1.2,208.4-0.2C2255.8,639.8,2316.3,640.1,2365.3,639.8z"/>
				<path class="st17" d="M2525.6,636.2c-2.1-6.2-6.2-10-12.5-11.5c-6.3-1.6-11.4-2.2-15.4-1.7c-3.9,0.4-7.7,1.3-11.3,2.8
					c-3.7,1.5-7.2,4.9-10.7,10.4c1-0.4,3.3-0.5,6.8-0.5c5,0.2,11.2,0.3,18.6,0.5c7.3,0.1,13.4,0,18.2-0.2
					C2522.5,635.7,2524.6,635.9,2525.6,636.2 M2347.5,582.8c-3.3,1.4-6,3-8.2,4.8c-1.5-4.2-3.5-8.4-6.1-12.7
					c-10.4-17.4-27-26.1-49.7-26.1c-3.1,0-6.1,0.2-8.9,0.5c0.1-0.5,0.1-1,0.1-1.4c0-13.8-6.2-26.3-18.6-37.7
					c-17-15.5-42.1-23.2-75.3-23.2c-34.4,0-59.2,10.1-74.2,30.4c-6.5,8.8-10.5,17.7-12.1,26.9c-3.8-1.2-7.5-1.8-10.8-1.8
					c-10.1,0-18.3,2.2-24.5,6.6c-1.7,1.2-3.2,2.7-4.6,4.4c-2.2-3.9-4.8-7.4-7.9-10.5c-8.8-8.6-21-12.9-36.6-12.9
					c-19.1,0-35.2,5.1-48.4,15.2c-13.1,10.2-19.7,22.5-19.7,37.1c0,2.5,0.5,5.5,1.4,8.8c-1.6-0.2-3.3-0.2-5.2-0.2
					c-10,0-17.3,1.5-21.8,4.6c-4.8,3.3-8,9-9.6,17.1c-1.4-0.2-2.7-0.1-3.9,0.2c-2.4,0.6-5,2.5-7.6,5.8c-3.2,3.8-6.5,9.5-9.9,17.1
					c0.2-0.2,0.5-0.5,1-0.7c7.6-3.9,39.6-6.4,95.9-7.5c56.2-1.2,119.9-1.5,191.1-1c71.1,0.4,132.9,1.4,185.3,3.1
					c30.9,0.9,52.8,2,65.6,3.2c9,0.9,13.6,1.9,13.8,2.9c1.4-7.2,0.4-11.8-3.1-13.9c-2.4-1.5-5.3-2.3-8.4-2.3c-1,0-2.4,0.2-4.1,0.5
					c-1.7,0.3-2.9,0.5-3.5,0.5c0.4-6.1,0.1-10.7-0.7-14c-1.2-5-3.9-7.5-8-7.5c-2.4,0-5,0.7-7.9,2.2c-1.1,0.5-3.9,2.2-8.4,5
					c-0.2-4.7-1.4-9.4-3.5-14c-4.2-9.2-11.1-13.9-20.6-13.9C2362,578.3,2354.6,579.8,2347.5,582.8z"/>
			</g>
		</g>
	</g>
	<g transform="matrix( 0.74298095703125, 0, 0, 0.74298095703125, 29.25,79.05) " class="st18">
		<g>
			<g id="Layer0_13_FILL">
				<path class="st19" d="M776.9,578.5c0-0.1-0.1-0.2-0.3-0.3c-0.1-0.2-0.4-0.4-0.9-0.6c-9.2-3.4-47.2-5.5-113.8-6.3
					c-66.8-1-142.3-1.4-226.6-1c-84.5,0.4-157.9,1.3-220,2.7c-36.7,0.8-62.7,1.8-77.8,2.8c-8.2,0.6-13.3,1.2-15.4,1.8
					c-0.6,0.2-1,0.4-1,0.6c0,0.2,0.3,0.4,0.9,0.6c2.1,0.8,8.2,1.4,18.4,1.8c14.3,0.6,36.6,0.9,66.9,1.1c58.3,0.3,130,0,215.2-0.7
					c85.1-0.8,167.5-0.8,247.1,0.1C741.3,581.9,777.1,581,776.9,578.5z"/>
				<path class="st20" d="M666.2,535.6c-0.7,0.5-1.5,1.1-2.2,1.7c-0.4-5.3-3.7-11.1-9.9-17.4c-9.6-9.9-22.9-14.8-40.1-14.8
					c-3.8,0-7.4,0.5-10.9,1.5c-0.3-9.1-3.4-17.8-9.4-26c-10.1-13.8-25.7-20.7-46.8-20.7c-16,0-30.9,4.1-44.5,12.3
					c-5.5,3.3-9.9,6.6-13,9.8c-0.3-0.2-0.7-0.5-1-0.7c-7.6-5.3-16.1-8-25.4-8c-13.8,0-24.6,2.9-32.4,8.7c-0.6,0.5-1.3,0.9-1.9,1.4
					c-0.4-0.7-0.9-1.5-1.4-2.2c-9-13.7-25.5-20.6-49.7-20.6c-18,0-34.1,4.5-48.5,13.4c-15.8,10-23.7,22.6-23.7,37.8
					c0,1.2,0.1,2.5,0.2,3.8c-5.1-2.6-11.6-3.9-19.5-3.9c-5.9,0-11.1,0.6-15.5,1.7c-0.5-1.2-1.2-2.5-2-3.8
					c-4.6-7.1-13.2-10.6-25.9-10.6c-16.4,0-29.4,3.1-38.9,9.4c-9.3,6.2-14,14.3-14,24.5c0,0.1,0,0.3,0,0.4c-1.8-0.4-3.6-0.6-5.5-0.6
					c-12.9,0-19.3,5.3-19.3,15.8c0,0.8,0.1,1.9,0.3,3.1c-8.7,0.8-18.1,3.6-28.2,8.4c-10,4.9-15,10.7-15,17.6
					c2.1-0.6,7.2-1.2,15.4-1.8c15.1-1,41.1-2,77.8-2.8c62.1-1.4,135.5-2.3,220-2.7c84.3-0.4,159.9,0,226.6,1
					c66.7,0.8,104.6,2.9,113.8,6.3c0.5,0.2,0.7,0.4,0.9,0.6c0.2,0.1,0.3,0.2,0.3,0.3c-0.1-8.2-4.4-13.1-13-14.7
					c-8.5-1.5-14.5-1.8-17.9-1c-0.2-2.2-1-4.5-2.4-7c-2.6-4.7-6.6-7-11.9-7c-5.9,0-12.1,3.2-18.6,9.5c0-0.3-0.1-0.5-0.3-0.6
					l-0.3-0.1c-0.6-5.2-1.9-10.1-3.9-14.6c-4.1-8.8-11.4-13.2-22-13.2C678.2,529.9,671.4,531.8,666.2,535.6z"/>
			</g>
		</g>
	</g>
	<g transform="matrix( 0.8382110595703125, 0, 0, 0.8382110595703125, 247.45,10.25) " class="st21">
		<g>
			<g id="Layer0_14_FILL">
				<path class="st22" d="M1513.2,305.2c-3.7-0.3-7.5-0.6-11.4-1c-0.8,0-16.4,0-46.6,0.1c-30.1,0.1-95-0.1-194.6-0.7
					c-99.5-0.6-212.6-1.1-339.3-1.5c-1.2,3.7,43.2,5.9,133.5,6.4c90.2,0.7,189.8,1.3,298.8,2
					C1462.7,311.3,1515.9,309.6,1513.2,305.2z"/>
				<path class="st23" d="M1334.7,257.9c-4.2-1.6-8.3-2.4-12.1-2.4c-5.3,0-10.5,1.4-15.5,4.2c0.5-1.8,0.7-3.2,0.7-4.2
					c0-8-3-14.6-9-19.6c-6.9-6-17.1-9-30.4-9c-10.4,0-19.4,2.8-27.1,8.4c-7.9,5.6-11.8,12.5-11.8,20.7v0.1c-2.6-0.8-5.3-1.3-8-1.3
					c-4.4,0-7.8,0.5-10.2,1.4c-1,0.3-2.8,1.2-5.5,2.7c-0.5-3.5-1.8-6.4-4.1-9c-3.8-3.7-9.3-5.6-16.7-5.6c-0.3,0-0.6,0-0.9,0
					c-0.2-8.5-4.3-15.4-12.3-20.7c-7.3-4.8-15.6-7.1-24.9-7.1c-15.7,0-29.8,4.4-42.3,13.2c-12.1,8.6-18.1,18-18.1,28.3
					c0,3.4,0.1,5.4,0.2,6.2c0,0.1,0,0.2,0,0.3c-3.1-0.7-5.8-1.1-8.2-1.1c-4,0-7.8,0.9-11.6,2.7c-1-2.1-2.6-4.3-4.6-6.4
					c-5.2-5.3-12.1-8-20.7-8c-6.8,0-13.5,2.2-20,6.7c-7.1,4.9-10.6,10.7-10.6,17.2c0,1,0.2,2.6,0.5,4.8h-0.5
					c-2.7-1.5-5.9-2.2-9.6-2.2c-10.9,0-17.7,3.2-20.3,9.7c-9.1,0-22.4,1.2-39.9,3.5c-17.7,2.2-24.3,5.9-19.8,10.9
					c126.7,0.4,239.8,0.9,339.3,1.5c99.6,0.6,164.4,0.8,194.6,0.7c30.2-0.1,45.8-0.2,46.6-0.1c3.9,0.3,7.7,0.7,11.4,1
					c2.5-3.5,1.9-6.3-1.9-8.7c-3.9-2.5-7.3-3.8-10.4-3.8c-2.5,0-4.9,0.5-7.3,1.5c-2.3,0.9-3.9,2-4.8,3.1c-1-2.6-2-4.7-2.9-6.2
					c-1.5-2.6-4.3-3.9-8.4-3.9c-2.3,0-3.8,0.1-4.6,0.4c-1.1,0.5-2.5,1.2-4.1,2.2c-0.9-1.2-2.2-2.6-3.8-4.1
					c-4.1-4.2-8.1-6.3-11.9-6.3c-4.3,0-8.9,1.7-13.7,5.2c-3.9,3.5-5.9,5.3-6,5.3c-2.5-4.3-4.5-7.3-6.1-9c-2.5-3.2-6.7-4.8-12.5-4.8
					c-0.2,0-0.5,0-0.7,0c0.3-1.8,0.5-3.1,0.5-4.1c0-7.7-1.8-14.1-5.5-19.5c-4.8-7.4-12.4-11.1-22.9-11.1c-12.6,0-23.6,2.8-32.9,8.3
					c-6,3.6-10,7.5-11.8,11.6C1339.6,260.2,1337.3,259,1334.7,257.9z"/>
			</g>
		</g>
	</g>
	<g transform="matrix( 1, 0, 0, 1, 0,0) " class="st7">
		<g>
			<g id="Layer0_15_FILL">
				<path class="st24" d="M1531.7,1275.2l1.2-1.3c-2.6-3.2-5.5-4.3-8.5-3.5c0,3.5,1.4,5.9,4.3,7
					C1529.7,1276.9,1530.7,1276.2,1531.7,1275.2 M1595.7,1199.1c0-1.9-1.4-4-4.3-6.3h-5.1l-0.9,4.2c0,1.4,0.6,2.8,1.7,4.2
					c4,0,6.8-0.2,8.5-0.7V1199.1 M971.9,1191.4l0.9-4.2c-0.8-1-1.7-1.6-2.7-1.7c-0.9-0.2-2.3-0.1-4.1,0.3c0,2.8,0.6,4.9,1.7,6.3
					L971.9,1191.4 M50.7,1181.6l-2.6-4.2c-2.5-0.8-5-1.4-7.5-1.5c-2.4,0.1-3.9,0.1-4.4,0.1c0.9,6.1,3.5,9.8,7.7,11.2
					C47.4,1186.1,49.7,1184.2,50.7,1181.6 M66.2,1215.7c-1.7,0.1-2.7,0.1-3.1,0.1c0,3.5,0.6,5.9,1.7,7.3h4.3
					c1.7-1.4,2.6-3.4,2.6-5.9C69.9,1216.4,68,1215.9,66.2,1215.7 M404,1192.1c-2.3-2.8-4.8-4.7-7.7-5.6c-2.4,0.1-4.1,0.3-5.1,0.6
					c-1.7,0.6-2.6,2.3-2.6,5.3s0.6,4.8,1.9,5.5c0.9,0.5,2.8,0.9,5.8,1.3l5.1-1.4L404,1192.1 M642.9,1255.4l0.9-4.2
					c-0.8-1-1.7-1.6-2.7-1.7c-0.9-0.2-2.3-0.1-4.1,0.3c0,2.8,0.6,4.9,1.7,6.3L642.9,1255.4 M582,1256.1l-4.3-4.2
					c-4.2,0-6.8,2.1-7.7,6.3c1.1,1.2,3.1,2.3,6,3.2c1.9-0.7,3.4-1.4,4.3-2.4C580.8,1258.3,581.4,1257.4,582,1256.1 M713.4,1269.8
					l-3.4-4.2h-4.3c0,0.3-0.4,0.4-1.2,0.3c-0.9,0.4-1.4,2-1.4,4.9s0.5,4.3,1.4,4.2c0.3,0,0.7-0.3,1.2-1
					C709.7,1274,712.2,1272.6,713.4,1269.8 M1386.7,1195.6c-0.8-1-1.7-1.6-2.7-1.7c-0.9-0.2-2.3-0.1-4.1,0.3c0,2.8,0.6,4.9,1.7,6.3
					l4.3-0.7L1386.7,1195.6 M1282.9,1254.7c-0.8-1.9-3.1-4-6.8-6.3h-5.1l-1.7,6c0,0.7,0.7,1.3,2,2c1.6,0.9,3.8,1.5,6.5,1.8
					C1280.1,1257.2,1281.8,1256.1,1282.9,1254.7 M1487.4,1198l-0.9,1.1h-4.3l-0.9,4.2c0,1.4,0.6,2.8,1.7,4.2c1.7,0,3.1-0.7,4.3-2.1
					c0.6,2.5,0.9,1.4,0.9-3.2C1488.2,1199.3,1487.9,1197.9,1487.4,1198 M2496.9,1184.4c1.7-1.4,2.6-3.5,2.6-6.3
					c-1.8-0.8-3.6-1.4-5.5-1.5c-1.7,0.1-2.7,0.1-3.1,0.1c0,3.7,0.6,6.3,1.7,7.7H2496.9 M2457.1,1202.6l0.9-4.2
					c-0.8-1-1.7-1.6-2.7-1.7c-0.9-0.2-2.3-0.1-4.1,0.3c0,2.8,0.6,4.9,1.7,6.3L2457.1,1202.6 M2355.2,1185.1
					c-1.1-2.8-2.6-4.9-4.3-6.3c-2.4,0-3.9,0.1-4.4,0.3c-2.2,0.7-3.2,2.6-3.2,5.6c0,2.9,0.3,4.3,0.9,4.2c0.3,0,0.6-0.3,0.9-1l4.3,1.4
					c1.5-0.3,2.7-0.8,3.6-1.5C2353.3,1187.4,2354.1,1186.5,2355.2,1185.1 M2322.3,1237.2c2.3-0.9,3.7-2.1,4.3-3.5
					c-0.5-1-1.4-2-2.7-2.9c-1.5-0.8-2.8-1.3-4.1-1.3l-1.7,5.3C2318,1235.4,2319.4,1236.2,2322.3,1237.2 M2324.8,1199.8l0.9-4.2
					c-0.8-1-1.7-1.6-2.7-1.7c-0.9-0.2-2.3-0.1-4.1,0.3c0,2.8,0.6,4.9,1.7,6.3L2324.8,1199.8 M2036.4,1201.9c0,3.7,0.6,6.3,1.7,7.7
					h4.3c1.7-1.4,2.6-3.5,2.6-6.3c-1.8-0.8-3.6-1.4-5.5-1.5C2037.8,1201.8,2036.7,1201.9,2036.4,1201.9 M2046.6,1162
					c1.1-1.4,1.7-3.5,1.7-6.3c-1-0.8-2.7-1.4-5-1.5c-2,0.1-3.2,0.1-3.6,0.1c0,2.4,0.1,4.1,0.3,5c0.3,1.3,1.1,2.4,2.2,3.4
					L2046.6,1162 M1982.3,1205.4l0.9-4.2c-0.8-1-1.7-1.6-2.7-1.7c-0.9-0.2-2.3-0.1-4.1,0.3c0,2.8,0.6,4.9,1.7,6.3L1982.3,1205.4
					 M1962.7,1235.1c-1.1-2.8-2.8-4.9-5.1-6.3c-2.1,0-3.9,0.7-5.6,2.2c-1.7,1.6-2.6,3.4-2.6,5.5c1.7,1.4,3.9,2.6,6.5,3.5
					C1958.1,1239.5,1960.4,1237.9,1962.7,1235.1 M1815.4,1248.4c1.7-1.4,2.6-3.5,2.6-6.3c-1.8-0.8-3.6-1.4-5.5-1.5
					c-1.7,0.1-2.7,0.1-3.1,0.1l-0.3-0.3c-0.3,0.4-0.5,2-0.5,4.9c0,2.9,0.5,4.3,1.4,4.2c0.3-0.1,0.7-0.5,1.2-1.1H1815.4
					 M1671.2,1192.8c2.3-0.9,3.7-2.1,4.3-3.5c-0.5-1-1.4-2-2.7-2.9c-1.5-0.8-2.8-1.3-4.1-1.3l-1.7,5.2
					C1666.9,1191,1668.3,1191.8,1671.2,1192.8 M1756.2,1201.9c-1.1-2.8-2.8-4.9-5.1-6.3c-3.5,0-5.5,0-5.8,0.1
					c-1.8,0.7-2.7,2.5-2.7,5.5c0,2.9,0.6,4.5,1.9,4.9c0.8,0.3,2.4,0.5,5,0.7C1751.6,1206.3,1753.9,1204.7,1756.2,1201.9
					 M1668.4,1215.9c-0.9-0.2-2.3-0.1-4.1,0.3c0,2.8,0.6,4.9,1.7,6.3l4.3-0.7l0.9-4.2C1670.4,1216.5,1669.5,1216,1668.4,1215.9
					 M805.9,1277.5l0.9-4.2c-0.8-1-1.7-1.6-2.7-1.7c-0.9-0.2-2.3-0.1-4.1,0.3c0,2.8,0.6,4.9,1.7,6.3L805.9,1277.5 M257.7,1210.3
					c-1.1-2.8-2.8-4.9-5.1-6.3c-3.5,0-5.5,0-5.8,0.1c-1.8,0.7-2.7,2.5-2.7,5.5c0,2.9,0.6,4.5,1.9,4.9c0.8,0.3,2.4,0.5,5,0.7
					C253.2,1214.7,255.4,1213.1,257.7,1210.3 M327.7,1178.4l-0.9,1.1h-4.3l-0.9,4.2c0,1.4,0.6,2.8,1.7,4.2c1.7,0,3.1-0.7,4.3-2.1
					c0.6,2.5,0.9,1.4,0.9-3.2C328.5,1179.7,328.2,1178.3,327.7,1178.4 M328.5,1251.2c2.3-0.9,3.7-2.1,4.3-3.5c-0.5-1-1.4-2-2.7-2.9
					c-1.5-0.8-2.8-1.3-4.1-1.3l-1.7,5.3C324.3,1249.4,325.7,1250.2,328.5,1251.2 M681.5,1213.9c1.6,0,3.2-0.5,5-1.5
					c-3.4-2.8-5.7-4.2-6.8-4.2c-0.3,0.3-0.6,0.8-0.9,1.5c-0.5,1.4-0.7,2.3-0.9,2.7C678.8,1213.4,680,1213.9,681.5,1213.9
					 M635.7,1178.1c0.9-2.3,0.6-4.4-0.9-6.3c-1.7,0-2.8,0.2-3.4,0.7c0,0.9,0.2,2.1,0.7,3.5c0.5,1.7,1.1,2.8,1.9,3.5L635.7,1178.1
					 M582.8,1204.7c-1.1-2.8-2.8-4.9-5.1-6.3c-3.5,0-5.5,0-5.8,0.1c-1.8,0.7-2.7,2.5-2.7,5.5c0,2.9,0.6,4.5,1.9,4.9
					c0.8,0.3,2.4,0.5,5,0.7C578.3,1209.1,580.5,1207.5,582.8,1204.7 M1043.1,1206.1l-4.3-4.2c-4.2,0-6.8,2.1-7.7,6.3
					c1.1,1.4,3.1,2.6,6,3.5c1.9-0.7,3.4-1.5,4.3-2.5C1042,1208.5,1042.5,1207.5,1043.1,1206.1 M1135.8,1242.8
					c2.3-0.9,3.7-2.1,4.3-3.5c-0.5-1-1.4-2-2.7-2.9c-1.5-0.8-2.8-1.3-4.1-1.3l-1.7,5.3C1131.5,1241,1132.9,1241.8,1135.8,1242.8
					 M836.3,1225l0.9-4.2c-0.8-1-1.7-1.6-2.7-1.7c-0.9-0.2-2.3-0.1-4.1,0.3c0,2.8,0.6,4.9,1.7,6.3L836.3,1225 M738.1,1227.8l0.9-4.2
					c-0.8-1-1.7-1.6-2.7-1.7c-0.9-0.2-2.3-0.1-4.1,0.3c0,2.8,0.6,4.9,1.7,6.3L738.1,1227.8z"/>
			</g>
		</g>
	</g>
</g>
</svg>
