<svg id="Layer_1" data-name="Layer 1" xmlns="http://www.w3.org/2000/svg" xmlns:xlink="http://www.w3.org/1999/xlink" viewBox="0 0 932.26 919.64"><defs><style>.cls-1{fill:#282626;}.cls-2{fill:url(#linear-gradient);}.cls-3{fill:url(#linear-gradient-2);}.cls-4{fill:#635f5f;}.cls-5{fill:url(#linear-gradient-3);}.cls-6{fill:#fff;}</style><linearGradient id="linear-gradient" x1="118.24" y1="456.85" x2="914" y2="456.85" gradientTransform="translate(950.81 -96.08) rotate(90)" gradientUnits="userSpaceOnUse"><stop offset="0" stop-color="#e51786"/><stop offset="0.27" stop-color="#e9506a"/><stop offset="0.6" stop-color="#f6ae3d"/><stop offset="1" stop-color="#f8e51f"/></linearGradient><linearGradient id="linear-gradient-2" x1="531.33" y1="-27.84" x2="531.33" y2="767.92" gradientTransform="matrix(1, 0, 0, 1, 0, 0)" xlink:href="#linear-gradient"/><linearGradient id="linear-gradient-3" x1="505.5" y1="431.43" x2="505.5" y2="980.71" gradientUnits="userSpaceOnUse"><stop offset="0" stop-color="#e51786"/><stop offset="0.27" stop-color="#e9506a"/><stop offset="0.58" stop-color="#f6ae3d"/><stop offset="1" stop-color="#f8e51f"/></linearGradient></defs><title>543 [Converti]</title><path class="cls-1" d="M530.78,876.16c-301.39,0-503.52-308.13-387-583.55a420,420,0,0,1,807.07,163.5C950.82,687.93,763,876.16,530.78,876.16Z" transform="translate(-36.83 -36.07)"/><circle class="cls-2" cx="493.95" cy="420.04" r="397.88"/><path class="cls-3" d="M133.46,453.19H929.19c0,1,0,2,0,3q0,17.76-1.53,35.13H135C133.82,478.09,133.37,465.64,133.46,453.19Zm11.17-91.07a395.28,395.28,0,0,0-8.21,45.16H926.23a397.46,397.46,0,0,0-8.2-45.16ZM911.06,575.29q4.79-15.25,8.36-31H143.24q3.57,15.75,8.35,31Zm-278.55-504a400.58,400.58,0,0,0-202.37,0ZM176,635.34C241.54,765.08,376,854,531.33,854s289.79-89,355.34-218.7ZM378,88.9a397.81,397.81,0,0,0-107,66.37h520.7a397.81,397.81,0,0,0-107-66.37ZM179,271.05a394.32,394.32,0,0,0-22.86,52.23h750.3a395.64,395.64,0,0,0-22.86-52.23ZM244.92,180a400,400,0,0,0-47.21,59.3H865A399.38,399.38,0,0,0,817.73,180Z" transform="translate(-36.83 -36.07)"/><path class="cls-1" d="M691.81,549s5.48-186.34,45-290.17c0,0-4.69,56.85,17.27,104.2,0,0,17.56-52-5.93-109.69,0,0,30.5,40.88,37.57,74.46l2.12-2.92,0,8.48,5.26-5.38-3.35,16.1s14.93,33.71,16.35,56.77c0,0,28.29-84.14-49.12-152.66,0,0,34.66,13.36,57.53,45.21l3.95-2.65,0,6.92,7.22-6,.05,11.86s26.2,38.1,29.58,56.21c0,0,12.55-66.61-33.41-103.64,0,0-24.8-20-57.41-16.88,0,0,33.9-9.37,69.92,14.52l4.59-5.29-.29,10.87,4.91-7.27,1.7,11.52s25.1,13.73,33.38,22.26c0,0-9.13-53-68.17-65.59,0,0-22.69-4.51-37.67,3.13,0,0,23.79-14.6,53.14-7.48,0,0-14.26-19.71-48.79-5.06,0,0,2.81-35.26-34.79-44,0,0,20.55,26.92,21.31,49.65,0,0-13-41.78-61.19-53.43,0,0-32-7.43-63.87,11.16,0,0,31.36,14,38,19.6l4.25-6.3-.61,9.91,6.9-5-1.62,6.6s33.59-3.44,58.42,22.8c0,0-23.82-21.31-71.22-11.21,0,0-39.81,13-38.66,48.61l30.23-18.92,1.93-10.22,2.34,8.22,3.91-8.91,1.35,6.26s25.31-13,54.33-8.16c0,0-60.6,5.22-62,50.36,0,0,24.25-30.75,62.79-32.24,0,0-66.9,153.3-66.22,303.45Z" transform="translate(-36.83 -36.07)"/><path class="cls-1" d="M669,549.11c0-1.49-23.24-217.66-130.45-335,0,0,26.7,3.51,40.26,13.33l2.62-3.64,4,7.56,3.92-7.59,3,9.21s20.77,3.53,32.32,7.43c0,0-19.32-47.68-90.44-37.15,0,0,16.77-6.34,23.36-6.7l2-6.27,7.94,7.55L570,187.25l9,12.48s39.54-.83,56,3.38c0,0-23.91-41.08-75.94-35.25,0,0-30.29,4.42-43.06,21.94,0,0,17-22.48,30.52-26.82l2-5.61,8.6,6.88,1.94-6.93,4.65,6.24s19.05-12.94,38.81-15c0,0-24.45-14.72-56.36-3s-36.37,45.3-36.37,45.3-8.39-34.23,22.5-51.83c0,0-50.07.88-34.68,53.2,0,0-20.17-15.07-54.05-2.07S410.81,243,410.81,243,434.45,224.1,447,219.76l-1-8.56s6,7.88,5.63,6.89,3.27-4.29,3.27-4.29l2.65,1.63,2.24-12.86,9.59,7.87s25-10,35.54-10.05c0,0-37.53,5.44-53.21,36.81s2.3,72.15,2.3,72.15l12.33-43.88-7-7.54,12.52-.06s-8.59-4.9-7.6-5.24,7.9-2,7.9-2a73.05,73.05,0,0,1,20.95-31.06s-39.66,46.63,32.43,105.28c0,0-16.58-24-14.77-60.55l-4-4.93,9.22-2-10.93-11.81,16.83,3.88s-3.67-10.53-4-15.8c0,0,6.88-9.91,7.86-10.25s101.07,137,110.15,325.89Z" transform="translate(-36.83 -36.07)"/><path class="cls-1" d="M967.54,637.65A52.37,52.37,0,0,0,963,622.26c-7.61-15.09-23-19.24-36.12-14.43a29,29,0,0,0,3.54-13.54c0-25.22-16.74-42.91-26.62-47.83,13.6-34.26,15.6-67.64-9.43-95.35-22.83-25.28-52.33-26.94-74.85-9.54C794.11,461.21,790.94,499,795.32,524c-19-10.8-48.4-8.41-70.09,11.22a102.76,102.76,0,0,0-10.42-7.85c-10-6.67-25-14.62-39.39-14.62a47.67,47.67,0,0,0-21.57,5.39c-15.71-11.13-29.41-8.52-46.17.16-22.18-10.2-46.8-18-59.92,8.37-20.24-13.19-39.35-18.87-59.91-8.53-6.92-4.91-14.11-7.39-21.43-7.39-6.85,0-14.79,2.42-24.73,7.56-21.46-9.88-42.87-16.41-56.77,2.86-20.43-18-44.56-18.47-56.56,7.5-11-14.35-27.89-23.81-41.7-24.23q1.23-6.28,1.89-12.92c6.55-47.22-16.25-88.75-61.64-88.75-58.82,0-179.07,87.11-190,202.34a25.93,25.93,0,0,0-.11,3.18,77.59,77.59,0,0,0,9.3,33.38,70.86,70.86,0,0,0,34,31.73C64,688.59,45.5,714.94,41.47,757.59c-3.16,33.45,2.52,60,16.88,78.87,12.59,16.55,29.84,23.65,41.78,24.78,1.68.16,3.49.24,5.36.24,25.1,0,82.75-15.73,127-62.43a78.11,78.11,0,0,0,19.66,37.81c10,10.78,24.85,20.59,39.29,19.92,20.31-.95,31.19-17.81,34.4-32.13,13.26-44,33.39-65.54,63.12-67.29-8.36,30.47-24.27,92.68-24.27,124.44,0,44,20.85,74.32,63.62,73.9,12.28,0,27.81-7.12,47.3-21.72,10,13.2,24.43,20.73,42.7,20.73,11,0,24.08-5.44,40.82-17.05a75.19,75.19,0,0,0,27.33,6.05,27.35,27.35,0,0,0,18.7-7c22.43,18.49,39.41,16.2,49.6,7.3,9.17,7.61,19.91,11.7,31,11.7,7.39,0,17.63-1.75,32.89-14.22,23.6,19.72,66.79,21.58,99.77-11.39,11-11,22.75-28.09,22.75-43.1,0-.44,0-.89,0-1.4-1-19.81-6.85-31.33-13.18-38,4.45-9.57,5.89-19.84,5.3-26.54-1.33-15.2-10.32-41.35-34.24-50.87,27.65-7.22,43.55-30.09,50.35-52.57A78.69,78.69,0,0,0,871,722.54c.69.06,1.4.08,2.1.08,33.13,0,55.84-12.27,69.06-22.57,16.61-12.95,26.94-29.59,26.94-43.43A130.6,130.6,0,0,0,967.54,637.65Z" transform="translate(-36.83 -36.07)"/><path class="cls-1" d="M808.62,865.32c-2.85-.62-14.65,25-26,41.2-5.84,9.29-12.25,15.93-22.1,11.4a27.36,27.36,0,0,1-11.41-10.29c3.53,3.57,8.63,6.65,13.12,7.43-5.81-10.81-3-38.68-1.6-41.31,1.7-3.26,48.29-19.73,48.29-49.83,0,0-3.26-37.49-37.06-28.4-36.22,9.74-47.19,73.32-46.42,92.31-4.72,4.78-19,18.74-25.12,18.74-7.33,0,21-84.33,21-91.66S694.62,789.24,682,789.24s-24.34,15-24.34,15-11-17-18.66-17-30,15.33-30,15.33-1.67-8.33-4-9.33-16.34-8-24-8c-6.61,0-17.67,74-20.6,103.22a159.18,159.18,0,0,1-14.69,12c-8,6.73-18.38,13.06-29,13.26-6.39-.23-9.86-2-14.25-5.53,5,3.11,9.79,4.24,14.59,3.66-13.51-5.21,24.25-93.13,23.41-107.6-.88-15-15.49-31.59-23.88-31.1-7.79.45-27,52.26-27.56,97.55-4.24,4.61-8.89,9.48-13.79,14.21-17.64,19.11-37.2,34.15-62.5,27.44A32.33,32.33,0,0,1,403.4,908a35.8,35.8,0,0,0,23,3.61c-7.07-14.19,26.06-123,40-175.4,16.14,1.42,33.77,3,51.63,4.56.78-2.69,1.75-5.58,2.92-8.51-19.24-2.07-36.12-4.64-51.68-7.17,2-8.12,3.16-13.77,3-15.89-.88-15-15.48-31.6-23.88-31.11-2.6.16-8.79,15.25-16.09,37.42,8,2.37,16.84,5.1,28.06,8.52-43.67-7-63.3-10.64-94.33-9.19-78.59,3.66-106,59.9-105.39,73,1.22,26.06,24.69,42.89,32,42.55s9.46-11.79,9.46-11.79c17.53-59.17,49.48-87.77,93.35-87.77,4.83,0,16.07.77,31.34,2-15.31,50-32.64,120.35-32.64,149.54,0,49.16,30,46.9,36.62,46.9,10.84,0,38.83-20.31,59-40.3,4.58,39.74,24.74,39.32,31,39.32,7.75,0,24.27-10.39,40.44-23.62,5.22,9.12,21.58,12.62,27.71,12.62,7.33,0,17.33-90.67,19-94.33,1.33-2.92,9.63-13.24,17.16-17.32,5-4.22,10.87-6.89,18.1-6.55a22.73,22.73,0,0,0-11.49,5.76c4.06,9.3-20.44,88.5-20.44,94.77,0,6.67,20.67,24.67,27.67,24.67s16-79.67,28-104a55.26,55.26,0,0,1,9.75-10c5.42-5.48,12.25-9.61,21-9.2a22.73,22.73,0,0,0-11.62,5.87c5.41,5-20.47,70.12-20.47,105.69,0,0,8,16.67,22.67,16.67,10.79,0,29.31-20.54,38.37-31.41,2.67,14.9,9.46,28.75,32.11,31.16,33.88,3.6,57.93-32.66,57.93-41.46C816.7,887.53,815.62,866.82,808.62,865.32Zm-20.79-57.14a35,35,0,0,0-10.46,17.07A7.6,7.6,0,0,1,779.5,831c0,7.66-16.19,20.73-17.32,21.29C768.37,830.37,771.69,817,787.83,808.18ZM263.49,670.44C250.85,804.18,130.72,837.29,105.21,834.88,95.94,834,65,822.51,70.89,760.66S119,681,119,681c25.52,2.41,14.58,47.4,14.58,47.4-45.25,52.46-42.86,75.69-39.8,83.19-7.33-6.72-8.86-25.58-.59-51.75-21.76,57.09,7.75,83.9,46.48,26.28,32-44.77,52.89-128.6,57.78-149.65,9.73-7.35,17.44-11.49,29.33-6.94-18.34-9.82-33.35,5.7-50.16,14.45-15.77,8.76-46.94,12.35-64.41,9.86-44.84-4.23-45.81-45.67-45.81-45.67,10-105.91,125.78-181.55,166.13-177.74s31.77,58.38,31.77,58.38c-6.57,69.58-66.76,70.92-66.76,70.92-29.93-5.17-5.68-22.38-5.68-22.38,49.47-26,52.75-72.25,52.5-86.61,5.84-.22,9.81,7.64,11.34,13.32,2,7.39.9,14.87-.19,22.32a109.85,109.85,0,0,0,2.6-11c2.53-15.33-3.5-25.61-9.55-28.81-3.26-1.61-8.31-1.24-14.08.75C185.72,460.46,122.38,595.5,132.87,608.18c11.2,13.54,73.88,2.3,73.88,2.3C256.23,615.15,265.31,651.11,263.49,670.44Zm676.47-37c-3,0-5,4.34-5,4.34-26,40-55.67,46-55.67,46l0-.23c-10.63,3.24-20.82,2.58-28.38-5.21,8.16,6.87,18.16,6.39,28.13,2-.94-27.69,27-85.61,27-85.61a29.92,29.92,0,0,0-11.67-23.67c-6.58-2.76-13.92-9.73-20.42-17.91,9.22-18.18,15.42-36.25,15.42-51.76,0-26-21.67-44-34.33-44-3.34,0-31.67,1-31.67,49,0,28.44,15.21,49,27.6,61.1-18.2,28.22-46.65,61.93-62.48,78.61l.18,0c-5.19,5.57-23,24.78-30.54,24-7.82,1.76-15.27-1.07-19.3-7.33a15.19,15.19,0,0,0,14.39,3.86c-6.39-10.2-3.45-39.38-2-42.07,1.7-3.26,48.29-19.73,48.29-49.83,0,0-3.26-37.49-37.06-28.4-36,9.69-48.77,74.9-45.94,97.22-6.31,6-15.53,13.83-20.1,13.83-7.33,0,21-84.33,21-91.66S690.62,540.24,678,540.24s-24.34,15-24.34,15-11-17-18.66-17-30,15.33-30,15.33-1.67-8.33-4-9.33-16.34-8-24-8c-6.48,0-17.23,71.11-20.42,101.43-2.83,2.92-19.55,19.9-26.25,19.9-7.33,0,21-84.33,21-91.66S524.62,540.24,512,540.24s-24.34,15-24.34,15-11-17-18.66-17-30,15.33-30,15.33-1.67-8.33-4-9.33-16.34-8-24-8-21.79,103-21.31,113.88c-3.16,2.23-7.47,5.16-11.73,7.68-11.35,10.46-25.31,8.25-31.17-.84a15.09,15.09,0,0,0,15.92,3.37C362.53,645.8,385,570.35,385,564c0-6.85-17.78-28.13-26.33-28.13-5.91,0-17.85,63.09-29.74,98.15-1.89,7.68-4.21,15.86-10.4,21.88-8.26,8.09-18.76,6.89-23.63.54,4.6,4,12.18,4.45,17.68-1.18-20.52-18.34,3-78.16,3-93.79,0-15.86-18.8-29.56-27.35-29.56S266,631.2,266,647.43c0,21.27,35.9,31,48.21,31,8.55,0,17.78-18.75,17.78-18.75s12.31,20.55,28.38,20.55c11.69,0,26.11-14,33.1-21.66,6.65,6.93,20,9.66,25.46,9.66,7.33,0,17.33-90.67,19-94.33,1.22-2.69,8.36-11.65,15.36-16.24,5.18-4.76,11.47-8,19.4-7.63a22.76,22.76,0,0,0-11.16,5.43c4.87,7.59-20.27,88.75-20.27,95.1,0,6.67,20.67,24.67,27.67,24.67,6.44,0,14.57-67.45,25.18-97.18l-.09,0,.26-.43a63.68,63.68,0,0,1,2.65-6.35,58.91,58.91,0,0,1,7.82-8.47c5.84-6.51,13-11.21,22.43-10.76a22.85,22.85,0,0,0-11.41,5.68c6.54,3.06-20.18,69.74-20.18,105.88,0,0,8,16.67,22.67,16.67,10.4,0,28-19.09,37.36-30.21.49,13.32,22.06,18.21,29.31,18.21s17.33-90.67,19-94.33c1.24-2.73,8.54-11.88,15.63-16.41,5.21-4.74,11.4-7.83,19.13-7.46a22.62,22.62,0,0,0-11.15,5.45c4.82,7.68-20.28,88.73-20.28,95.08,0,6.67,20.67,24.67,27.67,24.67,6.44,0,14.57-67.45,25.18-97.18l-.1,0,.27-.43a63.68,63.68,0,0,1,2.65-6.35,58.53,58.53,0,0,1,7.69-8.35c5.93-6.71,13-11.33,22.56-10.88a22.79,22.79,0,0,0-11.4,5.69c6.51,3.1-20.19,69.74-20.19,105.87,0,0,8,16.67,22.67,16.67,9.25,0,24.2-15.11,34-26.28,3.35,12.83,11,23.9,31,26,34.63,3.68,92.93-74.26,111.55-103.86,3.52,2.66,5.8,4,5.8,4s-29.33,47.67-29.33,80.33,38.33,35.67,38.33,35.67c47,0,69-31.33,69-39S943,633.48,940,633.48Zm-162.46-72a35.5,35.5,0,0,0-9.75,14.64A7.48,7.48,0,0,1,770,582c0,7.66-16.19,20.73-17.32,21.29C757.81,585.11,760.81,570.61,777.5,561.52Zm80.63-34.65a27,27,0,0,1-2.17-9c0-15.34,5-23,8.33-23s13.6,3,10,22.33a97.46,97.46,0,0,1-7.73,22.58,52.37,52.37,0,0,0,7,13.19C864.72,544.75,860.55,537.09,858.13,526.87ZM793.25,744.93c-31.24,6.93-93.84,5.71-142.58,5.31-16.4-.13-47.95-2.38-83.5-5.31,1-3,1.92-6.08,2.66-9.08,67.84,2.85,174.43,0,231.29-36.67,0,0,19.42-12.92,25.42-13.2S828.29,737.15,793.25,744.93Zm-268.58,8.4c-.15-6.63,10.46-43.6,27.45-39.1s8.51,19.49,4,36.18C545.69,789.21,524.85,761.45,524.67,753.33Z" transform="translate(-36.83 -36.07)"/><path class="cls-4" d="M462.6,686c6.29,6.08,12,15.91,12.58,25.15.09,1.57-.52,5.06-1.65,10.05-.73,3.23-.32,6,1,6.23,3.5.56,5.25-12.3,5.14-14.28C478.42,691.61,454.48,678.14,462.6,686Z" transform="translate(-36.83 -36.07)"/><path class="cls-4" d="M395.81,667.83c5.18-5.08,2.35-8.84-3.57-2.92-8.21,8.21-20.84,19-32.27,17-3.16-.55,2.11,2.29,7.82,2.29C377.11,684.22,388.17,675.31,395.81,667.83Z" transform="translate(-36.83 -36.07)"/><path class="cls-4" d="M525.68,684.22c8.18,0,20.82-11.82,30.4-22.28,4.33-4.73,4.06-11.65-1.46-5.38-9.79,11.1-24.36,25.67-33.44,25.67a18.06,18.06,0,0,1-2.88-.23C515.64,681.59,520,684.22,525.68,684.22Z" transform="translate(-36.83 -36.07)"/><path class="cls-4" d="M334.93,671.31c3.75-5.6,1.6-11.83-3-4.41-3.4,5.55-9.27,13.52-14.84,13.52-10.4,0-27.41-6.53-18.88-3.21,9,3.52,18.25,5.21,23.38,5.21C326.44,682.42,331.46,676.49,334.93,671.31Z" transform="translate(-36.83 -36.07)"/><path class="cls-4" d="M530.71,781.11c6.29,6.09,12,15.92,12.57,25.15.75,12.77-28.6,82.8-26.18,102.61.4,3.29.78,5.28-1.66,5-5.69-.6,1.91,1.73,3.58,1.82,4.48.24,2.87-.34,2.5-5.81-1.43-21,27-89.07,26.26-101.64C546.53,786.73,522.59,773.27,530.71,781.11Z" transform="translate(-36.83 -36.07)"/><path class="cls-4" d="M565.74,721.08c-2.62-2-2.8-1.19-1.5,1.85,3,7-2.09,17.85-5.22,29.47s-7.09,17.13-11.2,19.19c-3,1.49-3.6,2.57-.3,2.9,11.4,1.14,15.45-18.67,17.84-26.34C569,736.6,572.69,726.51,565.74,721.08Z" transform="translate(-36.83 -36.07)"/><path class="cls-4" d="M415.57,914a39.37,39.37,0,0,0,18.1,1.55,26.34,26.34,0,0,1-.87-5.89c-.37-26.06,26.08-114.52,39.41-163.73a7.41,7.41,0,0,1,7.53-5.27l39.68,3.52c3.3.29,6.52-1.42,7.33-3.77,2-6-3.29-5.59-4.74-1.27-.66,2-3.79,3.33-7.09,3l-39.68-3.52a7.42,7.42,0,0,0-7.53,5.27c-13.33,49.22-39.78,137.68-39.41,163.73.05,3.32-1.68,6.36-5,6.4a34.12,34.12,0,0,1-11.49-1.8c-8.06-2.7,2.63,2,.38.55C411.41,912.34,412.86,913,415.57,914Z" transform="translate(-36.83 -36.07)"/><path class="cls-4" d="M507.8,911.59c-1.42-.7-.89,0,1.37,1.35C511.68,914.42,515.1,915.17,507.8,911.59Z" transform="translate(-36.83 -36.07)"/><path class="cls-4" d="M860.45,583.16C839,615.67,785,685.46,752.16,682a51.62,51.62,0,0,1-5.55-.88c-6.14-1.33,1.29,1.95,10,2.88,32.54,3.47,86-65.13,107.74-98C868.63,579.61,865,576.32,860.45,583.16Z" transform="translate(-36.83 -36.07)"/><path class="cls-4" d="M413,669c-8-2,5.26,3.26,13.32,3.26,7.34,0,17.34-90.66,19-94.33,1-2.08,5.42-7.89,10.64-12.55,2.47-2.2,5.59-4.49,6.72-5.39s2.07-1.78,2-2,1.76-2.34,4.73-3.82l.51-.25c6.49-3-2.92-1.69-9,2.15-9.5,6-18.38,16.1-20.11,19.9s-11.66,94.34-19,94.34A40.34,40.34,0,0,1,413,669Z" transform="translate(-36.83 -36.07)"/><path class="cls-4" d="M352.24,661c-1.55-1-1.19.35,1.48,2.32C356.77,665.55,361,666.47,352.24,661Z" transform="translate(-36.83 -36.07)"/><path class="cls-4" d="M579,669c-8-2,5.25,3.26,13.3,3.26,7.34,0,17.34-90.66,19-94.33,1-2.11,5.56-8.07,10.88-12.76,2.48-2.19,5.56-4.39,6.63-5.24s1.93-1.68,1.83-1.95,1.76-2.35,4.72-3.84c7.4-3.72-2.82-1.59-8.16,1.74-10,6.23-18.73,16.38-20.4,20s-11.66,94.34-19,94.34A40,40,0,0,1,579,669Z" transform="translate(-36.83 -36.07)"/><path class="cls-4" d="M757.21,599.53c-.92,3.18-.05,4.64,1.79,3.07s4-5.51,5-8.67c3-9.64,3.43-9.88,5.95-14.14,1.4-2.36,1.54-5.83,6.39-11.89,4.62-5.77-3.91.14-8.54,6.32C762.31,581.5,760.83,587,757.21,599.53Z" transform="translate(-36.83 -36.07)"/><path class="cls-4" d="M724.18,816.89c0,7.34-28.34,91.67-21,91.67,2.15,0,2.84-.44,3.87-6.86,3.51-21.84,21.63-76.94,21.63-82.81,0-4.93-12.07-14.84-23.82-20.8C694.26,792.72,724.18,808.32,724.18,816.89Z" transform="translate(-36.83 -36.07)"/><path class="cls-4" d="M658.43,799.58c-7.12-8.11-10.33-8.05-6.71-4.38a68.63,68.63,0,0,1,5.3,6.15C662.78,808.83,662.54,804.27,658.43,799.58Z" transform="translate(-36.83 -36.07)"/><path class="cls-4" d="M801.72,802.92c8.82,8.8,10.06,23,10.06,23,0,30.1-46.59,46.58-48.3,49.84-1.17,2.25-3.41,23-.4,35.67.76,3.22,1.49,5.55.86,5.38s.28.51,2.15,1.25,2.25-1.41,1.49-4.63c-3-12.71-.77-33.42.4-35.67,1.71-3.27,48.3-19.74,48.3-49.84,0,0-1.58-18.09-13.88-26.09C799.62,800,799.37,800.58,801.72,802.92Z" transform="translate(-36.83 -36.07)"/><path class="cls-4" d="M691.68,684.22c7.25,0,18-9.3,27-18.7,5.11-5.32,4-11.15-1.57-5.11-9.53,10.34-21.91,21.82-30,21.82a18.06,18.06,0,0,1-2.88-.23C681.64,681.59,686,684.22,691.68,684.22Z" transform="translate(-36.83 -36.07)"/><path class="cls-4" d="M304,662.2a26.34,26.34,0,0,0-3.81-2.16c-1.4-.73-1.16.08.94,1.4S304.62,662.78,304,662.2Z" transform="translate(-36.83 -36.07)"/><path class="cls-4" d="M773.42,843c2.61-8.43,8.14-22,13.22-28.39,2.07-2.59,1.68-3.16-1-1.19-10.65,7.87-14.35,18.92-19,35.15C764.71,855.51,770.61,852,773.42,843Z" transform="translate(-36.83 -36.07)"/><path class="cls-4" d="M862.67,534.62c4,11.5,14.75,22.66,10.5,15.23-5.81-10.17-9.83-24.36-9.83-28.05,0-13.26,4.09-23.45,9-23,.36,0-.47-.83-2.08-1.43a8.9,8.9,0,0,0-3.05-.61c-3.34,0-8.34,7.67-8.34,23C858.84,523.27,861.55,531.36,862.67,534.62Z" transform="translate(-36.83 -36.07)"/><path class="cls-4" d="M471,677.15c-1-.18,3,2.07,5.34,2.07,6.06,0,13.61-59.63,23.31-91.47,1-3.17,1.85-5.71,1.83-5.72s1.45-3.65,1.46-3.67c2.09-5.08,8.52-11.32,12.61-15,2-1.78,3.69-3.17,3.52-3.38s1.57-2.21,4.51-3.74l.82-.4c3-1.41,3-2.05-.27-1.41-8.18,1.62-13.95,7.16-20.59,14.38-4.63,5-6.06,9.31-8.39,17C484.52,620.64,478.32,678.4,471,677.15Z" transform="translate(-36.83 -36.07)"/><path class="cls-4" d="M637,677.15c-1-.18,3,2.07,5.34,2.07,6.73,0,15.28-73.41,26.6-100.86a31.83,31.83,0,0,1,5-7.5c2.12-2.31,5.48-5.66,7.48-7.48s3.75-3.23,3.58-3.42,1.6-2.19,4.54-3.72c.26-.15.54-.28.81-.41,3-1.41,3-2.05-.27-1.42a26.42,26.42,0,0,0-12.34,6.24c-4.07,3.49-11.25,10.62-13.35,15.71C652.22,606,645.11,678.53,637,677.15Z" transform="translate(-36.83 -36.07)"/><path class="cls-4" d="M423.73,734.29c-12.22-1-21.18-1.53-25.35-1.53-74.92,0-90.46,83.63-95.28,93.43-1.45,2.94-3.83,6-7.53,6.13a6.15,6.15,0,0,1-1.37-.11c-.74-.13.15.58,2.13,1.33,10.68,4,12.71-9.75,15-16.74,17.86-55.29,49.15-82,91.58-82,3.58,0,10.69.42,20.36,1.15C431.38,736.51,431.52,734.9,423.73,734.29Z" transform="translate(-36.83 -36.07)"/><path class="cls-4" d="M488.41,895.08c-19.7,18.54-44.63,36.13-54.71,36.13a51.29,51.29,0,0,1-8.51-.42c-3.28-.48-3.47,0-.3.93a42,42,0,0,0,13.31,1.49c9.44,0,31.92-15.43,50.92-32.63,2.45-2.23,4.18-5.33,4-6.87S490.82,892.8,488.41,895.08Z" transform="translate(-36.83 -36.07)"/><path class="cls-4" d="M559.46,910.35c-14.6,11.4-28.76,19.87-35.76,19.87A37.07,37.07,0,0,1,519,930c-4.49-.53.26,2.21,9.19,2.21,6.71,0,20-7.79,33.95-18.47,2.63-2,4-4.38,3.23-5.33S562.07,908.32,559.46,910.35Z" transform="translate(-36.83 -36.07)"/><path class="cls-4" d="M135.76,610.17a11.28,11.28,0,0,0,3.27,2.6c2,1.12,3.2,1.23,2.46.62a8.93,8.93,0,0,1-1.23-1.23c-10.41-12.58,54.32-153.73,107.17-162.38,4.7-.77,6.09-.18,4-1.29-3.26-1.61-8.3-1.24-14.08.74C188.61,462.45,125.27,597.48,135.76,610.17Z" transform="translate(-36.83 -36.07)"/><path class="cls-4" d="M242.26,622.65c21.07,13.27,25.43,35.84,24.11,49.77-12.62,133.61-136.13,170-161.2,163.94-1.59-.39-.71.35,2.14,1.31,22.89,7.73,150.61-26.15,163.56-163.25,1.4-14.82-3.62-39.44-28.38-52.21C239.54,620.69,239.46,620.89,242.26,622.65Z" transform="translate(-36.83 -36.07)"/><path class="cls-4" d="M633.68,808.64c.66-.51,1.17-1.11,1.1-1.38s1.78-2.4,4.71-4l.92-.46c6.2-2.92-2.15-1.69-7.49,1.3-11.5,6.42-20.39,17-22.08,20.74s-11.66,94.34-19,94.34A40.41,40.41,0,0,1,583,918c-8-2,5.26,3.26,13.34,3.26,7.34,0,17.34-90.66,19-94.33,1-2.28,6.36-9.1,12.23-13.91C630.14,810.88,633,809.14,633.68,808.64Z" transform="translate(-36.83 -36.07)"/><path class="cls-4" d="M880.65,547.13c-1.37,3-2,6.43-1.2,7.63s.67,1.43-.25.52c-2.21-2.2-3.66-1.15,1.41,4.54A66.16,66.16,0,0,0,892,570.2c4.62,3.19,13.56,7,16.31,20.64.65,3.25-.57,8.39-1.94,11.4C900,616.05,884.09,653,882.08,676.42c-.28,3.3-2.63,7.13-5.83,8a29.78,29.78,0,0,1-9,1.15c-3.31-.12-4.3,0-2.13.76,2.78,1,5.61,1.49,11.16.6,3.27-.53,5.84-1.32,5.84-1.26a3.51,3.51,0,0,0,1.31-.22,13.73,13.73,0,0,0,2.11-.71c.45-.19.72-3,1-6.34,2-23.41,18-60.37,24.24-74.18,1.37-3,2.59-8.15,1.94-11.4-2.79-13.82-12.4-17.94-16.3-20.63a66.32,66.32,0,0,1-11.35-10.39c-2.2-2.48-2.63-7-1.21-10,7.75-16.34,12.78-32.39,12.78-46.37,0-32.13-32.34-46.51-23.26-39.6a47.83,47.83,0,0,1,18.76,37.6C892.18,516.67,887.68,531.73,880.65,547.13Z" transform="translate(-36.83 -36.07)"/><path class="cls-4" d="M831.66,696.54c-.52,14.91-9.58,44.61-35.53,50.37-31.24,6.94-93.83,5.71-142.57,5.32-14.69-.12-41.53-1.94-72.52-4.42-8-.64-8.38,1-.5,1.6,33.08,2.68,62,4.69,77.52,4.82,48.74.39,111.33,1.62,142.57-5.32,35-7.77,39.29-59.22,33.29-58.94C832,690.06,831.89,689.9,831.66,696.54Z" transform="translate(-36.83 -36.07)"/><path class="cls-4" d="M817.26,875.39a70.21,70.21,0,0,1,2.33,14.12c0,9-26,48.68-63.46,40.59-6.11-1.32,1.31,1.95,10,2.87,33.88,3.61,57.93-32.65,57.93-41.46,0,0-1.08-20.71-8.08-22.21C814.5,869,815.92,870.93,817.26,875.39Z" transform="translate(-36.83 -36.07)"/><path class="cls-4" d="M946.07,637.73c-.67.28-.33,3.25.2,6.52a104,104,0,0,1,1.24,14.89c0,7.66-22,39-69,39a54.58,54.58,0,0,1-9.06-1.75c-3.19-.88-3.3-.64-.19.5A57.5,57.5,0,0,0,883,700.14c47,0,69-31.34,69-39s-1.67-23.67-4.67-23.67A3.39,3.39,0,0,0,946.07,637.73Z" transform="translate(-36.83 -36.07)"/><path class="cls-4" d="M686.66,811.81c1.48-1.26,2.72-2.35,2.6-2.57s1.64-2.31,4.56-3.88q.52-.29,1.08-.54c6.71-3.15-3.71-1.79-10.79,3.43a91,91,0,0,0-10.41,9.38C657.63,835,650.33,927.74,641,926.15c-1-.18,3,2.07,5.34,2.07,6.54,0,14.82-69.46,25.66-98.47a35.17,35.17,0,0,1,7.6-11.58C681.94,815.82,685.19,813.06,686.66,811.81Z" transform="translate(-36.83 -36.07)"/><path class="cls-4" d="M614.16,799.52c-1.08-2.26-1.3-2.07-5.27-3.87-3.28-1.49-2.92-1.23-1-.42,1,.44,2,2.35,2.64,4.33C613.12,807.14,615.34,802,614.16,799.52Z" transform="translate(-36.83 -36.07)"/><path class="cls-4" d="M99.81,809.71c-1-10.81,3.84-32.89,37.24-72.79a25.72,25.72,0,0,0,5-10.46c1.6-10.1,3.29-30.4-7.14-38.33-2.63-2-3-1.14-1.09,1.56,6.6,9.35,5.13,25.95,3.73,34.77a25.72,25.72,0,0,1-5,10.46c-14.25,17-44,55.73-34.83,75.73C99.1,813.66,100.1,813,99.81,809.71Z" transform="translate(-36.83 -36.07)"/><path class="cls-4" d="M725.65,904.38c-9.76,11.21-25.06,26.85-34.47,26.85a18.06,18.06,0,0,1-2.88-.23c-2.66-.41,1.72,2.22,7.38,2.22,8.41,0,21.52-12.48,31.18-23.14C731.84,904.59,731,898.22,725.65,904.38Z" transform="translate(-36.83 -36.07)"/><path class="cls-4" d="M609.53,554.42c2.19-1.45.28-5.57-1.19-6.2-2.47-1.06-8.73-3.81-4.5-2C606.28,547.27,607.39,555.85,609.53,554.42Z" transform="translate(-36.83 -36.07)"/><path class="cls-4" d="M533.18,659.56c2.16,0,2.84-.47,3.87-6.86,3.51-21.85,21.63-76.94,21.63-82.81,0-4.93-12.07-14.84-23.82-20.8-10.6-5.37,19.32,10.23,19.32,18.8C554.18,575.23,525.84,659.56,533.18,659.56Z" transform="translate(-36.83 -36.07)"/><path class="cls-4" d="M488.43,550.58c-7.12-8.11-10.33-8.05-6.71-4.38a68.63,68.63,0,0,1,5.3,6.15C492.78,559.83,492.54,555.27,488.43,550.58Z" transform="translate(-36.83 -36.07)"/><path class="cls-4" d="M648.52,544.9c-2.64-2-3.13-1.06-.8,1.3a68.63,68.63,0,0,1,5.3,6.15C660.25,561.74,658.55,552.49,648.52,544.9Z" transform="translate(-36.83 -36.07)"/><path class="cls-4" d="M754,626.74c-1.2,2.3-3.52,23.91-.19,36.52.84,3.21.57,6-1.54,6s-1.51,1.15,1.75,1.75c4.1.76,5.09-2.74,4.29-5.77-3.33-12.61-1-34.22.19-36.52,1.71-3.27,48.3-19.74,48.3-49.84,0,0-1.58-18.09-13.88-26.09-2.78-1.8-3-1.23-.68,1.11,8.82,8.8,10.06,23,10.06,23C802.28,607,755.69,623.48,754,626.74Z" transform="translate(-36.83 -36.07)"/><path class="cls-4" d="M699.18,659.56c2.16,0,2.85-.48,3.87-6.87,3.51-21.84,21.63-76.93,21.63-82.8,0-4.93-12.07-14.84-23.82-20.8-10.6-5.37,19.32,10.23,19.32,18.8C720.18,575.23,691.84,659.56,699.18,659.56Z" transform="translate(-36.83 -36.07)"/><path class="cls-4" d="M366.13,656.35c-.5,3.28-2.53,6.75-5.07,6.9-3.53.21-1.19,1.88,3.11,2,3.31.11,6-3.65,6.46-6.92,3.51-22.8,21.75-84.64,21.75-90.37,0-5.33-10.78-19.41-19.59-25.38-2.74-1.85-3.1-1.14-.6,1,7.8,6.81,15.69,17.78,15.69,22.34C387.88,571.71,369.64,633.55,366.13,656.35Z" transform="translate(-36.83 -36.07)"/><path class="cls-4" d="M443.53,554.42c2.19-1.45.28-5.57-1.19-6.2-2.47-1.06-8.73-3.81-4.5-2C440.28,547.27,441.39,555.85,443.53,554.42Z" transform="translate(-36.83 -36.07)"/><path class="cls-4" d="M206.36,561a29.86,29.86,0,0,1-9.23,0c-3.68-.87,3.94,3.58,13.73,2,15.37-2.44,55.5-14.19,60.8-70.27,0,0,6.28-40-17.23-53.89-2.85-1.68-3-1.29-.48.85,18.74,15.83,13.21,51,13.21,51C261.86,546.84,221.73,558.59,206.36,561Z" transform="translate(-36.83 -36.07)"/><path class="cls-4" d="M104.67,654c-7.5-2,3.6,2.74,14.9,3.81,17.46,2.49,48.63-1.11,64.41-9.87,4.4-2.28,8.67-5,12.91-7.67,9.82-6.11,16.34-12.11,27-10.37,3.27.53,3.42.23.23-.66-15.9-4.45-29.54,8.86-44.62,16.7C163.14,655,126.9,659.83,104.67,654Z" transform="translate(-36.83 -36.07)"/><path class="cls-4" d="M311.67,652.63c1.72,2.84,1.95,6.74-1.14,8-2.57,1-6.77,1.38-3.89,2.28a15,15,0,0,0,8.86-.85c2.64-1.2,2.36-4.58.65-7.42C302.76,632.4,323,579.94,323,565.46c0-19.16-26.88-32.12-18.25-25.51,7.16,5.48,13.75,14.11,13.75,23.51C318.47,578,298.24,630.46,311.67,652.63Z" transform="translate(-36.83 -36.07)"/><path class="cls-5" d="M808.62,865.32c-2.85-.62-14.65,25-26,41.2-5.84,9.29-12.25,15.93-22.1,11.4a27.36,27.36,0,0,1-11.41-10.29c3.53,3.57,8.63,6.65,13.12,7.43-5.81-10.81-3-38.68-1.6-41.31,1.7-3.26,48.29-19.73,48.29-49.83,0,0-3.26-37.49-37.06-28.4-36.22,9.74-47.19,73.32-46.42,92.31-4.72,4.78-19,18.74-25.12,18.74-7.33,0,21-84.33,21-91.66S694.62,789.24,682,789.24s-24.34,15-24.34,15-11-17-18.66-17-30,15.33-30,15.33-1.67-8.33-4-9.33-16.34-8-24-8c-6.61,0-17.67,74-20.6,103.22a159.18,159.18,0,0,1-14.69,12c-8,6.73-18.38,13.06-29,13.26-6.39-.23-9.86-2-14.25-5.53,5,3.11,9.79,4.24,14.59,3.66-13.51-5.21,24.25-93.13,23.41-107.6-.88-15-15.49-31.59-23.88-31.1-7.79.45-27,52.26-27.56,97.55-4.24,4.61-8.89,9.48-13.79,14.21-17.64,19.11-37.2,34.15-62.5,27.44A32.33,32.33,0,0,1,403.4,908a35.8,35.8,0,0,0,23,3.61c-7.07-14.19,26.06-123,40-175.4,16.14,1.42,33.77,3,51.63,4.56.78-2.69,1.75-5.58,2.92-8.51-19.24-2.07-36.12-4.64-51.68-7.17,2-8.12,3.16-13.77,3-15.89-.88-15-15.48-31.6-23.88-31.11-2.6.16-8.79,15.25-16.09,37.42,8,2.37,16.84,5.1,28.06,8.52-43.67-7-63.3-10.64-94.33-9.19-78.59,3.66-106,59.9-105.39,73,1.22,26.06,24.69,42.89,32,42.55s9.46-11.79,9.46-11.79c17.53-59.17,49.48-87.77,93.35-87.77,4.83,0,16.07.77,31.34,2-15.31,50-32.64,120.35-32.64,149.54,0,49.16,30,46.9,36.62,46.9,10.84,0,38.83-20.31,59-40.3,4.58,39.74,24.74,39.32,31,39.32,7.75,0,24.27-10.39,40.44-23.62,5.22,9.12,21.58,12.62,27.71,12.62,7.33,0,17.33-90.67,19-94.33,1.33-2.92,9.63-13.24,17.16-17.32,5-4.22,10.87-6.89,18.1-6.55a22.73,22.73,0,0,0-11.49,5.76c4.06,9.3-20.44,88.5-20.44,94.77,0,6.67,20.67,24.67,27.67,24.67s16-79.67,28-104a55.26,55.26,0,0,1,9.75-10c5.42-5.48,12.25-9.61,21-9.2a22.73,22.73,0,0,0-11.62,5.87c5.41,5-20.47,70.12-20.47,105.69,0,0,8,16.67,22.67,16.67,10.79,0,29.31-20.54,38.37-31.41,2.67,14.9,9.46,28.75,32.11,31.16,33.88,3.6,57.93-32.66,57.93-41.46C816.7,887.53,815.62,866.82,808.62,865.32Zm-20.79-57.14a35,35,0,0,0-10.46,17.07A7.6,7.6,0,0,1,779.5,831c0,7.66-16.19,20.73-17.32,21.29C768.37,830.37,771.69,817,787.83,808.18ZM263.49,670.44C250.85,804.18,130.72,837.29,105.21,834.88,95.94,834,65,822.51,70.89,760.66S119,681,119,681c25.52,2.41,14.58,47.4,14.58,47.4-45.25,52.46-42.86,75.69-39.8,83.19-7.33-6.72-8.86-25.58-.59-51.75-21.76,57.09,7.75,83.9,46.48,26.28,32-44.77,52.89-128.6,57.78-149.65,9.73-7.35,17.44-11.49,29.33-6.94-18.34-9.82-33.35,5.7-50.16,14.45-15.77,8.76-46.94,12.35-64.41,9.86-44.84-4.23-45.81-45.67-45.81-45.67,10-105.91,125.78-181.55,166.13-177.74s31.77,58.38,31.77,58.38c-6.57,69.58-66.76,70.92-66.76,70.92-29.93-5.17-5.68-22.38-5.68-22.38,49.47-26,52.75-72.25,52.5-86.61,5.84-.22,9.81,7.64,11.34,13.32,2,7.39.9,14.87-.19,22.32a109.85,109.85,0,0,0,2.6-11c2.53-15.33-3.5-25.61-9.55-28.81-3.26-1.61-8.31-1.24-14.08.75C185.72,460.46,122.38,595.5,132.87,608.18c11.2,13.54,73.88,2.3,73.88,2.3C256.23,615.15,265.31,651.11,263.49,670.44Zm676.47-37c-3,0-5,4.34-5,4.34-26,40-55.67,46-55.67,46l0-.23c-10.63,3.24-20.82,2.58-28.38-5.21,8.16,6.87,18.16,6.39,28.13,2-.94-27.69,27-85.61,27-85.61a29.92,29.92,0,0,0-11.67-23.67c-6.58-2.76-13.92-9.73-20.42-17.91,9.22-18.18,15.42-36.25,15.42-51.76,0-26-21.67-44-34.33-44-3.34,0-31.67,1-31.67,49,0,28.44,15.21,49,27.6,61.1-18.2,28.22-46.65,61.93-62.48,78.61l.18,0c-5.19,5.57-23,24.78-30.54,24-7.82,1.76-15.27-1.07-19.3-7.33a15.19,15.19,0,0,0,14.39,3.86c-6.39-10.2-3.45-39.38-2-42.07,1.7-3.26,48.29-19.73,48.29-49.83,0,0-3.26-37.49-37.06-28.4-36,9.69-48.77,74.9-45.94,97.22-6.31,6-15.53,13.83-20.1,13.83-7.33,0,21-84.33,21-91.66S690.62,540.24,678,540.24s-24.34,15-24.34,15-11-17-18.66-17-30,15.33-30,15.33-1.67-8.33-4-9.33-16.34-8-24-8c-6.48,0-17.23,71.11-20.42,101.43-2.83,2.92-19.55,19.9-26.25,19.9-7.33,0,21-84.33,21-91.66S524.62,540.24,512,540.24s-24.34,15-24.34,15-11-17-18.66-17-30,15.33-30,15.33-1.67-8.33-4-9.33-16.34-8-24-8-21.79,103-21.31,113.88c-3.16,2.23-7.47,5.16-11.73,7.68-11.35,10.46-25.31,8.25-31.17-.84a15.09,15.09,0,0,0,15.92,3.37C362.53,645.8,385,570.35,385,564c0-6.85-17.78-28.13-26.33-28.13-5.91,0-17.85,63.09-29.74,98.15-1.89,7.68-4.21,15.86-10.4,21.88-8.26,8.09-18.76,6.89-23.63.54,4.6,4,12.18,4.45,17.68-1.18-20.52-18.34,3-78.16,3-93.79,0-15.86-18.8-29.56-27.35-29.56S266,631.2,266,647.43c0,21.27,35.9,31,48.21,31,8.55,0,17.78-18.75,17.78-18.75s12.31,20.55,28.38,20.55c11.69,0,26.11-14,33.1-21.66,6.65,6.93,20,9.66,25.46,9.66,7.33,0,17.33-90.67,19-94.33,1.22-2.69,8.36-11.65,15.36-16.24,5.18-4.76,11.47-8,19.4-7.63a22.76,22.76,0,0,0-11.16,5.43c4.87,7.59-20.27,88.75-20.27,95.1,0,6.67,20.67,24.67,27.67,24.67,6.44,0,14.57-67.45,25.18-97.18l-.09,0,.26-.43a63.68,63.68,0,0,1,2.65-6.35,58.91,58.91,0,0,1,7.82-8.47c5.84-6.51,13-11.21,22.43-10.76a22.85,22.85,0,0,0-11.41,5.68c6.54,3.06-20.18,69.74-20.18,105.88,0,0,8,16.67,22.67,16.67,10.4,0,28-19.09,37.36-30.21.49,13.32,22.06,18.21,29.31,18.21s17.33-90.67,19-94.33c1.24-2.73,8.54-11.88,15.63-16.41,5.21-4.74,11.4-7.83,19.13-7.46a22.62,22.62,0,0,0-11.15,5.45c4.82,7.68-20.28,88.73-20.28,95.08,0,6.67,20.67,24.67,27.67,24.67,6.44,0,14.57-67.45,25.18-97.18l-.1,0,.27-.43a63.68,63.68,0,0,1,2.65-6.35,58.53,58.53,0,0,1,7.69-8.35c5.93-6.71,13-11.33,22.56-10.88a22.79,22.79,0,0,0-11.4,5.69c6.51,3.1-20.19,69.74-20.19,105.87,0,0,8,16.67,22.67,16.67,9.25,0,24.2-15.11,34-26.28,3.35,12.83,11,23.9,31,26,34.63,3.68,92.93-74.26,111.55-103.86,3.52,2.66,5.8,4,5.8,4s-29.33,47.67-29.33,80.33,38.33,35.67,38.33,35.67c47,0,69-31.33,69-39S943,633.48,940,633.48Zm-162.46-72a35.5,35.5,0,0,0-9.75,14.64A7.48,7.48,0,0,1,770,582c0,7.66-16.19,20.73-17.32,21.29C757.81,585.11,760.81,570.61,777.5,561.52Zm80.63-34.65a27,27,0,0,1-2.17-9c0-15.34,5-23,8.33-23s13.6,3,10,22.33a97.46,97.46,0,0,1-7.73,22.58,52.37,52.37,0,0,0,7,13.19C864.72,544.75,860.55,537.09,858.13,526.87ZM793.25,744.93c-31.24,6.93-93.84,5.71-142.58,5.31-16.4-.13-47.95-2.38-83.5-5.31,1-3,1.92-6.08,2.66-9.08,67.84,2.85,174.43,0,231.29-36.67,0,0,19.42-12.92,25.42-13.2S828.29,737.15,793.25,744.93Zm-268.58,8.4c-.15-6.63,10.46-43.6,27.45-39.1s8.51,19.49,4,36.18C545.69,789.21,524.85,761.45,524.67,753.33Z" transform="translate(-36.83 -36.07)"/><path class="cls-6" d="M83.65,573.52c17.84-68.95,91.8-128.67,131.33-135.09C184.92,450.94,116.75,510.78,83.65,573.52Z" transform="translate(-36.83 -36.07)"/><path class="cls-6" d="M207.58,545.32a28,28,0,0,1,3-4.49c1-1,2-2.54,3.31-3.54s2.7-2.16,4-3.33c1.58-.81,3.13-1.68,4.57-2.54s3.21-1.19,4.5-1.8a27.13,27.13,0,0,1,5.28-1.13c-1,6.84-3.9,9.54-8.72,13.72-7.48,3.91-7,3-10.45,3.62a16.4,16.4,0,0,1-3.93-.15Z" transform="translate(-36.83 -36.07)"/><path class="cls-6" d="M86.54,744.36c-3.58-17.32,7-36.63,23.19-43C105.66,713,93.13,735.69,86.54,744.36Z" transform="translate(-36.83 -36.07)"/><path class="cls-6" d="M152.19,807.28c4.91-4.59,54.06-46,58-49-6.49,18-18.37,30-34.6,40.32A79.53,79.53,0,0,1,164.18,804,58.56,58.56,0,0,1,152.19,807.28Z" transform="translate(-36.83 -36.07)"/><path class="cls-6" d="M220,746.74c.74-12.22,8.49-25.75,19.21-32.48C240.12,727.36,231.88,741.22,220,746.74Z" transform="translate(-36.83 -36.07)"/><path class="cls-6" d="M298.63,548.3c9.72,3.31,13.68,16.37,7.41,24.51-1.08-3.71-3.17-12.79-4.68-16.57C301.33,556.17,299.1,549.78,298.63,548.3Z" transform="translate(-36.83 -36.07)"/><path class="cls-6" d="M421.15,546.66c8.81,3.12,9.85,14.32,6.76,19a9.42,9.42,0,0,1-1.46,1.88A137.22,137.22,0,0,1,421.15,546.66Z" transform="translate(-36.83 -36.07)"/><path class="cls-6" d="M533.82,560.92a7.58,7.58,0,0,1,2.22-.16,9.8,9.8,0,0,1,4.87,2,11.47,11.47,0,0,1,4.22,7.39,9.68,9.68,0,0,1-.76,5.2,8.18,8.18,0,0,1-1.27,1.83s-.18-.35-.49-.91c-.07-.21-.88-1.63-1.09-2.1-.28-.83-1-1.64-1.38-2.55a15.12,15.12,0,0,0-1.56-2.64,14.8,14.8,0,0,0-1.48-2.68c-.59-.76-.92-1.82-1.48-2.49-.31-.42-1.11-1.84-1.26-2C534,561.25,533.82,560.92,533.82,560.92Z" transform="translate(-36.83 -36.07)"/><path class="cls-6" d="M274.6,631.18c4.57,6.94-.29,14.7,2.91,20.74A28.94,28.94,0,0,0,280,656c.68.84,2.28,3.27,3,4.43-6.91-1.67-11.88-5.67-12.5-12.63C270.46,641.07,273.49,636.9,274.6,631.18Z" transform="translate(-36.83 -36.07)"/><path class="cls-6" d="M398.58,630.18c.22,1,3.07,16.27,4.07,18.76.2.6.84,3.36,1,3.91l-1.14-.4c-4.35-2.25-5.93-5-7.4-9.6C394.39,637.65,394.9,633.78,398.58,630.18Z" transform="translate(-36.83 -36.07)"/><path class="cls-6" d="M505,648.23c2.49,11.09,7.76,17.91,19.42,22.32C511.4,676,497.76,660.34,505,648.23Z" transform="translate(-36.83 -36.07)"/><path class="cls-6" d="M703.21,808.18c8.88-1.43,14.71,10.16,9.27,16.25C710.68,820.82,706.13,812.68,703.21,808.18Z" transform="translate(-36.83 -36.07)"/><path class="cls-6" d="M674.33,895.5c2.55,11.34,8.07,18,19.42,22.31C680.78,923.29,667.14,907.59,674.33,895.5Z" transform="translate(-36.83 -36.07)"/><path class="cls-6" d="M586.79,545.11a9.44,9.44,0,0,1,2.18,1,12.87,12.87,0,0,1,4,3.92c3,5.52,3.28,11.4-.85,16A137.81,137.81,0,0,1,586.79,545.11Z" transform="translate(-36.83 -36.07)"/><path class="cls-6" d="M699.46,559.37l1-.16c.32,0,.72,0,1.18,0,6.52.19,12.52,10.29,7.06,16.4,0,0-.18-.35-.49-.91a5.14,5.14,0,0,0-.49-1,12.12,12.12,0,0,1-.6-1.14c-.28-.82-1-1.64-1.38-2.54a14.71,14.71,0,0,0-1.55-2.64,15.53,15.53,0,0,0-1.48-2.69c-.59-.76-.92-1.82-1.49-2.48-.26-.36-.47-.74-.68-1.09a4.22,4.22,0,0,0-.58-.91C699.67,559.7,699.46,559.37,699.46,559.37Z" transform="translate(-36.83 -36.07)"/><path class="cls-6" d="M564.22,628.63c.3,1.35,1.46,7.45,1.46,7.52.41,3.05,2.84,11.88,3.56,15.15C560.37,648.2,557.21,635.49,564.22,628.63Z" transform="translate(-36.83 -36.07)"/><path class="cls-6" d="M670.58,646.69c2.53,11.22,7.9,17.95,19.42,22.31C677.07,674.46,663.37,658.82,670.58,646.69Z" transform="translate(-36.83 -36.07)"/><path class="cls-6" d="M733.16,587.91c10.88-31.32,32.48-39,46.69-33.45C756.49,556,745.74,574.89,733.16,587.91Z" transform="translate(-36.83 -36.07)"/><path class="cls-6" d="M860.92,466.64c-18.2,6.09-27.57,20.12-24.67,40.11C823.36,488.94,839.21,463.21,860.92,466.64Z" transform="translate(-36.83 -36.07)"/><path class="cls-6" d="M852.27,632c-4.44,29.72-3.12,20.84-3.49,42.61C840.93,662.76,841.13,644.06,852.27,632Z" transform="translate(-36.83 -36.07)"/><path class="cls-6" d="M272,784.23a69.35,69.35,0,0,1,49.68-49.08C299.2,751.28,291.41,757.8,272,784.23Z" transform="translate(-36.83 -36.07)"/><path class="cls-6" d="M751.59,739.88c20.4-4.34,42.75-3.41,59.53-22.9C806.15,732.4,787.06,746.62,751.59,739.88Z" transform="translate(-36.83 -36.07)"/><path class="cls-6" d="M538.62,731.43c-2.39-9.54,11.53-17.1,18.22-10A42.47,42.47,0,0,0,538.62,731.43Z" transform="translate(-36.83 -36.07)"/><path class="cls-6" d="M512.35,799c-1,13.52-6.8,34.56-13.07,46.71C498.2,830.29,503.57,811.5,512.35,799Z" transform="translate(-36.83 -36.07)"/><path class="cls-6" d="M422.88,788.53c-.34,14.43-5.8,34.91-12.91,47.75C409.51,821.25,414.72,801.63,422.88,788.53Z" transform="translate(-36.83 -36.07)"/><path class="cls-6" d="M408.62,847.69c1.65,3.66,1.32,5.55.92,9.34-2.15,5.93-1.2,3.09-2.65,5.66a12.26,12.26,0,0,1-2.28,2.33A14.86,14.86,0,0,1,408.62,847.69Z" transform="translate(-36.83 -36.07)"/><path class="cls-6" d="M581,808.92c2,15.49-1.45,35.8-6.89,48.18C572.3,843.17,574.9,822.88,581,808.92Z" transform="translate(-36.83 -36.07)"/><path class="cls-6" d="M748.07,829.88c3.43-18,21.25-31,39.48-28.51C769.7,808.66,762.12,813.42,748.07,829.88Z" transform="translate(-36.83 -36.07)"/><path class="cls-1" d="M332.53,804.38s10.09-46.85,62-50.46L379.74,832.5Z" transform="translate(-36.83 -36.07)"/><text x="-36.83" y="-36.07"/></svg>