<svg id="Layer_1" data-name="Layer 1" xmlns="http://www.w3.org/2000/svg" xmlns:xlink="http://www.w3.org/1999/xlink" viewBox="0 0 3000 3000"><defs><style>.cls-1{fill:#fbfbfb;}.cls-2,.cls-3,.cls-4,.cls-5,.cls-6,.cls-7,.cls-8,.cls-9{fill-rule:evenodd;}.cls-2{fill:url(#linear-gradient);}.cls-3{fill:url(#linear-gradient-2);}.cls-4{fill:url(#linear-gradient-3);}.cls-6{fill:url(#linear-gradient-4);}.cls-7{fill:#fff;}.cls-8{fill:url(#linear-gradient-5);}.cls-9{fill:url(#linear-gradient-6);}</style><linearGradient id="linear-gradient" x1="12100.15" y1="-5596.21" x2="12555.61" y2="10800.54" gradientTransform="matrix(0.03, 0, 0, -0.03, 1161.43, 1158.47)" gradientUnits="userSpaceOnUse"><stop offset="0" stop-color="#f7a084"/><stop offset="0.34" stop-color="#fff"/><stop offset="1" stop-color="#99dcf9"/></linearGradient><linearGradient id="linear-gradient-2" x1="1196.22" y1="1895.18" x2="1196.22" y2="1892.72" gradientTransform="matrix(181.67, 0, 0, -77.65, -215821.67, 148556.17)" gradientUnits="userSpaceOnUse"><stop offset="0" stop-color="#29aae3"/><stop offset="1" stop-color="#0091d5"/></linearGradient><linearGradient id="linear-gradient-3" x1="11641.13" y1="-4755.57" x2="11640.95" y2="-15842.04" gradientTransform="matrix(0.03, 0, 0, -0.03, 1161.43, 1158.47)" gradientUnits="userSpaceOnUse"><stop offset="0" stop-color="#ee3924"/><stop offset="0.36" stop-color="#f26921"/><stop offset="1" stop-color="#fdcc03"/></linearGradient><linearGradient id="linear-gradient-4" x1="11921.56" y1="-5006.01" x2="11921.9" y2="6441.76" gradientTransform="matrix(0.03, 0, 0, -0.03, 1161.43, 1158.47)" gradientUnits="userSpaceOnUse"><stop offset="0" stop-color="#fc261c"/><stop offset="1" stop-color="#fbd10d"/></linearGradient><linearGradient id="linear-gradient-5" x1="11921.18" y1="-17608.79" x2="11921.45" y2="-27587.04" gradientTransform="matrix(0.03, 0, 0, -0.03, 1161.43, 1158.47)" gradientUnits="userSpaceOnUse"><stop offset="0" stop-color="#ccc"/><stop offset="1" stop-color="#fff"/></linearGradient><linearGradient id="linear-gradient-6" x1="1197.08" y1="1875.49" x2="1197.08" y2="1873.02" gradientTransform="matrix(83.03, 0, 0, -32.85, -97895.37, 63648.46)" xlink:href="#linear-gradient-2"/></defs><title>logo1</title><g id="Layer_1-2" data-name="Layer_1"><g id="_2181695993424" data-name=" 2181695993424"><rect class="cls-1" width="3000" height="3000"/><circle cx="1500" cy="1500" r="842.03"/><path class="cls-2" d="M1500,718.41c431.66,0,781.59,349.93,781.59,781.59,0,200.69-75.66,383.68-200,522.08H918.39c-124.31-138.4-200-321.39-200-522.08,0-431.66,349.93-781.59,781.6-781.59Z" transform="translate(0 0)"/><path class="cls-3" d="M2267.92,1354a785.67,785.67,0,0,1,13.67,146c0,200.69-75.67,383.68-200,522.08H918.42c-124.33-138.4-200-321.39-200-522.08a785.67,785.67,0,0,1,13.68-146H2267.92Z" transform="translate(0 0)"/><path class="cls-4" d="M725.81,1354c-17.34,8.43,202.7,19.21,421.94,31.45,257.35,14.38-138.08,40.15-.36,49.27,31.09,2,30.22,3.57,137.17,3.57,204.27,0,125.22,17,2.2,31.32-165.26,19.25-388.13,38.74,96.87,53.75,57.06,1.77,93.31,14.42,25.76,24.39-95.7,14.14,107.46,15.47,123.82,11.35,28-7,389.49,1.1,186.29-22.18-45.3-5.19-89.27-9.55-121-13.24-61-7.07-91.91-12.9-7.8-14.87,41.77-1,129.07,1.6,207.87,3.53,506.48,12.43-393.4-72.65-6.32-65.81,149.28,2.63,392.29,12.71,431.33-.13,54.05-17.76-361.46-19.86-284.89-35.54,28.08-5.75,413.29,0,260.49-22.55-35.19-5.18-93.87-9.06-54.86-14.77,38.09-5.57,199.79-19.54,57-19.54H725.81Z" transform="translate(0 0)"/><path class="cls-5" d="M1747.86,1409.69H2051l227.4,19.52c2.09,23.32,3.22,46.92,3.22,70.79a789.39,789.39,0,0,1-6.62,102l-527.11-182.74v-9.59Z" transform="translate(0 0)"/><path class="cls-5" d="M1755.46,1412.32l569.72,196.82a840.11,840.11,0,0,0,7.14-109.14c0-18.87,0-46.7-1.28-65.53l-279.87-24-295.71,1.86Z" transform="translate(0 0)"/><path class="cls-5" d="M2129.43,1478.3v130.46c-16.46.5-33.51,2.33-51.15,4.42V1478.3c-2-1.3-3.09-2.76-3.09-4.31,0-5.26,12.83-9.52,28.66-9.52s28.67,4.26,28.67,9.52c0,1.55-1.11,3-3.09,4.31Zm-322-87.49v109.67c0,8-26.26,9.83-38.23,5.51-3.59-1.3-5.18-4.07-5.13-6.48l2.41-108.43c-1.7-1.08-2.66-.75-2.66-3.59s6.59-6.86,20.23-6.86c8.76,0,17.8.12,22.19,2.33,2.44,1.23,3.86,2.7,3.86,4.27,0,1.29-1,2.51-2.67,3.59Zm318.6,0v39.56H2083v-39.56c-1.66-1.07-2.62-2.29-2.6-3.59.13-8,36.37-9.37,45.49-3.66,1.76,1.1,2.79,2.33,2.79,3.66s-.95,2.52-2.61,3.59Zm-171.32,50.49v113.92c0,8.38-27.27,10.28-39.71,5.73-3.68-1.34-4.84-3.82-4.84-6.3l1-113.74c-1.77-1.12-2.77-2.38-2.77-3.73,0-4.56,9.3-7.86,23.47-7.86s25.65,3.69,25.65,8.25c0,1.34-1,2.61-2.77,3.73Z" transform="translate(0 0)"/><path class="cls-5" d="M1769.22,1506c-3.54-1.3-5.83-3.13-5.83-5.51V1390.82c-1.7-1.08-2.66-2.3-2.66-3.6,0-4.38,11.06-7.94,24.69-7.94,9.53,0,17.79,1.74,21.91,4.28-8.38-1.55-22.6-1.73-31.53-.41-6.69,1-10.2,3.64-6.58,5.08V1506Zm145.8,55c-3.68-1.35-6.06-3.25-6.06-5.72V1441.3c-1.77-1.12-2.76-2.39-2.76-3.73,0-4.56,11.48-8.25,25.65-8.25,9.89,0,18.48,1.8,22.76,4.44-8.71-1.6-23.49-1.79-32.76-.43-7,1-10.6,3.78-6.83,5.28V1561Zm168.47,41.68c-4.24-1.56-7-3.76-7-6.61V1478.29c-2-1.29-3.19-2.75-3.19-4.3,0-5.26,13.26-9.52,29.61-9.52,11.42,0,21.33,2.08,26.27,5.12-10.05-1.86-27.1-2.07-37.81-.49-8,1.18-12.24,4.36-7.89,6.09v127.43Zm-1.56-189.53v-22.28c-1.7-1.08-2.66-2.3-2.66-3.6,0-4.38,11.05-7.94,24.69-7.94,9.53,0,17.8,1.74,21.91,4.28-8.38-1.55-22.6-1.73-31.53-.41-6.69,1-10.2,3.64-6.57,5.08v25.37l-5.83-.5Z" transform="translate(0 0)"/><path class="cls-6" d="M1500,915.36c234.61,0,424.8,190.19,424.8,424.8,0,4.63-.1,9.23-.25,13.83h-849.1c-.15-4.6-.25-9.2-.25-13.83,0-234.61,190.19-424.8,424.8-424.8Z" transform="translate(0 0)"/><path class="cls-5" d="M711.18,1204.89c8.83,7,5.55-7.74,23.28,20.85s65.25,52.93,110.77,52,57.59-1.86,84.53,3.71,46-20.55,138.93,12c85.36,29.87,137.55,6.61,193.61,41.59,30.68,19.13,37.55,36.12,57.84,44.52,26.94,11.15,28.17,22.52,28.17,22.52-97.57,37.73-91.12,20.79-208.38,38.73-65.07,10-182.19,33.81-243.84,59.57-24.58,10.28-96.81,39.38-89.57,52,13.48,23.51,36.86,35.33,128.7,38.25,57.59,1.83,226.79,6.8,265.84-12.3,47.38-23.18,101.87-4.31,150.14,7.58,30.7,7.55,56.34,9.67,87,8.79,25.42-.73,52.52-4.31,90.64-7.79,156.79-14.33,243.72-37.46,345.3-.68s188.93,6,264.37,6,113.82,5.14,173.09,5.49c-28,175.82-90.58,369.17-209.6,490.89l-1137.2,61.5C777.43,1995.68,658,1761.79,658,1500a840,840,0,0,1,53.22-295.11Z" transform="translate(0 0)"/><path class="cls-5" d="M524.39,1602.09l194.08-112L808.57,1626l1450.62,13,22.34-148.91,194.07,112v527.78a45.47,45.47,0,0,1-60,43.28c-541.54-179.5-1289.78-179.5-1831.32,0a45.46,45.46,0,0,1-60-43.28V1602.09Z" transform="translate(0 0)"/><path class="cls-7" d="M679.2,1820.72q38.89-3.56,77.8-6.77c16.25-1.33,28.49-5.36,36.53-12.13s12.05-16.4,12.05-28.86c0-11.63-3.62-20.35-11.14-25.94s-18.63-8.3-33.42-7.63c-27.4,1.24-54.61,2.5-81.82,3.86v77.47ZM2086.47,2026.5v-367c32.33.14,64.65.23,97.17.37v135.62q66,4.65,132.41,10V1660.6l97.17.54V2092.7c-32.51-8.13-64.84-16-97.17-23.49V1897q-66.3-8.45-132.41-15.81v161.12c-32.52-5.54-64.84-10.91-97.17-15.81Zm-56.25-133.77c-3.3,21.27-9.51,39.8-18.27,55.49a114.13,114.13,0,0,1-35.25,38.66c-29,20.07-66.64,27.45-112.88,23.54-55.13-4.67-99.63-23.3-133.69-56.89-16.9-16.66-29.77-35.35-38.17-56.47s-12.61-44.58-12.61-70.34c0-26.85,4.4-50.89,13-72.2a153.89,153.89,0,0,1,38.72-55.94c34.52-32.07,80.55-48.25,138.44-48.25q68.51,0,112.15,33.9c29,23.13,45.48,54.75,49.68,94.6q-45.48-2-91-3.73c-4.38-16.85-12.78-29.71-25.2-38.39s-28.68-13.15-48.77-13.49q-40.55-.72-64.11,27.57c-15.71,18.77-23.56,44.58-23.56,77.61,0,32.76,7.37,58.54,22.28,77.56s35.8,29.41,62.83,31.26c21.55,1.47,39.09-2.09,52.06-10.72,13.15-8.73,21.36-22.36,24.47-40.72q44.94,3.21,89.86,7Zm-602.18-34c27.39-.18,54.79-.27,82.37-.32-7.12-18.85-14.25-37.66-21.19-56.47s-13.88-37.71-20.82-56.57c-6.76,18.9-13.7,37.8-20.27,56.66s-13.52,37.8-20.09,56.7Zm-9.13-200.1q52.88-.06,105.75,0c22.1,54.7,44.4,109.49,66.48,164.43s44.57,110.46,66.85,166.07q-52.07-1.5-103.93-2.27-11.5-30.19-23-60.34-63.29-.08-126.21.68c-7.3,20.22-14.43,40.48-21.55,60.75q-50.14,1.42-100.27,3.59,34-84.45,67.94-167.71,33.93-83,67.94-165.16ZM969.6,2018.73V1659.37q143.28-.4,286.75-.63V1727q-95.07,1.29-190.13,3.27v61.57q86.85-3.27,173.7-5.45v67.06q-86.85,3.27-173.7,8.13v74.61q98.08-7.37,196.34-12v68.21q-146.57,9.33-293,26.3Zm-290.4-29.9c24.29-4.45,48.56-8.72,73-12.72,23.18-3.77,39.27-9.4,48.59-17.31q13.7-11.79,13.7-34.94,0-20.86-13.15-29.85c-8.77-6-21.93-8.31-39.45-6.23q-41.38,4.93-82.74,10.45v90.6ZM586.78,2092.7V1661.14q91.5-.54,183.19-1,66-.32,97.17,23.08,31.5,22.76,31.42,70.79c0,19.94-4.57,36.53-13.89,50.07s-23.56,24.81-42.74,33.49c21.92,3.81,38.72,12.45,50.23,25.8,11.69,13.36,17.53,30.49,17.53,51.62a121.83,121.83,0,0,1-14.43,57.79A131.3,131.3,0,0,1,854.53,2018c-11.69,8.36-26.14,15.35-42.73,21.08-16.83,5.81-42.59,12-77.44,19.31-49.35,10.39-98.45,22.08-147.58,34.35Z" transform="translate(0 0)"/><path class="cls-8" d="M2098.29,2016.35q36.81,5.69,73.52,12V1868l13.13,1.47q66.38,7.39,132.61,15.83l10.33,1.32v173.22q36.82,8.58,73.51,17.76V1672.91l-73.51-.42v145.88l-12.79-1q-66.11-5.37-132.28-10l-11-.77V1671.7l-73.52-.27v344.92Zm-82.13-112.91q-33.27-2.71-66.56-5.14c-4.54,15.47-13.22,28.77-27.18,38-17.37,11.54-39,14.06-59.4,12.67-28.66-2-53.46-13-71.33-35.77-18.92-24.14-24.8-54.83-24.8-84.85,0-30.45,6.33-61.3,26.31-85.2,18.83-22.52,44.25-32.32,73.38-31.81,19.45.33,39.15,4.31,55.34,15.62,13.17,9.19,21.95,21.88,27.24,36.58q34.2,1.32,68.37,2.8c-5.58-29-19.12-53.88-43.23-72.88-30-23.62-67.38-31.36-104.82-31.36-48.26,0-94.37,11.66-130.4,45.1a142.62,142.62,0,0,0-35.79,51.68c-8.67,21.56-12.11,44.63-12.11,67.78,0,22.56,3.4,45,11.76,66,8,20,20.18,37.34,35.49,52.43,34.61,34.13,78.5,49.46,126.39,53.52,36,3,74.59-.36,105.15-21.48a102.51,102.51,0,0,0,31.65-34.7,145.29,145.29,0,0,0,14.54-39Zm-499.48-233.06q-44.94,0-89.86,0-32.57,78.86-64.91,157.82-30.77,75.23-61.08,150.65,37-1.5,74-2.6,9.36-26.61,18.89-53.18l2.78-7.7,8.19-.11q63.18-.81,126.37-.68h8.13l2.91,7.6q10.08,26.43,20.16,52.86,39,.66,78,1.65-30-74.7-60.14-149.34-31.59-78.57-63.49-157Zm-99.81,184.44c6.59-18.94,13.49-37.78,20.09-56.71s13.54-37.83,20.31-56.75l11-30.69,11.26,30.59q10.41,28.27,20.82,56.55c6.94,18.84,14.06,37.62,21.15,56.4l6,16-17.08,0q-41.16.06-82.32.32l-16.75.11,5.51-15.82Zm-188.78-12.72v-43.55q-80.73,2.09-161.43,5.13l-12.27.46v-85.43l11.59-.24q89.26-1.85,178.55-3.11v-44.79q-131.55.21-263.1.59v334.3q134.33-15.37,269.31-24.13v-44.71q-91.89,4.5-183.63,11.39l-12.71,1v-98.54l11.17-.62q81.23-4.53,162.52-7.71ZM598.6,2077.58c44.28-10.95,88.68-21.41,133.32-30.8,24.7-5.2,52.17-10.68,76-18.92,13.84-4.78,27.77-11.08,39.76-19.56,15.52-11,28.14-24.33,37.14-41.1a108.65,108.65,0,0,0,13-52.2c0-16.24-3.84-31.43-14.63-43.86-11.11-12.8-27-19.07-43.33-21.91l-37.83-6.59,35-15.84c14.65-6.63,28.64-15.93,37.85-29.39,8.82-12.89,11.82-28,11.82-43.39,0-24.29-6.42-46.44-26.59-61.26-24-17.59-61.41-20.93-90.11-20.79q-85.71.4-171.42.93v404.68Zm68.77-88.75V1887.88l10.26-1.37Q719,1881,760.54,1876c15.88-1.89,33.91-1.14,47.54,8.22,13.37,9.18,18.28,23.87,18.28,39.6,0,16.79-4.76,32.74-17.84,43.93-14,12-36.65,17.11-54.37,20q-36.48,6-72.82,12.68l-14,2.57v-14.2Zm11.23-257.39q40.93-2.06,81.88-3.87c14.2-.64,29.31,1.25,41,10,11.48,8.53,15.91,21.47,15.91,35.43,0,14.8-4.79,28.23-16.26,37.9-11.81,10-28.15,13.64-43.18,14.88q-38.87,3.16-77.7,6.76l-12.9,1.17V1732l11.23-.56Z" transform="translate(0 0)"/><path class="cls-9" d="M1388.8,2069.69c-21.8,6-46.53,63.43-54.39,79.54-11.15,22.85-30.42,69.09-55.4,84.52-19.52,12.06-43.81,12.75-55.58-10.47-4.82-9.5-6.11-21.1,1.63-18.43,2.81,1,6.69,3,11.67,4,31.27,6,66.47-57,77.34-75.13,9.35-15.56,36.47-65.79,59.56-69.68,7.21-1.21,14.5.22,15.17,5.7Zm-224.44,46.65a21.59,21.59,0,1,1-21.58,21.59A21.59,21.59,0,0,1,1164.36,2116.34Zm671.27,0a21.59,21.59,0,1,1-21.58,21.59A21.59,21.59,0,0,1,1835.63,2116.34Zm-146.48,6.09c-20,.25-45.06,3.3-71.79,5.65-12.4,21.38-25.26,43.3-36.4,62.67-12.06,21,3.4,28.83,25,9.36,11.81-10.64,27.18-34.66,33-51.54h31q-15.66,27.75-23.91,42.18c-10.32,18.77-3.72,30.08,17.86,10,11.61-10.78,30.89-37.16,33.52-52.22h31.06q-25.29,43.3-38.2,73.77c13.51-6.48,27.14-15.7,37.17-26.73,29.12-32.05,18-73.86-38.34-73.18ZM1348,2026.57c47-2.26,102.43,12.18,102.43,55.76,0,28.58-27.05,49.1-59,58.78-12.89,3.92-41.39,9.7-40.09-5.52,35.9-1.72,67.53-22.89,67.53-52.87,0-31.08-33.28-45.55-68.94-43.84-33.19,1.59-65.92,15.52-82.45,40-24.09,35.78,18.45,55.1,45.87,18.78,6.44-2.12,6.16,2.3,4.28,7.16-16.77,43.53-90.66,49-90.66,2a55,55,0,0,1,8.3-28.71c21-34.91,68.29-49.41,112.7-51.54Zm239.19,103.67c-17.89.89-35.92.93-53.13-.85-27.76-2.87-46.81-8.49-58.48-17.91-24.81-20.05-21.13-57.2,16.14-63.26,13.57-2.2,26,1.51,28.75,5.76,4.35,6.69-9.78-2.23-17.93,13.83-19.17,37.77,44.47,43.12,98.3,38.81,3-5.54,6-12.44,6-17.62h33c-3,5.28-6.09,10.75-9.29,16.34,23.41-1.76,45.62-2.62,62.64-.82,72,7.61,89.55,61.63,42.88,105.23-22.14,20.67-53.48,32.61-74.59,39.33-18.09,5.76-44.78,11.08-58.07,21.53-26.91,21.17,7.22,39.07,28.3,14.89q8.2-9.4,15.57-25.6c12-3.3,23.21-7.06,32.44-10.41a224.61,224.61,0,0,1-10.77,23.15c-7.09,12.85-18.12,27-34.77,32.38-52.58,16.94-84.51-24.85-49.59-47.6,18.47-12.05,49.85-16.7,72.54-23.13q3-7.89,6.87-16.69c-18.13,15.85-55.09,24.06-53.73-3.77-18.7,17.43-59.28,31.67-64.68-.41-38.32,37-75.57,18.87-51.69-28a248.79,248.79,0,0,1,18.42-29.64q-12.91.9-20.61.9c-9.6,22.35-32.54,58.58-59.49,71.51-16.87,8.1-38.33,5.36-38.33-14-20.08,21.54-55.78,29.1-55.78-5,0-19.8,15.72-41.72,34.07-54,14.22-9.54,40-16.55,48.36,1.92.94-2.8,1.93-5.65,1.93-8.57h31q-15.66,27.75-23.91,42.18c-2.06,3.75-9.76,20.76,1.1,20.76,17.36,0,43.25-45.34,47.81-57.07a11,11,0,0,1-5.77-10.16,15.72,15.72,0,0,1,4.26-10.82,13.37,13.37,0,0,1,10.3-4.74,8.92,8.92,0,0,1,6.74,2.71,9.64,9.64,0,0,1,2.61,7,23.36,23.36,0,0,1-.56,4.51c8.37-.43,18-1.81,26.11-1.81,9.24,0,25.39,6.43,19,15.57a160.68,160.68,0,0,0-17.45,26.73c-22.6,42,13.2,32.87,36.9-8,8.1-14,17.73-30.12,26.58-45.15Zm-211.45,81.5c16.3,0,32.79-33.16,38.19-42.64-2.22-14.65-13.51-13.41-25-3.39-8.8,7.68-35.09,46-13.19,46Z" transform="translate(0 0)"/><path class="cls-5" d="M1276.66,1220.7c-54.61,44.3-111.46,110.62-147.77,185.68l41.12,12.89c14.49-67.76,71.5-153.61,132.54-204.21,2.62,10.5,2.09,23.25,1.74,28.27,9.25,5.61,11.24,8.44,11.24,8.44l-12.56-1.91c3.4,31.85-3.74,55.15-21.2,81.67,51.23-20,59.9-80.54,36.84-120.75,7.32,4.73,15.7,11.18,22.38,19.14,15.26,18.19,24.77,42.61,24.77,42.61l6.84-17.67-.69,21.16s27.33,27.48,29.9,62.57c10.7-37.55-3.63-95.85-31.64-121.78a78.63,78.63,0,0,0-45.43-20.56c10.31-1.93,23.17-2.39,32.56-.71-2.13-7.12-3-9.87-3-9.87s4.37,3.93,9.64,9.15c24.19-1.88,49.69,7.22,73.87,23.21,0,0-22.23-33-57.2-46.6-24.88-9.65-49,4.88-60.88,14.07,5-13.36,10.51-38.41-7.89-57.12-26.3-26.74-65.43-34.08-65.43-34.08,7.61,5,18.51,14.19,29,26,4.78,1.71,12.5,5.47,25,13.13,0,0-5.77-2.29-17.43-4.14,12.64,16.15,23.32,35.71,24.9,55.47a78.71,78.71,0,0,0-44.32-36.53c-36.29-11.86-94.2,4-121.82,31.58,31.92-14.82,69.23-4.31,69.23-4.31l18.15-10.89L1217,1179.17s26-3.57,49.28.92c13.59,2.62,26.3,9.18,34.54,14.2-14.67-3.33-42.69-6.2-62.48,13.23-27.93,27.43-35.62,68.27-35.62,68.27,16.91-38.32,51.5-50.09,61.25-52.72,2.91-7.19,5.47-12.75,5.47-12.75a101.34,101.34,0,0,0,.66,14,53.81,53.81,0,0,1,6.52-3.62Z" transform="translate(0 0)"/><path class="cls-5" d="M1022.1,1011.78C909.78,1175.51,809,1400.65,770.86,1633l121.7,2c-15.11-195.09,70.44-473.25,195.13-659.19,15.51,26.34,24.3,61.28,27.36,75.14,29.55,7.78,37.22,13.87,37.22,13.87l-35.53,4.87c34.74,83.54,34.09,152.32,8.06,238.14,122.69-95.19,97.63-266.09,3-356.48,23.6,7,51.47,17.68,76,33.89,55.9,37,101.21,95.52,101.21,95.52l4.37-53.33,15.09,57.82s96,52.52,131.13,145.47c-1.16-110.26-86.69-256.63-183.33-304.39a221.89,221.89,0,0,0-139.47-19.22c26.38-13.5,60.84-25,87.59-28-11.46-17.58-15.91-24.35-15.91-24.35s15,7.12,33.44,17.05c64-24.48,140.32-20.3,218.59,3.62,0,0-86.67-71.62-192.22-80.32-75.1-6.2-128.81,52.51-153.56,86.9,2.78-40.18-2.34-112.44-67.16-148.35C950.82,682.25,839,693.75,839,693.75c24.61,7.39,61.5,23.59,99.44,47.07,14.34.79,38.25,4.8,78.11,15.55,0,0-17.46-1.58-50.54,2.76,47.18,33.61,91.77,78,111.91,130.22A222.3,222.3,0,0,0,928.6,826c-107.75-3-251.85,86.24-304.5,183.13,74.54-65.7,184-67.14,184-67.14l40.42-44-21.12,49.17s67.43-30.48,134.16-37c38.91-3.82,78.58,3.77,104.9,10.76-42.36,2.74-120.54,17.42-158.54,85.9-53.64,96.66-41.71,213.4-41.71,213.4,15-117.3,99.28-176.91,123.57-191.83,2.1-21.79,4.59-38.89,4.59-38.89a285.21,285.21,0,0,0,13,37.36,150.86,150.86,0,0,1,14.76-15Z" transform="translate(0 0)"/><path class="cls-5" d="M2012.78,967.41S1972.15,975,1956,995.19s10.24,44.9,10.24,44.9-36.42-16.26-44.44-14.31-26.73,12.92-43.2,27.8-23,24.7-23,24.7-.43-24.83,16.06-46.11,39.16-25.1,39.67-33.09-7.53-14.69-7.53-14.69,13.21,4.36,23.88,8.17,15.77-49.16,85.09-25.15Zm46.07,171.94s-18.67,5-25.49,15,6.36,20.56,6.36,20.56-17.55-6.29-21.22-5.1-12,7-19.15,14.49-9.85,12.32-9.85,12.32a37.76,37.76,0,0,1,5.86-22.06c6.94-10.51,17.37-13.08,17.32-16.83s-4-6.57-4-6.57,6.31,1.56,11.42,3,5.62-23.47,38.77-14.72Z" transform="translate(0 0)"/><path class="cls-5" d="M1672.69,1329.11c-4.06,9.34-11.44,17.73-19.6,24.88h-88.51c-8.16-7.15-15.54-15.54-19.6-24.88,28.57-2.92,99.15-2.92,127.71,0Zm-63-132.55s5.13,42.55,4.7,74-.21,55.38-.21,55.38-29.48-6.78-57.22-2.26c11-12,39.72-49.9,52.73-127.1Zm4,6.41c16.35,31.39,33.34,86.52,29.59,121.67,0,0-7.52-11.16-25.72-18.64C1621.56,1295.13,1633.19,1255.11,1613.74,1203Z" transform="translate(0 0)"/></g></g></svg>